# Blender 4.4.3
# www.blender.org
mtllib distant_mountain_01.mtl
o Plane
v -504.701141 -169.894318 -37.066872
v 467.225281 -149.386169 94.495552
v 420.558655 -26.055038 32.280792
v 404.031891 143.901367 -9.255678
v 338.074310 280.129364 -25.936279
v 317.628418 358.202850 12.864939
v 247.958405 268.031189 2.334587
v 238.894241 255.426071 10.888216
v 277.031952 165.976898 57.014824
v 400.378571 63.879349 104.173073
v 147.183502 -82.314476 406.562653
v 216.975815 326.876404 62.650444
v 164.320557 421.826996 96.581802
v 133.957947 375.617645 104.633904
v 122.575867 343.967499 103.341690
v 49.806850 269.273010 146.797379
v 80.625313 145.837296 238.592987
v 105.638794 80.729813 313.530701
v 82.911598 7.759619 362.641296
v -21.738911 634.273560 86.908188
v -206.611771 -7.671559 464.475830
v 90.105476 475.748718 61.550945
v 71.892052 541.834351 60.705002
v 11.641922 436.378387 114.286003
v 17.947912 604.121948 80.546989
v -77.190063 603.362366 86.908188
v -185.800308 390.673065 87.583839
v -197.049667 347.375580 92.604507
v -246.415085 189.620117 153.441360
v -392.927551 -65.153099 164.120178
v -441.105927 -169.894318 64.564285
v -212.737610 423.504578 87.259697
v -337.690369 198.843094 24.084854
v -389.412872 72.022964 53.487556
v -438.062866 -57.596039 71.020012
v -403.318695 118.037323 -96.246437
v -504.701141 -78.595306 -37.066872
v -380.882507 240.165634 -10.011411
v -476.169586 -130.335663 8.529325
v 45.355022 495.718292 73.731247
v -2.695969 271.320099 185.431992
v -28.920126 185.765320 209.823654
v -72.235580 149.434525 250.414444
v -130.818344 -2.875113 326.638885
v -299.775116 -51.345528 368.193970
v -24.593925 492.572510 118.215302
v -97.416397 473.086121 114.824463
v -137.398529 367.779633 157.789093
v -148.818832 286.726471 210.562851
v -156.556076 212.777084 277.251373
v 161.368179 315.824615 151.628250
v 138.376160 222.788376 252.735352
v 154.117661 112.834618 283.134583
v 343.737518 247.417908 48.032875
v 392.432831 149.291077 71.344604
v 348.680267 -20.218363 212.321976
v 301.003082 15.475592 224.275085
v 185.613281 -31.814840 280.558075
v 199.118225 291.570465 77.571388
v 259.110352 196.407181 124.158218
v 340.869293 99.306213 158.728104
v -38.752892 -58.715473 419.363922
v 59.001392 -17.867577 234.490631
v -558.916870 -99.542358 -49.106426
v -412.886719 139.710449 10.337188
v -436.688599 69.474808 32.188576
v -459.233856 14.970091 22.163321
v -310.789703 188.491028 136.510651
v -397.095886 -35.351051 299.525848
v -246.833252 299.831940 120.333466
v -322.670868 154.580002 164.018204
v -369.704010 -49.528416 268.024506
v -328.715240 5.922523 298.137970
v -324.240021 193.667068 80.297760
v -356.041870 113.301483 108.752869
vn -0.8477 -0.0000 0.5305
vn -0.8619 -0.0231 0.5066
vn -0.8490 -0.0030 0.5285
vn 0.9147 0.3929 0.0950
vn 0.9528 0.2812 0.1141
vn 0.9449 0.3040 0.1216
vn 0.4755 0.4421 0.7606
vn 0.6409 0.2368 0.7302
vn 0.9420 0.1024 0.3197
vn -0.7009 0.4347 0.5655
vn -0.2596 0.2813 0.9238
vn -0.6791 0.3558 0.6420
vn 0.3727 0.1623 0.9137
vn 0.2574 0.2895 0.9219
vn 0.4783 0.1766 0.8603
vn -0.9739 0.2226 0.0435
vn -0.9789 0.1961 -0.0579
vn -0.9378 0.3342 0.0945
vn -0.9276 0.3348 0.1659
vn -0.8520 0.0257 0.5229
vn -0.8456 0.1483 0.5129
vn -0.6861 0.1980 0.7001
vn 0.4868 0.3972 0.7780
vn 0.1886 0.1108 0.9758
vn 0.3409 0.2077 0.9169
vn 0.4764 0.5608 0.6771
vn 0.4286 0.3909 0.8145
vn 0.4947 0.3771 0.7830
vn -0.4542 0.3540 0.8175
vn -0.6932 0.2213 0.6859
vn -0.5744 0.3266 0.7506
vn -0.2495 0.5207 0.8165
vn -0.1700 0.2843 0.9435
vn -0.2552 0.2603 0.9312
vn 0.1010 0.9125 0.3965
vn 0.4571 0.0838 0.8854
vn 0.5721 0.1716 0.8020
vn 0.5375 0.2709 0.7986
vn 0.5884 -0.7792 -0.2158
vn -0.9506 0.2762 -0.1415
vn -0.9512 0.2744 -0.1412
vn -0.9203 0.3869 -0.0578
vn 0.9689 0.0243 0.2461
vn 0.9431 0.3248 0.0714
vn 0.9706 0.2387 0.0312
vn 0.8237 0.5666 0.0212
vn 0.8417 0.5256 0.1236
vn 0.7716 0.5402 0.3360
vn 0.7971 -0.1743 0.5781
vn 0.6022 -0.1317 0.7874
vn 0.7372 -0.0899 0.6696
vn 0.5017 -0.0307 0.8645
vn 0.8348 0.4925 0.2459
vn 0.6515 0.7539 0.0853
vn 0.4415 0.3100 0.8420
vn 0.5987 0.7885 0.1411
vn 0.1066 0.1137 0.9878
vn 0.0862 0.2133 0.9732
vn -0.1731 0.2260 0.9586
vn -0.7430 0.3657 0.5606
vn -0.4245 0.5145 0.7450
vn -0.7390 0.4560 0.4959
vn -0.5008 0.5763 0.6458
vn -0.6420 0.5844 0.4962
vn -0.6923 0.5411 0.4774
vn 0.2744 0.1588 0.9484
vn 0.0621 0.0608 0.9962
vn 0.0818 0.0452 0.9956
vn 0.0337 0.2675 0.9630
vn -0.8507 0.4692 0.2368
vn -0.8523 0.4691 0.2314
vn -0.1389 0.5267 0.8386
vn -0.7312 0.3434 0.5894
vn -0.9007 0.0902 0.4249
vn -0.8309 -0.1317 0.5406
vn -0.4813 0.2241 0.8474
vn -0.4214 0.3597 0.8325
vn -0.4126 0.1612 0.8965
vn -0.4970 0.1808 0.8487
vn 0.0233 -0.5428 0.8396
vn -0.5664 0.0845 0.8198
vn -0.0050 0.0057 1.0000
vn 0.3591 0.0565 0.9316
vn -0.2169 0.3041 0.9276
vn -0.2784 0.3395 0.8985
vn -0.4968 -0.1259 0.8587
vn 0.6840 -0.3145 0.6582
vn 0.4964 -0.3013 0.8141
vn 0.3332 0.3416 0.8788
vn 0.5416 0.4465 0.7123
vn 0.3061 0.4862 0.8185
vn 0.0932 0.3353 0.9375
vn -0.0577 0.2179 0.9743
vn -0.2232 0.0871 0.9709
vn -0.2510 0.0089 0.9680
vn -0.5056 0.8593 -0.0775
vn 0.1229 0.5044 0.8547
vn -0.9283 0.3576 0.1017
vn -0.9356 0.2237 0.2730
vn -0.9371 0.2407 0.2526
vn -0.9101 0.1102 0.3995
vn 0.0496 -0.0585 0.9971
vn 0.4911 0.5955 0.6358
vn 0.1368 0.4234 0.8955
vn 0.1969 0.4308 0.8807
vn 0.4758 0.2876 0.8312
vn 0.1667 0.2390 0.9566
vn 0.3038 0.2510 0.9191
vn -0.0720 0.7409 0.6677
vn -0.5439 0.2617 0.7973
vn -0.4506 0.1774 0.8749
vn -0.5174 0.4250 0.7428
vn -0.3153 0.6876 0.6540
vn -0.4228 0.6289 0.6524
vn -0.3233 0.7098 0.6258
vn -0.0649 0.3527 0.9335
vn -0.0754 0.2965 0.9521
vn -0.3880 0.1946 0.9009
vn -0.2908 0.4816 0.8267
vn 0.8247 0.4704 0.3140
vn 0.6555 0.4618 0.5975
vn 0.6099 0.6537 0.4480
vn 0.6964 -0.0154 0.7175
vn 0.8200 0.3867 0.4220
vn 0.8989 0.1820 0.3986
vn 0.6587 0.3930 0.6416
vn 0.7187 0.3437 0.6044
vn 0.3369 0.9161 0.2172
vn 0.2787 0.9195 0.2771
vn 0.2854 0.9195 0.2703
vn 0.2299 0.9176 0.3243
vn 0.4541 0.2755 0.8473
vn -0.2877 0.5486 0.7850
vn -0.3071 0.5353 0.7868
vn -0.3036 0.9433 -0.1341
vn -0.7894 0.5962 0.1462
vn -0.8421 0.5350 0.0680
vn -0.9279 0.3575 -0.1059
vn -0.1841 0.6287 0.7555
vn -0.8379 0.3901 0.3817
vn -0.8574 0.4389 0.2688
vn -0.8358 0.3447 0.4273
vn -0.7817 -0.3121 0.5400
vt 0.000000 0.000000
vt 0.120057 0.000000
vt 0.053863 0.051414
vt 0.926087 0.498199
vt 0.936128 0.372620
vt 1.000000 0.349195
vt 0.851419 0.304381
vt 0.842656 0.169325
vt 0.931830 0.246521
vt 0.395748 0.611930
vt 0.429522 0.774235
vt 0.336363 0.683394
vt 0.538701 0.960812
vt 0.531855 0.733744
vt 0.564605 0.819921
vt 0.206199 0.172104
vt 0.214690 0.208077
vt 0.200055 0.388949
vt 0.160884 0.351684
vt 0.000000 0.118661
vt 0.126366 0.145953
vt 0.073024 0.247469
vt 0.569974 0.525611
vt 0.653648 0.622691
vt 0.423132 0.504122
vt 0.372015 0.386837
vt 0.520620 0.397025
vt 0.665692 0.663826
vt 0.692409 0.572835
vt 0.838546 0.492237
vt 0.855763 0.377826
vt 0.675066 0.165060
vt 0.671818 0.000000
vt 0.631251 0.338264
vt 0.632730 0.299365
vt 0.317320 0.220457
vt 0.197708 0.136132
vt 0.223290 0.000000
vt 0.074164 0.402183
vt 0.066033 0.487780
vt 0.000000 0.374223
vt 1.000000 0.182350
vt 0.969863 0.524927
vt 0.922702 0.633524
vt 0.784602 0.430908
vt 0.763945 0.600478
vt 0.740788 0.554591
vt 0.695485 0.723884
vt 0.793365 0.226191
vt 0.497982 0.813330
vt 0.500667 1.000000
vt 0.445138 0.959825
vt 0.323431 0.627120
vt 0.273988 0.459287
vt 0.295654 0.339872
vt 0.309409 0.726065
vt 0.284467 0.592926
vt 0.151286 0.441145
vt 0.199113 0.448217
vt 0.121714 0.314418
vt 0.103458 0.434074
vt 0.088807 0.314182
vt 0.000000 0.144634
vt 0.587384 0.879857
vt 0.611725 0.793966
vt 0.849858 0.508620
vt 0.503094 0.490854
vt 0.594062 0.365182
vt 0.562243 0.149185
vt 0.552385 0.000000
vt 0.624717 0.210144
vt 0.476805 0.318835
vt 0.409988 0.244909
vt 0.651333 0.495829
vt 1.000000 0.000000
s 1
usemtl Material
f 1/1/1 31/2/2 39/3/3
f 54/4/4 55/5/5 4/6/6
f 61/7/7 56/8/8 10/9/9
f 48/10/10 47/11/11 27/12/12
f 25/13/13 24/14/14 40/15/15
f 72/16/16 69/17/17 71/18/18 75/19/19
f 37/20/20 35/21/21 67/22/22
f 16/23/23 15/24/24 24/14/25
f 49/25/26 50/26/27 42/27/28
f 14/28/29 15/24/30 51/29/31
f 8/30/32 9/31/33 54/4/34
f 56/8/35 58/32/35 11/33/35
f 53/34/36 18/35/37 58/32/38
f 45/36/39 30/37/39 21/38/39
f 65/39/40 38/40/41 36/41/42
f 31/2/2 35/21/21 39/3/3
f 39/3/3 37/20/20 1/1/1
f 3/42/43 4/6/6 55/5/5
f 4/6/6 5/43/44 54/4/4
f 3/42/43 55/5/5 10/9/9
f 5/43/44 6/44/45 54/4/4
f 9/31/46 8/30/47 60/45/48
f 8/30/49 12/46/50 59/47/51
f 12/46/50 13/48/52 59/47/51
f 59/47/53 60/45/48 8/30/47
f 60/45/48 61/7/54 9/31/46
f 61/7/7 57/49/55 56/8/8
f 56/8/8 3/42/43 10/9/9
f 10/9/56 9/31/46 61/7/54
f 46/50/57 20/51/58 26/52/59
f 26/52/59 27/12/12 47/11/11
f 27/12/12 28/53/60 48/10/10
f 28/53/60 29/54/61 49/25/62
f 29/54/61 73/55/63 45/36/64 50/26/65
f 49/25/62 29/54/61 50/26/65
f 49/25/62 48/10/10 28/53/60
f 47/11/11 46/50/57 26/52/59
f 28/53/66 27/12/67 32/56/68
f 32/56/68 70/57/69 28/53/66
f 74/58/70 75/19/19 71/18/18 68/59/71
f 28/53/66 70/57/69 68/59/72 29/54/61
f 34/60/73 35/21/21 30/37/74
f 35/21/21 31/2/2 30/37/74
f 31/2/2 21/38/75 30/37/74
f 37/20/20 39/3/3 35/21/21
f 35/21/21 34/60/73 67/22/22
f 34/60/73 33/61/76 65/39/77
f 67/22/22 34/60/73 66/62/78
f 33/61/76 38/40/79 65/39/77
f 65/39/77 66/62/78 34/60/73
f 64/63/80 37/20/80 67/22/80
f 38/40/79 33/61/76 32/56/81
f 32/56/68 27/12/67 26/52/82
f 25/13/13 40/15/15 23/64/83
f 22/65/84 14/28/29 13/48/85
f 23/64/86 22/65/86 13/48/86
f 12/46/50 8/30/49 7/66/87
f 13/48/52 12/46/50 6/44/88
f 12/46/50 7/66/87 6/44/88
f 40/15/15 24/14/14 22/65/89
f 24/14/25 41/67/90 16/23/23
f 22/65/89 24/14/14 14/28/91
f 41/67/92 42/27/93 17/68/94
f 42/27/93 63/69/95 17/68/94
f 63/69/96 62/70/96 19/71/96
f 62/70/97 11/33/97 19/71/97
f 19/71/98 18/35/99 63/69/100
f 18/35/99 17/68/101 63/69/100
f 23/64/83 40/15/15 22/65/89
f 15/24/24 14/28/102 24/14/25
f 17/68/103 16/23/23 41/67/90
f 46/50/57 47/11/11 24/14/14
f 47/11/11 48/10/104 24/14/14
f 48/10/104 49/25/105 41/67/92
f 25/13/13 20/51/58 46/50/57
f 41/67/92 24/14/14 48/10/104
f 24/14/14 25/13/13 46/50/57
f 43/72/106 42/27/28 50/26/27
f 42/27/93 41/67/92 49/25/105
f 45/36/107 44/73/108 50/26/27
f 44/73/108 43/72/106 50/26/27
f 17/68/109 18/35/109 53/34/109
f 17/68/110 53/34/111 52/74/112
f 15/24/113 16/23/114 51/29/115
f 16/23/114 17/68/110 52/74/112
f 51/29/115 16/23/114 52/74/112
f 13/48/85 14/28/29 51/29/31
f 9/31/33 10/9/116 55/5/117
f 54/4/34 6/44/118 7/66/119
f 9/31/33 55/5/117 54/4/34
f 7/66/119 8/30/32 54/4/34
f 2/75/120 3/42/120 56/8/120
f 56/8/8 57/49/55 58/32/38
f 58/32/38 19/71/121 11/33/122
f 11/33/123 2/75/123 56/8/123
f 58/32/38 57/49/55 53/34/36
f 57/49/55 61/7/7 60/45/48
f 60/45/48 59/47/53 51/29/124
f 59/47/53 13/48/125 51/29/124
f 57/49/55 60/45/48 53/34/126
f 18/35/37 19/71/121 58/32/38
f 51/29/124 52/74/127 60/45/48
f 52/74/127 53/34/126 60/45/48
f 21/38/128 62/70/129 44/73/130
f 62/70/129 63/69/131 44/73/130
f 63/69/132 42/27/28 43/72/106
f 63/69/132 43/72/106 44/73/108
f 73/55/63 29/54/61 69/17/133 72/16/134
f 44/73/135 45/36/135 21/38/135
f 36/41/42 64/63/136 67/22/137
f 67/22/137 66/62/138 36/41/42
f 66/62/138 65/39/40 36/41/42
f 68/59/72 71/18/139 29/54/61
f 71/18/139 69/17/133 29/54/61
f 68/59/71 70/57/140 33/61/141 74/58/70
f 70/57/140 32/56/142 33/61/141
f 45/36/143 73/55/143 72/16/143 30/37/143
f 33/61/141 34/60/73 75/19/19 74/58/70
f 30/37/74 72/16/16 75/19/19 34/60/73
