# Blender 4.4.3
# www.blender.org
mtllib grass_mesh.mtl
o Plane.002
v 0.266820 -0.002449 -0.417863
v 0.236996 -0.002435 -0.430688
v 0.201817 0.328282 -0.248082
v 0.188339 0.329344 -0.255084
v 0.192074 0.259960 -0.298239
v 0.217607 0.258119 -0.284974
v 0.284812 0.001345 -0.400820
v 0.274266 -0.000500 -0.444734
v 0.227270 0.413247 -0.502908
v 0.224239 0.412255 -0.524081
v 0.251359 0.248172 -0.455841
v 0.240003 0.246825 -0.514417
v 0.452291 -0.001673 -0.123096
v 0.416705 -0.005785 -0.118025
v 0.259177 0.401768 -0.088428
v 0.241983 0.403422 -0.087652
v 0.341781 0.229643 -0.102659
v 0.293856 0.231222 -0.098114
v 0.277849 -0.002620 -0.429468
v 0.240741 -0.004420 -0.431366
v 0.185506 0.399316 -0.104226
v 0.168032 0.401507 -0.106110
v 0.227622 0.222261 -0.234706
v 0.178677 0.225594 -0.237359
v 0.247486 0.002156 -0.403291
v 0.221413 -0.001309 -0.421414
v 0.090402 0.294384 -0.539454
v 0.078813 0.292908 -0.549373
v 0.156952 0.177643 -0.481867
v 0.123173 0.174339 -0.508016
v 0.290157 -0.006838 -0.202877
v 0.276702 -0.004131 -0.241344
v 0.386732 0.414840 -0.084849
v 0.382365 0.416322 -0.103236
v 0.349133 0.245307 -0.127205
v 0.334584 0.250642 -0.177530
v 0.479465 0.000366 -0.398037
v 0.463149 -0.000111 -0.437358
v 0.497447 0.385493 -0.431015
v 0.491636 0.385918 -0.450172
v 0.491903 0.230298 -0.412352
v 0.473183 0.231989 -0.464862
v 0.488721 0.309925 -0.461226
v 0.499730 0.309120 -0.424933
v 0.255161 -0.001930 -0.304435
v 0.218245 -0.000492 -0.314059
v 0.404726 0.331918 -0.506437
v 0.388123 0.333066 -0.512913
v 0.349201 0.198306 -0.423323
v 0.302476 0.202434 -0.439357
v 0.090945 -0.003527 -0.207941
v 0.075470 -0.007443 -0.246467
v -0.128366 0.458603 -0.326907
v -0.134243 0.453706 -0.345869
v -0.038344 0.278953 -0.273677
v -0.057477 0.270016 -0.325709
v -0.122635 0.000344 0.053799
v -0.131338 -0.006125 0.018979
v -0.117917 0.467776 -0.196333
v -0.120329 0.462929 -0.213404
v -0.119083 0.287856 -0.090808
v -0.128138 0.277888 -0.138269
v -0.381267 0.000222 -0.288177
v -0.376035 -0.000777 -0.323739
v -0.444400 0.329823 -0.362973
v -0.440458 0.329463 -0.379486
v -0.420040 0.198009 -0.328188
v -0.411381 0.197751 -0.374721
v -0.111760 -0.004225 -0.261950
v -0.108644 -0.005658 -0.293280
v -0.176048 0.327706 -0.355155
v -0.173283 0.325850 -0.369825
v -0.154083 0.261408 -0.362779
v -0.159321 0.264331 -0.334987
v -0.226996 -0.003181 -0.602227
v -0.266118 0.000999 -0.610131
v -0.009930 0.376309 -0.402014
v -0.027383 0.378381 -0.407150
v -0.083067 0.299957 -0.456281
v -0.050004 0.295755 -0.446552
v -0.614980 -0.001371 -0.210264
v -0.647614 0.000444 -0.208062
v -0.493761 0.293965 -0.022093
v -0.508835 0.294535 -0.022182
v -0.538317 0.171958 -0.097883
v -0.580210 0.175302 -0.095859
v -0.545078 0.235495 -0.063834
v -0.516521 0.233842 -0.063665
v 0.030707 0.001918 -0.616091
v -0.005194 -0.000584 -0.611710
v -0.121544 0.328548 -0.663040
v -0.138753 0.327900 -0.662722
v -0.055387 0.197210 -0.644278
v -0.103391 0.195866 -0.641121
v -0.077927 -0.005079 -0.142262
v -0.100448 -0.007234 -0.180920
v -0.283029 0.529130 -0.118139
v -0.292195 0.525121 -0.137183
v -0.197802 0.321745 -0.122510
v -0.226069 0.315020 -0.174215
v -0.526454 0.000997 -0.414208
v -0.506389 -0.000304 -0.447297
v -0.310177 0.351854 -0.366448
v -0.298988 0.351350 -0.380902
v -0.400375 0.207051 -0.381571
v -0.370895 0.206863 -0.423178
v -0.482154 -0.007380 -0.170331
v -0.520605 -0.002834 -0.151259
v -0.202428 0.484593 -0.136604
v -0.220712 0.485355 -0.129434
v -0.309927 0.270633 -0.152266
v -0.359505 0.276011 -0.129659
v -0.387849 -0.000308 -0.380437
v -0.411552 0.000027 -0.406553
v -0.473908 0.319941 -0.279016
v -0.483959 0.319875 -0.292090
v -0.436381 0.190399 -0.316198
v -0.466213 0.191636 -0.351102
v -0.477635 0.000507 -0.250511
v -0.478105 -0.000179 -0.288111
v -0.532933 0.341536 -0.289770
v -0.531551 0.341594 -0.307425
v -0.511003 0.204452 -0.268979
v -0.509610 0.205175 -0.318303
v -0.531555 -0.003482 -0.095627
v -0.530341 0.001084 -0.141505
v -0.774739 0.401648 0.171521
v -0.772506 0.404660 0.150729
v -0.716314 0.327359 0.081631
v -0.720543 0.321653 0.121021
v -0.290812 -0.002861 0.282644
v -0.310731 -0.006587 0.256851
v -0.415292 0.340338 0.138099
v -0.423611 0.338753 0.124869
v -0.362783 0.204622 0.200005
v -0.387868 0.200909 0.164193
v -0.308414 -0.007271 0.121171
v -0.338574 -0.006553 0.106433
v -0.162254 0.409385 -0.087976
v -0.175474 0.407774 -0.096525
v -0.217355 0.237273 -0.001390
v -0.254966 0.236503 -0.023685
v -0.242994 -0.004058 0.523060
v -0.286082 -0.002862 0.504728
v -0.121366 0.463728 0.415839
v -0.140470 0.465532 0.405152
v -0.164923 0.272776 0.461967
v -0.219275 0.277311 0.434725
v -0.226746 -0.001607 0.209316
v -0.270686 -0.006164 0.208391
v -0.482294 0.413659 0.354312
v -0.503288 0.410729 0.352102
v -0.373471 0.257845 0.296487
v -0.432384 0.250710 0.293362
v -0.208417 -0.003149 0.487580
v -0.232022 -0.001961 0.508085
v -0.087608 0.288836 0.547429
v -0.099325 0.289060 0.556045
v -0.132975 0.170510 0.520865
v -0.164278 0.172509 0.546508
v -0.317707 -0.003869 0.048405
v -0.354077 -0.004959 0.028338
v -0.525031 0.373423 0.280029
v -0.541554 0.372573 0.269470
v -0.511308 0.303592 0.210369
v -0.480004 0.305076 0.230373
v -0.186339 -0.004191 0.429405
v -0.220673 -0.004898 0.446375
v -0.304777 0.386039 0.309421
v -0.321755 0.383692 0.315598
v -0.252319 0.230347 0.355941
v -0.298844 0.227305 0.375224
v -0.314142 0.306608 0.339722
v -0.281977 0.310096 0.328018
v -0.613356 -0.000667 0.105434
v -0.647902 0.000223 0.080743
v -0.565193 0.386477 0.134836
v -0.580127 0.386982 0.121793
v -0.598320 0.310824 0.100821
v -0.570029 0.309594 0.125532
v -0.100365 -0.002186 0.021192
v -0.145285 -0.006431 0.021456
v -0.243547 0.482782 0.355303
v -0.264883 0.479755 0.354059
v -0.179875 0.309298 0.221059
v -0.239491 0.302414 0.220749
v 0.008030 0.001484 0.118137
v -0.006860 -0.001646 0.083619
v -0.024951 0.546744 0.009573
v -0.030387 0.546215 -0.007412
v -0.010086 0.327339 0.058059
v -0.027537 0.326554 0.011440
v -0.157771 -0.002208 0.620533
v -0.177668 0.000157 0.663434
v -0.025761 0.432942 0.541257
v -0.036761 0.433183 0.560236
v -0.075874 0.257467 0.567792
v -0.103697 0.260557 0.622003
v 0.028321 0.002532 0.127699
v -0.004600 -0.004467 0.094553
v -0.289584 0.586185 0.086497
v -0.304058 0.582799 0.069375
v -0.157446 0.368669 0.107869
v -0.200317 0.361008 0.062215
v 0.057042 -0.010023 0.127962
v 0.016263 -0.004885 0.143803
v 0.366893 0.427527 0.341615
v 0.347806 0.432165 0.347542
v 0.247498 0.270389 0.253854
v 0.195387 0.282658 0.273276
v 0.182787 -0.008449 0.019074
v 0.166776 -0.004745 -0.010209
v 0.220171 0.405756 0.174236
v 0.214112 0.410053 0.160107
v 0.206871 0.241690 0.115723
v 0.188080 0.252146 0.077473
v 0.411118 -0.004595 0.026359
v 0.377383 -0.003457 0.030099
v 0.513524 0.316476 0.125917
v 0.497802 0.319149 0.126315
v 0.476722 0.189094 0.085668
v 0.433140 0.195680 0.089054
v 0.286944 0.000099 0.532566
v 0.254037 -0.001425 0.522202
v 0.205923 0.317556 0.548796
v 0.190877 0.318163 0.542490
v 0.242808 0.189223 0.543993
v 0.200029 0.190418 0.528510
v 0.584963 -0.002093 -0.034879
v 0.556270 0.000669 -0.061120
v 0.660433 0.348323 0.132669
v 0.648385 0.350268 0.119409
v 0.633484 0.206674 0.068906
v 0.598199 0.212460 0.033906
v 0.112355 -0.008376 -0.033272
v 0.068758 -0.003216 -0.050796
v 0.251359 0.570196 0.147915
v 0.232076 0.577841 0.138071
v 0.200857 0.350090 0.077674
v 0.145986 0.367896 0.053193
v 0.092751 -0.003665 0.510890
v 0.083953 -0.000172 0.481364
v 0.016145 0.270143 0.766858
v 0.013298 0.272467 0.753187
v 0.030352 0.220584 0.690537
v 0.035746 0.216181 0.716437
v 0.214515 -0.001972 0.513272
v 0.187008 -0.005156 0.475050
v 0.178291 0.479839 0.369813
v 0.167129 0.483432 0.350472
v 0.196082 0.284227 0.432997
v 0.162393 0.290326 0.380553
v 0.457671 -0.005225 0.176503
v 0.448340 -0.004652 0.146180
v 0.249662 0.316920 0.286984
v 0.246254 0.319456 0.272638
v 0.288630 0.255480 0.238112
v 0.295086 0.251270 0.265290
v 0.019075 -0.008303 0.261172
v 0.000430 -0.005220 0.222908
v 0.143041 0.481588 0.338066
v 0.136277 0.487370 0.319467
v 0.134420 -0.002289 0.553071
v 0.126005 -0.000084 0.520721
v 0.258128 0.298404 0.675320
v 0.255883 0.300000 0.660009
v 0.208997 0.176963 0.630403
v 0.200801 0.181883 0.588376
v 0.584558 -0.000963 0.190043
v 0.547110 0.000189 0.221319
v 0.596526 0.439593 0.078733
v 0.577637 0.441164 0.091460
v 0.596993 0.261932 0.119907
v 0.546256 0.266888 0.157701
vn 0.3888 0.4716 -0.7915
vn 0.4296 0.4938 -0.7561
vn 0.4083 0.4823 -0.7751
vn 0.4093 0.4828 -0.7742
vn 0.9742 0.0803 -0.2107
vn 0.9799 0.0874 -0.1793
vn 0.9767 0.0833 -0.1975
vn 0.9775 0.0843 -0.1933
vn -0.1152 0.0282 -0.9929
vn -0.0794 0.0404 -0.9960
vn -0.1028 0.0324 -0.9942
vn -0.0922 0.0361 -0.9951
vn 0.0515 0.6561 -0.7529
vn 0.1042 0.6024 -0.7914
vn 0.0746 0.6332 -0.7704
vn 0.0805 0.6272 -0.7747
vn 0.5978 -0.0548 -0.7998
vn 0.6241 -0.0340 -0.7806
vn 0.6064 -0.0481 -0.7937
vn 0.6153 -0.0411 -0.7872
vn 0.9418 -0.1321 -0.3090
vn 0.9500 -0.1459 -0.2760
vn 0.9466 -0.1400 -0.2903
vn 0.9453 -0.1377 -0.2957
vn 0.9312 -0.0775 -0.3563
vn 0.9570 0.0055 -0.2901
vn 0.9339 -0.1148 -0.3386
vn 0.9341 -0.1183 -0.3369
vn 0.9486 -0.0818 -0.3058
vn 0.9485 -0.0827 -0.3059
vn 0.2056 -0.5719 -0.7942
vn 0.2283 -0.5839 -0.7791
vn 0.2178 -0.5784 -0.7862
vn 0.2156 -0.5772 -0.7876
vn 0.8723 0.3108 -0.3775
vn 0.8704 0.3248 -0.3699
vn 0.8715 0.3168 -0.3743
vn 0.8713 0.3186 -0.3733
vn 0.9758 -0.1110 -0.1884
vn 0.9834 -0.0994 -0.1519
vn 0.9791 -0.1063 -0.1736
vn 0.9803 -0.1043 -0.1674
vn 0.9631 0.2168 0.1596
vn 0.9565 0.2223 0.1890
vn 0.9603 0.2192 0.1726
vn 0.9597 0.2198 0.1753
vn 0.9718 0.2013 0.1225
vn 0.9441 0.2962 0.1446
vn 0.9589 0.2501 0.1340
vn 0.9604 0.2449 0.1328
vn 0.2596 0.3161 -0.9125
vn 0.3041 0.3409 -0.8895
vn 0.2744 0.3244 -0.9053
vn 0.2885 0.3322 -0.8980
vn -0.0098 0.5449 -0.8385
vn 0.0335 0.5611 -0.8271
vn 0.0018 0.5040 -0.8637
vn -0.0018 0.5167 -0.8561
vn 0.0188 0.5059 -0.8624
vn 0.0238 0.5249 -0.8508
vn -0.0797 -0.1816 -0.9801
vn -0.0473 -0.1691 -0.9845
vn -0.0677 -0.1770 -0.9819
vn -0.0600 -0.1740 -0.9829
vn 0.8100 0.3262 -0.4873
vn 0.8087 0.3407 -0.4796
vn 0.8094 0.3333 -0.4835
vn 0.7095 -0.5152 0.4809
vn 0.7006 -0.4946 0.5143
vn 0.7058 -0.5064 0.4954
vn 0.7048 -0.5040 0.4993
vn -0.3823 0.2913 -0.8769
vn -0.3702 0.2490 -0.8950
vn -0.3750 0.2655 -0.8882
vn -0.3779 0.2756 -0.8839
vn 0.7006 0.3785 -0.6049
vn 0.7179 0.3732 -0.5877
vn 0.7095 0.3758 -0.5962
vn 0.7087 0.3761 -0.5970
vn 0.9874 0.1578 0.0105
vn 0.9862 0.1597 0.0427
vn 0.9870 0.1587 0.0253
vn 0.9869 0.1588 0.0271
vn 0.8917 0.4391 0.1098
vn 0.8615 0.4812 0.1622
vn 0.8822 0.4534 0.1273
vn 0.8729 0.4663 0.1434
vn 0.8046 0.0388 -0.5925
vn 0.8224 0.0558 -0.5662
vn 0.8112 0.0450 -0.5830
vn 0.8158 0.0494 -0.5762
vn 0.4067 -0.5309 -0.7435
vn 0.4619 -0.5160 -0.7214
vn 0.4354 -0.5235 -0.7324
vn 0.4326 -0.5242 -0.7335
vn 0.3886 -0.3057 -0.8692
vn 0.4160 -0.3053 -0.8566
vn 0.4027 -0.3055 -0.8628
vn 0.4012 -0.3055 -0.8635
vn 0.0013 0.3170 -0.9484
vn 0.0177 0.3550 -0.9347
vn 0.0073 0.3310 -0.9436
vn 0.0113 0.3403 -0.9402
vn -0.5802 0.3863 -0.7170
vn -0.5647 0.3780 -0.7336
vn -0.5719 0.3819 -0.7260
vn -0.5735 0.3827 -0.7243
vn 0.3870 0.6086 -0.6927
vn 0.3641 0.6927 -0.6226
vn 0.3763 0.6511 -0.6592
vn 0.3767 0.6495 -0.6604
vn -0.3644 -0.3765 -0.8517
vn -0.2922 -0.3106 -0.9045
vn -0.3350 -0.3996 -0.8533
vn -0.3321 -0.4019 -0.8534
vn -0.2974 -0.3720 -0.8793
vn -0.2974 -0.3724 -0.8791
vn 0.6167 -0.0414 -0.7861
vn 0.6582 0.0496 -0.7512
vn 0.6352 -0.0027 -0.7724
vn 0.6397 0.0071 -0.7686
vn -0.0560 0.5291 -0.8467
vn -0.0576 0.5961 -0.8008
vn -0.0568 0.5598 -0.8267
vn -0.0569 0.5650 -0.8231
vn 0.9291 -0.0196 -0.3694
vn 0.9409 -0.0139 -0.3383
vn 0.9344 -0.0171 -0.3558
vn 0.9357 -0.0165 -0.3524
vn -0.8782 0.1832 -0.4418
vn -0.8668 0.1728 -0.4677
vn -0.8718 0.1773 -0.4567
vn -0.8738 0.1791 -0.4521
vn 0.6606 0.2952 -0.6903
vn 0.6653 0.3357 -0.6668
vn 0.6627 0.3119 -0.6808
vn 0.6635 0.3184 -0.6771
vn -0.2183 0.5148 -0.8291
vn -0.1544 0.5651 -0.8105
vn -0.1823 0.5437 -0.8193
vn -0.1923 0.5358 -0.8221
vn 0.8928 0.0812 -0.4431
vn 0.9087 0.0694 -0.4116
vn 0.9015 0.0749 -0.4262
vn 0.9000 0.0760 -0.4292
vn -0.0573 0.3040 -0.9510
vn -0.0140 0.3003 -0.9537
vn -0.0339 0.3021 -0.9527
vn -0.0386 0.3025 -0.9524
vn 0.3201 0.1262 -0.9389
vn 0.3531 0.1314 -0.9263
vn 0.3340 0.1284 -0.9338
vn 0.3385 0.1291 -0.9321
vn 0.6926 0.1811 -0.6982
vn 0.7173 0.1638 -0.6773
vn 0.7077 0.1706 -0.6856
vn 0.7017 0.1748 -0.6907
vn 0.4196 0.1675 -0.8921
vn 0.4610 0.1679 -0.8714
vn 0.4410 0.1677 -0.8817
vn 0.4389 0.1677 -0.8827
vn 0.9032 0.3918 -0.1754
vn 0.8953 0.4309 -0.1132
vn 0.9012 0.4042 -0.1562
vn 0.8985 0.4179 -0.1344
vn 0.8225 -0.1070 -0.5586
vn 0.8376 -0.1007 -0.5369
vn 0.8283 -0.1046 -0.5505
vn 0.8317 -0.1032 -0.5456
vn 0.8068 0.5644 -0.1746
vn 0.8044 0.5864 -0.0958
vn 0.8064 0.5751 -0.1380
vn 0.8063 0.5760 -0.1348
vn 0.8915 -0.1610 -0.4235
vn 0.9279 -0.2894 -0.2350
vn 0.9301 -0.3053 -0.2041
vn 0.9294 -0.2990 -0.2164
vn 0.9289 -0.2954 -0.2235
vn -0.6142 -0.1806 -0.7682
vn -0.5883 -0.1883 -0.7864
vn -0.6006 -0.1847 -0.7779
vn -0.6028 -0.1841 -0.7764
vt 0.000000 0.750000
vt 1.000000 0.750000
vt 1.000000 1.000000
vt 0.000000 1.000000
vt 1.000000 0.000000
vt 0.000000 0.000000
vt 0.000000 0.500000
vt 1.000000 0.500000
s 1
usemtl Material
f 6/1/4 5/2/3 4/3/2 3/4/2
f 70/5/47 73/2/49 74/1/50 69/6/47
f 29/7/19 30/8/20 28/3/18 27/4/18
f 7/6/5 8/5/5 12/8/8 11/7/7
f 23/7/15 24/8/16 22/3/14 21/4/14
f 13/6/9 14/5/9 18/8/12 17/7/11
f 35/7/23 36/8/24 34/3/22 33/4/22
f 19/6/13 20/5/13 24/8/16 23/7/15
f 49/7/33 50/8/34 48/3/32 47/4/32
f 25/6/17 26/5/17 30/8/20 29/7/19
f 31/6/21 32/5/21 36/8/24 35/7/23
f 44/1/30 43/2/29 40/3/26 39/4/26
f 37/6/25 38/5/25 42/8/28 41/7/27
f 41/7/27 42/8/28 43/2/29 44/1/30
f 76/5/51 79/2/53 80/1/54 75/6/51
f 45/6/31 46/5/31 50/8/34 49/7/33
f 61/7/41 62/8/42 60/3/40 59/4/40
f 51/6/35 52/5/35 56/8/38 55/7/37
f 135/7/90 136/8/91 134/3/89 133/4/89
f 57/6/39 58/5/39 62/8/42 61/7/41
f 99/7/67 100/8/67 98/3/66 97/4/66
f 63/6/43 64/5/43 68/8/46 67/7/45
f 74/1/50 73/2/49 72/3/48 71/4/48
f 185/7/124 186/8/125 184/3/123 183/4/123
f 80/1/54 79/2/53 78/3/52 77/4/52
f 93/7/63 94/8/64 92/3/62 91/4/62
f 88/1/60 87/2/59 84/3/56 83/4/56
f 81/6/55 82/5/55 86/8/58 85/7/57
f 85/7/57 86/8/58 87/2/59 88/1/60
f 17/7/11 18/8/12 16/3/10 15/4/10
f 89/6/61 90/5/61 94/8/64 93/7/63
f 105/7/70 106/8/71 104/3/69 103/4/69
f 95/6/65 96/5/65 100/8/67 99/7/67
f 111/7/74 112/8/75 110/3/73 109/4/73
f 101/6/68 102/5/68 106/8/71 105/7/70
f 141/7/94 142/8/95 140/3/93 139/4/93
f 107/6/72 108/5/72 112/8/75 111/7/74
f 123/7/82 124/8/83 122/3/81 121/4/81
f 113/6/76 114/5/76 118/8/79 117/7/78
f 126/5/84 129/2/86 130/1/87 125/6/84
f 119/6/80 120/5/80 124/8/83 123/7/82
f 130/1/87 129/2/86 128/3/85 127/4/85
f 162/5/108 165/2/110 166/1/111 161/6/108
f 153/7/102 154/8/103 152/3/101 151/4/101
f 131/6/88 132/5/88 136/8/91 135/7/90
f 191/7/128 192/8/129 190/3/127 189/4/127
f 137/6/92 138/5/92 142/8/95 141/7/94
f 159/7/106 160/8/107 158/3/105 157/4/105
f 143/6/96 144/5/96 148/8/99 147/7/98
f 259/6/174 260/5/174 262/3/174 261/4/174
f 149/6/100 150/5/100 154/8/103 153/7/102
f 197/7/132 198/8/133 196/3/131 195/4/131
f 155/6/104 156/5/104 160/8/107 159/7/106
f 166/1/111 165/2/110 164/3/109 163/4/109
f 176/5/118 179/2/120 180/1/121 175/6/118
f 174/1/117 173/2/116 170/3/113 169/4/113
f 167/6/112 168/5/112 172/8/115 171/7/114
f 171/7/114 172/8/115 173/2/116 174/1/117
f 180/1/121 179/2/120 178/3/119 177/4/119
f 181/6/122 182/5/122 186/8/125 185/7/124
f 203/7/136 204/8/137 202/3/135 201/4/135
f 187/6/126 188/5/126 192/8/129 191/7/128
f 227/7/152 228/8/153 226/3/151 225/4/151
f 193/6/130 194/5/130 198/8/133 197/7/132
f 117/7/78 118/8/79 116/3/77 115/4/77
f 199/6/134 200/5/134 204/8/137 203/7/136
f 215/7/144 216/8/145 214/3/143 213/4/143
f 205/6/138 206/5/138 210/8/141 209/7/140
f 221/7/148 222/8/149 220/3/147 219/4/147
f 211/6/142 212/5/142 216/8/145 215/7/144
f 233/7/156 234/8/157 232/3/155 231/4/155
f 217/6/146 218/5/146 222/8/149 221/7/148
f 242/5/162 245/2/164 246/1/165 241/6/162
f 223/6/150 224/5/150 228/8/153 227/7/152
f 239/7/160 240/8/161 238/3/159 237/4/159
f 229/6/154 230/5/154 234/8/157 233/7/156
f 251/7/168 252/8/169 250/3/167 249/4/167
f 235/6/158 236/5/158 240/8/161 239/7/160
f 246/1/165 245/2/164 244/3/163 243/4/163
f 267/7/177 268/8/178 266/3/176 265/4/176
f 11/7/7 12/8/8 10/3/6 9/4/6
f 247/6/166 248/5/166 252/8/169 251/7/168
f 258/1/173 257/2/172 256/3/171 255/4/171
f 273/7/181 274/8/182 272/3/180 271/4/180
f 263/6/175 264/5/175 268/8/178 267/7/177
f 147/7/98 148/8/99 146/3/97 145/4/97
f 269/6/179 270/5/179 274/8/182 273/7/181
f 209/7/140 210/8/141 208/3/139 207/4/139
f 67/7/45 68/8/46 66/3/44 65/4/44
f 55/7/37 56/8/38 54/3/36 53/4/36
f 254/5/170 257/2/172 258/1/173 253/6/170
f 2/5/1 5/2/3 6/1/4 1/6/1
