# Blender 4.4.3
# www.blender.org
mtllib spiders_domain_water_updated.mtl
o water_flowing.002
v -79.616768 -17.471966 -158.470016
v -53.843750 -17.471966 -154.034500
v -167.139038 -13.845275 -16.984493
v -130.619507 -12.266548 16.271866
v -203.904297 -13.579353 69.153313
v -169.321213 -12.159489 84.715958
v -160.126434 -12.213028 44.172455
v -200.259033 -13.397074 28.166241
v -224.789398 -13.010038 99.496193
v -201.756866 -12.615356 116.315025
v -110.972382 -13.327452 -22.734612
v -139.413879 -14.584417 -36.313942
v -103.248642 -14.177436 -45.722057
v -137.184372 -15.176615 -53.896286
v -98.551834 -15.275491 -89.415520
v -123.318207 -15.941648 -95.894485
v -245.674515 -13.071225 118.449081
v -222.802536 -13.071225 139.257690
vn -0.0060 0.9994 -0.0334
vn -0.0171 0.9993 -0.0327
vn -0.0172 0.9993 -0.0324
vn -0.0272 0.9996 -0.0112
vn -0.0273 0.9996 -0.0110
vn -0.0264 0.9995 -0.0148
vn -0.0267 0.9995 -0.0142
vn -0.0151 0.9999 -0.0082
vn -0.0159 0.9998 -0.0097
vn -0.0175 0.9990 -0.0413
vn -0.0175 0.9990 -0.0414
vn -0.0218 0.9992 -0.0338
vn -0.0218 0.9992 -0.0336
vn -0.0134 0.9995 -0.0301
vn -0.0150 0.9995 -0.0294
vn -0.0103 0.9999 0.0021
vt 0.239021 0.000000
vt 0.343810 0.000000
vt 0.343810 1.000000
vt 0.239021 1.000000
vt 0.587903 0.000000
vt 0.814917 0.000000
vt 0.814917 1.000000
vt 0.587903 1.000000
vt 0.924793 0.000000
vt 0.924793 1.000000
vt 0.190109 0.000000
vt 0.190109 1.000000
vt 0.126922 0.000000
vt 0.126922 1.000000
vt 0.000527 0.000000
vt 0.000527 1.000000
vt 0.999679 0.000000
vt 0.999679 1.000000
s 1
usemtl river
f 12/1/11 3/2/2 4/3/3 11/4/10
f 8/5/7 5/6/4 6/7/5 7/8/6
f 5/6/4 9/9/8 10/10/9 6/7/5
f 14/11/13 12/1/11 11/4/10 13/12/12
f 16/13/15 14/11/13 13/12/12 15/14/14
f 1/15/1 16/13/15 15/14/14 2/16/1
f 9/9/8 17/17/16 18/18/16 10/10/9
f 3/2/2 8/5/7 7/8/6 4/3/3
