# Blender 4.4.3
# www.blender.org
mtllib spiders_domain_waterfall_updated.mtl
o water_falls.004
v -11.470993 -0.101810 -13.834091
v 10.079803 -0.101810 15.511963
v -2.873566 -0.101810 -10.065994
v 8.288193 -0.101810 4.361206
v -11.809962 11.727486 -13.494823
v 9.740831 11.727486 15.851231
v 7.949221 11.727486 4.700473
v -3.212537 11.727486 -9.726728
vn 0.4011 0.0377 -0.9152
vn 0.9868 0.0328 -0.1586
vn 0.6154 0.0402 -0.7872
vn 0.9160 0.0377 -0.3994
vn 0.9178 0.0376 -0.3951
vn 0.6141 0.0402 -0.7882
vt 0.000000 0.831500
vt 0.237352 0.831500
vt 0.237352 1.000000
vt 0.000000 1.000000
vt 0.739569 0.831500
vt 0.739569 1.000000
vt 1.000000 0.831500
vt 1.000000 1.000000
s 1
f 5/1/1 8/2/6 3/3/3 1/4/1
f 7/5/5 4/6/4 3/3/3 8/2/6
f 7/5/5 6/7/2 2/8/2 4/6/4
