# Blender 4.4.3
# www.blender.org
mtllib spiders_domain_water_updated_2.mtl
o water_flowing
v -79.616768 -17.471966 -158.470016
v -53.843750 -17.471966 -154.034500
v -167.139069 -13.845256 -16.984478
v -130.619522 -12.266529 16.271881
v -203.904297 -13.579353 69.153313
v -169.321213 -12.159489 84.715958
v -160.126450 -12.213009 44.172474
v -200.259064 -13.397055 28.166256
v -224.789398 -13.010038 99.496193
v -201.756866 -12.615356 116.315025
v -110.972382 -13.327452 -22.734612
v -139.413879 -14.584417 -36.313942
v -103.248642 -14.177436 -45.722057
v -137.184372 -15.176615 -53.896286
v -98.551834 -15.275491 -89.415520
v -123.318207 -15.941648 -95.894485
vn -0.0135 0.9990 -0.0418
vn -0.0333 0.9994 -0.0037
vn -0.0204 0.9995 -0.0243
vn -0.0205 0.9996 -0.0195
vn -0.0219 0.9989 -0.0409
vn -0.0218 0.9994 -0.0264
vn -0.0060 0.9994 -0.0334
vt 0.239021 0.000000
vt 0.343810 0.000000
vt 0.343810 1.000000
vt 0.239021 1.000000
vt 0.587903 0.000000
vt 0.814917 0.000000
vt 0.814917 1.000000
vt 0.587903 1.000000
vt 0.924793 0.000000
vt 0.924793 1.000000
vt 0.190109 0.000000
vt 0.190109 1.000000
vt 0.126922 0.000000
vt 0.126922 1.000000
vt 0.000527 0.000000
vt 0.000527 1.000000
s 0
usemtl river
f 12/1/1 3/2/1 4/3/1 11/4/1
f 8/5/2 5/6/2 6/7/2 7/8/2
f 3/2/3 8/5/3 7/8/3 4/3/3
f 5/6/4 9/9/4 10/10/4 6/7/4
f 14/11/5 12/1/5 11/4/5 13/12/5
f 16/13/6 14/11/6 13/12/6 15/14/6
f 1/15/7 16/13/7 15/14/7 2/16/7
