# Blender 4.4.3
# www.blender.org
mtllib spiders_domain_waterfall.mtl
o water_falls.002
v -13.482681 70.101814 -11.820633
v 8.068100 70.101814 17.525421
v -11.470993 -0.101810 -13.834091
v 10.079803 -0.101810 15.511963
v 6.276489 70.101814 6.374664
v -4.885269 70.101814 -8.052544
v -2.873566 -0.101810 -10.065994
v 8.288193 -0.101810 4.361206
v -14.522934 72.236084 -11.204353
v 6.677487 72.269897 18.505581
v 3.760702 75.104294 8.262940
v -7.098157 75.369812 -6.391200
v -17.517244 74.633041 -8.749380
v 4.146064 73.969025 20.488592
v -1.445962 76.969025 12.346332
v -12.330060 77.051979 -2.290700
v -26.765739 75.498322 -1.951903
v -5.102430 74.834305 27.286068
v -10.694456 77.834305 19.143808
v -21.578554 77.917259 4.506776
vn 0.3886 0.2488 -0.8872
vn 0.9425 0.3027 -0.1418
vn 0.4011 0.0377 -0.9152
vn 0.9868 0.0328 -0.1586
vn 0.8815 0.2759 -0.3832
vn 0.6021 0.2553 -0.7565
vn 0.6154 0.0402 -0.7872
vn 0.9160 0.0377 -0.3994
vn 0.2191 0.6819 -0.6979
vn 0.6722 0.7401 -0.0213
vn 0.6037 0.7694 -0.2086
vn 0.3726 0.7562 -0.5379
vn -0.0278 0.9224 -0.3853
vn 0.3516 0.9271 0.1300
vn 0.2462 0.9690 0.0188
vn 0.0560 0.9697 -0.2377
vn -0.1093 0.9565 -0.2705
vn 0.2309 0.9537 0.1928
vn 0.1486 0.9859 0.0767
vn -0.0241 0.9871 -0.1584
vt 0.000000 0.000000
vt 0.237352 0.000000
vt 0.237352 1.000000
vt 0.000000 1.000000
vt 0.739569 0.000000
vt 0.739569 1.000000
vt 1.000000 0.000000
vt 1.000000 1.000000
s 1
f 1/1/1 6/2/6 7/3/7 3/4/3
f 5/5/5 8/6/8 7/3/7 6/2/6
f 5/5/5 2/7/2 4/8/4 8/6/8
f 6/2/6 1/1/1 9/1/9 12/2/12
f 2/7/2 5/5/5 11/5/11 10/7/10
f 5/5/5 6/2/6 12/2/12 11/5/11
f 12/2/12 9/1/9 13/1/13 16/2/16
f 10/7/10 11/5/11 15/5/15 14/7/14
f 11/5/11 12/2/12 16/2/16 15/5/15
f 16/2/16 13/1/13 17/1/17 20/2/20
f 14/7/14 15/5/15 19/5/19 18/7/18
f 15/5/15 16/2/16 20/2/20 19/5/19
