# Blender 4.4.3
# www.blender.org
o Plane
v -1.354033 0.000000 0.800310
v 1.354033 0.000000 0.800310
v -2.162478 0.000000 0.528038
v 2.162478 0.000000 0.528038
v 1.068276 0.000000 0.064347
v 0.692628 0.000000 -0.470423
v -0.692628 0.000000 -0.470423
v -1.068276 0.000000 0.064347
v -1.714797 0.000000 -0.506651
v -1.199344 0.000000 -1.193605
v 1.199344 0.000000 -1.193605
v 1.714797 0.000000 -0.506651
v 0.408660 0.000000 -0.624844
v -0.408660 0.000000 -0.624844
v -0.408660 0.000000 -1.570842
v 0.408660 0.000000 -1.570842
v -1.758255 0.124219 0.664174
v 1.758255 0.124219 0.664174
v 1.391536 0.124219 -0.221152
v 0.945986 0.124219 -0.832014
v -1.391536 0.124219 -0.221152
v -0.945986 0.124219 -0.832014
v -0.408660 0.124219 -1.097843
v 0.408660 0.124219 -1.097843
v -1.758255 -0.124219 0.664174
v 1.758255 -0.124219 0.664174
v 1.391536 -0.124219 -0.221152
v 0.945986 -0.124219 -0.832014
v -1.391536 -0.124219 -0.221152
v -0.945986 -0.124219 -0.832014
v -0.408660 -0.124219 -1.097843
v 0.408660 -0.124219 -1.097843
vn 0.9277 -0.0000 0.3733
vn -0.9277 -0.0000 0.3733
vn -0.9206 -0.0000 -0.3905
vn 0.9206 -0.0000 -0.3905
vn -0.8844 -0.0000 0.4667
vn -0.6652 -0.0000 0.7466
vn 0.6652 -0.0000 0.7466
vn 0.8844 -0.0000 0.4667
vn -0.8609 -0.0000 -0.5088
vn -0.6293 -0.0000 -0.7771
vn 0.6293 -0.0000 -0.7771
vn 0.8609 -0.0000 -0.5088
vn -0.2754 -0.0000 0.9613
vn 0.2754 -0.0000 0.9613
vn -0.1976 -0.0000 -0.9803
vn 0.1976 -0.0000 -0.9803
vn -0.0100 0.9999 -0.0071
vn 0.0100 0.9999 -0.0071
vn 0.0195 0.9998 -0.0086
vn 0.0275 0.9992 -0.0307
vn -0.0195 0.9998 -0.0086
vn -0.0275 0.9992 -0.0307
vn -0.0166 0.9992 -0.0368
vn 0.0166 0.9992 -0.0368
vn -0.0100 -0.9999 -0.0071
vn 0.0100 -0.9999 -0.0071
vn 0.0195 -0.9998 -0.0086
vn 0.0275 -0.9992 -0.0307
vn -0.0195 -0.9998 -0.0086
vn -0.0275 -0.9992 -0.0307
vn -0.0166 -0.9992 -0.0368
vn 0.0166 -0.9992 -0.0368
vt 0.000000 0.500000
vt 0.189104 0.500000
vt 0.196931 1.000000
vt 0.000000 1.000000
vt 0.810896 0.500000
vt 1.000000 0.500000
vt 1.000000 1.000000
vt 0.803069 1.000000
vt 0.676598 1.000000
vt 0.660146 0.500000
vt 0.181278 0.000000
vt 0.356307 0.000000
vt 0.339854 0.500000
vt 0.414373 0.500000
vt 0.429870 1.000000
vt 0.323401 1.000000
vt 0.398876 0.000000
vt 0.601124 0.000000
vt 0.585627 0.500000
vt 0.570130 1.000000
vt 0.643693 0.000000
vt 0.818722 0.000000
vt 1.000000 0.000000
vt 0.000000 0.000000
s 1
f 17/1/17 21/2/21 9/3/9 3/4/3
f 19/5/19 18/6/18 4/7/4 12/8/12
f 19/5/19 12/8/12 11/9/11 20/10/20
f 21/2/21 8/11/8 7/12/7 22/13/22
f 23/14/23 15/15/15 10/16/10 22/13/22
f 23/14/23 14/17/14 13/18/13 24/19/24
f 20/10/20 11/9/11 16/20/16 24/19/24
f 6/21/6 20/10/20 24/19/24 13/18/13
f 15/15/15 23/14/23 24/19/24 16/20/16
f 14/17/14 23/14/23 22/13/22 7/12/7
f 9/3/9 21/2/21 22/13/22 10/16/10
f 5/22/5 19/5/19 20/10/20 6/21/6
f 5/22/5 2/23/2 18/6/18 19/5/19
f 1/24/1 8/11/8 21/2/21 17/1/17
f 25/1/25 3/4/3 9/3/9 29/2/29
f 27/5/27 12/8/12 4/7/4 26/6/26
f 27/5/27 28/10/28 11/9/11 12/8/12
f 29/2/29 30/13/30 7/12/7 8/11/8
f 31/14/31 30/13/30 10/16/10 15/15/15
f 31/14/31 32/19/32 13/18/13 14/17/14
f 28/10/28 32/19/32 16/20/16 11/9/11
f 6/21/6 13/18/13 32/19/32 28/10/28
f 15/15/15 16/20/16 32/19/32 31/14/31
f 14/17/14 7/12/7 30/13/30 31/14/31
f 9/3/9 10/16/10 30/13/30 29/2/29
f 5/22/5 6/21/6 28/10/28 27/5/27
f 5/22/5 27/5/27 26/6/26 2/23/2
f 1/24/1 25/1/25 29/2/29 8/11/8
