# Blender 4.4.3
# www.blender.org
mtllib blood_sword_outline.mtl
o Plane.001
v 0.053592 0.181975 0.000000
v 0.071928 0.234053 0.000000
v 0.000000 0.132576 0.025505
v 0.055836 0.218712 -0.000000
v 0.050665 0.204042 -0.000000
v 0.052125 0.211251 -0.000000
v 0.000000 0.204021 0.017454
v 0.000000 0.219650 0.022271
v 0.000000 0.211595 0.019943
v 0.034166 0.152040 0.017019
v 0.030724 0.219494 0.022153
v 0.028372 0.211507 0.019864
v 0.027550 0.203982 0.017373
v 0.081333 0.142394 0.000000
v 0.063374 0.109972 0.000000
v 0.104598 0.056072 -0.000000
v 0.133069 0.093732 0.000000
v 0.053324 0.124119 -0.000000
v 0.046618 0.135569 -0.000000
v 0.060232 0.167005 0.000000
v 0.069785 0.152786 0.000000
v 0.064541 0.052890 0.000000
v 0.075066 0.034594 -0.000000
v 0.029927 0.010755 0.000000
v 0.029633 0.011158 0.000000
v 0.068847 0.065614 0.000000
v 0.068808 0.096571 0.000000
v 0.070129 0.080224 -0.000000
v 0.095735 0.049766 0.000000
v 0.083376 0.040614 0.000000
v 0.090049 0.045541 0.000000
v 0.054892 0.039065 0.000000
v 0.063517 0.027687 0.000000
v 0.091184 0.152605 0.000000
v 0.143433 0.118881 0.000000
v 0.139623 0.104999 0.000000
v 0.086491 0.146479 -0.000000
v 0.091942 0.165498 0.000000
v 0.136347 0.160157 0.000000
v 0.142483 0.139242 -0.000000
v 0.092714 0.158596 -0.000000
v 0.085942 0.177589 0.000000
v 0.118033 0.179455 0.000000
v 0.128962 0.169926 0.000000
v 0.089589 0.171256 0.000000
v 0.062262 0.194141 0.000000
v 0.062555 0.195019 0.000000
v 0.097753 0.187793 -0.000000
v 0.079164 0.182947 -0.000000
v 0.083528 0.083825 0.012484
v 0.069873 0.043857 0.009609
v 0.105931 0.117755 0.012567
v 0.029763 0.010761 0.000000
v 0.076089 0.053387 0.011144
v 0.079947 0.063238 0.012530
v 0.081895 0.073627 0.012501
v 0.059226 0.033360 0.007682
v 0.117442 0.135662 0.012570
v 0.113038 0.125555 0.012576
v 0.114344 0.162923 0.010704
v 0.117759 0.148882 0.011798
v 0.102061 0.179215 0.008588
v 0.109494 0.170726 0.009830
v 0.062286 0.194876 0.000000
v 0.088359 0.185936 0.007081
v 0.044316 0.168099 0.011886
v 0.040248 0.211460 0.014206
v 0.038995 0.204043 0.011752
v 0.056247 0.234272 0.021238
v 0.043518 0.219134 0.016246
v 0.072730 0.125613 0.012201
v 0.118817 0.074877 -0.000000
v 0.061457 0.138431 0.012219
v 0.052418 0.152755 0.012117
v 0.094987 0.100770 0.012574
v 0.000000 0.135903 0.000000
v 0.033051 0.154823 -0.000000
v -0.053592 0.181975 -0.000000
v -0.071928 0.234053 0.000000
v -0.055836 0.218712 0.000000
v -0.050665 0.204042 0.000000
v -0.052125 0.211251 0.000000
v -0.034166 0.152040 0.017019
v -0.030724 0.219494 0.022153
v -0.028372 0.211507 0.019864
v -0.027550 0.203982 0.017373
v -0.081333 0.142394 0.000000
v -0.063374 0.109972 -0.000000
v -0.104598 0.056072 0.000000
v -0.133069 0.093732 0.000000
v -0.053324 0.124119 0.000000
v -0.046618 0.135569 -0.000000
v -0.060232 0.167005 -0.000000
v -0.069785 0.152786 0.000000
v -0.064541 0.052890 -0.000000
v -0.075066 0.034594 0.000000
v -0.029927 0.010755 0.000000
v -0.029633 0.011158 0.000000
v -0.068847 0.065614 -0.000000
v -0.068808 0.096571 -0.000000
v -0.070129 0.080224 0.000000
v -0.095735 0.049766 0.000000
v -0.083376 0.040614 -0.000000
v -0.090049 0.045541 0.000000
v -0.054892 0.039065 0.000000
v -0.063517 0.027687 -0.000000
v -0.091184 0.152605 0.000000
v -0.143433 0.118881 0.000000
v -0.139623 0.104999 0.000000
v -0.086491 0.146479 -0.000000
v -0.091942 0.165498 0.000000
v -0.136347 0.160157 0.000000
v -0.142483 0.139242 -0.000000
v -0.092714 0.158596 -0.000000
v -0.085942 0.177589 0.000000
v -0.118033 0.179455 -0.000000
v -0.128962 0.169926 -0.000000
v -0.089589 0.171256 0.000000
v -0.062262 0.194141 0.000000
v -0.062555 0.195019 0.000000
v -0.097753 0.187793 0.000000
v -0.079164 0.182947 0.000000
v -0.083528 0.083825 0.012484
v -0.069873 0.043857 0.009609
v -0.105931 0.117755 0.012567
v -0.029763 0.010761 0.000000
v -0.076089 0.053387 0.011144
v -0.079947 0.063238 0.012530
v -0.081895 0.073627 0.012501
v -0.059226 0.033360 0.007682
v -0.117442 0.135662 0.012570
v -0.113038 0.125555 0.012576
v -0.114344 0.162923 0.010704
v -0.117759 0.148882 0.011798
v -0.102061 0.179215 0.008588
v -0.109494 0.170726 0.009830
v -0.062286 0.194876 0.000000
v -0.088359 0.185936 0.007081
v -0.044316 0.168099 0.011886
v -0.040248 0.211460 0.014206
v -0.038995 0.204043 0.011752
v -0.056247 0.234272 0.021238
v -0.043518 0.219134 0.016246
v -0.072730 0.125613 0.012201
v -0.118817 0.074877 0.000000
v -0.061457 0.138431 0.012219
v -0.052418 0.152755 0.012117
v -0.094987 0.100770 0.012574
v -0.033051 0.154823 -0.000000
v 0.000000 0.132576 -0.025505
v 0.000000 0.204021 -0.017454
v 0.000000 0.219650 -0.022271
v 0.000000 0.211595 -0.019943
v 0.034166 0.152040 -0.017019
v 0.030724 0.219494 -0.022153
v 0.028372 0.211507 -0.019864
v 0.027550 0.203982 -0.017373
v 0.083528 0.083825 -0.012484
v 0.069873 0.043857 -0.009609
v 0.105931 0.117755 -0.012567
v 0.076089 0.053387 -0.011144
v 0.079947 0.063238 -0.012530
v 0.081895 0.073627 -0.012501
v 0.059226 0.033360 -0.007682
v 0.117442 0.135662 -0.012570
v 0.113038 0.125555 -0.012576
v 0.114344 0.162923 -0.010704
v 0.117759 0.148882 -0.011798
v 0.102061 0.179215 -0.008588
v 0.109494 0.170726 -0.009830
v 0.088359 0.185936 -0.007081
v 0.044316 0.168099 -0.011886
v 0.040248 0.211460 -0.014206
v 0.038995 0.204043 -0.011752
v 0.056247 0.234272 -0.021238
v 0.043518 0.219134 -0.016246
v 0.072730 0.125613 -0.012201
v 0.061457 0.138431 -0.012219
v 0.052418 0.152755 -0.012117
v 0.094987 0.100770 -0.012574
v -0.034166 0.152040 -0.017019
v -0.030724 0.219494 -0.022153
v -0.028372 0.211507 -0.019864
v -0.027550 0.203982 -0.017373
v -0.083528 0.083825 -0.012484
v -0.069873 0.043857 -0.009609
v -0.105931 0.117755 -0.012567
v -0.076089 0.053387 -0.011144
v -0.079947 0.063238 -0.012530
v -0.081895 0.073627 -0.012501
v -0.059226 0.033360 -0.007682
v -0.117442 0.135662 -0.012570
v -0.113038 0.125555 -0.012576
v -0.114344 0.162923 -0.010704
v -0.117759 0.148882 -0.011798
v -0.102061 0.179215 -0.008588
v -0.109494 0.170726 -0.009830
v -0.088359 0.185936 -0.007081
v -0.044316 0.168099 -0.011886
v -0.040248 0.211460 -0.014206
v -0.038995 0.204043 -0.011752
v -0.056247 0.234272 -0.021238
v -0.043518 0.219134 -0.016246
v -0.072730 0.125613 -0.012201
v -0.061457 0.138431 -0.012219
v -0.052418 0.152755 -0.012117
v -0.094987 0.100770 -0.012574
v -0.011752 -0.282665 0.011752
v -0.013750 0.163383 0.013750
v -0.011752 -0.282665 -0.011752
v -0.013750 0.163383 -0.013750
v 0.011752 -0.282665 0.011752
v 0.013750 0.163383 0.013750
v 0.011752 -0.282665 -0.011752
v 0.013750 0.163383 -0.013750
v 0.000000 -0.282665 -0.016621
v -0.000000 0.163383 -0.019445
v -0.000000 -0.282665 0.016621
v 0.000000 0.163383 0.019445
v -0.016621 -0.282665 -0.000000
v -0.019445 0.163383 0.000000
v 0.016621 -0.282665 0.000000
v 0.019445 0.163383 -0.000000
v -0.013750 0.137593 0.013750
v -0.013750 0.137593 -0.013750
v 0.013750 0.137593 -0.013750
v 0.013750 0.137593 0.013750
v 0.000000 0.137593 0.019445
v -0.000000 0.137593 -0.019445
v 0.019445 0.137593 -0.000000
v -0.019445 0.137593 0.000000
v -0.013746 0.133743 -0.013746
v -0.013746 0.046381 -0.013746
v 0.013746 0.133743 -0.013746
v 0.013746 0.046381 -0.013746
v 0.013746 0.133743 0.013746
v 0.013746 0.046381 0.013746
v 0.000000 0.046381 0.019439
v 0.000000 0.133743 0.019440
v -0.000000 0.046381 -0.019439
v -0.000000 0.133743 -0.019440
v 0.019439 0.046381 -0.000000
v 0.019440 0.133743 -0.000000
v -0.019439 0.046381 0.000000
v -0.019440 0.133743 0.000000
v -0.013746 0.133743 0.013746
v -0.013746 0.046381 0.013746
v -0.025185 0.096796 0.025185
v -0.015309 0.115655 0.015309
v -0.018614 0.104845 0.018614
v 0.000000 0.115655 0.021650
v 0.000000 0.096796 0.035617
v 0.000000 0.104845 0.026325
v 0.025185 0.096796 0.025185
v 0.015309 0.115655 0.015309
v 0.018614 0.104845 0.018614
v 0.035617 0.096796 -0.000000
v 0.021650 0.115655 -0.000000
v 0.026325 0.104845 -0.000000
v 0.015309 0.115655 -0.015309
v 0.025185 0.096796 -0.025185
v 0.018614 0.104845 -0.018614
v -0.000000 0.096796 -0.035617
v -0.000000 0.115655 -0.021650
v -0.000000 0.104845 -0.026325
v -0.015309 0.115655 -0.015309
v -0.025185 0.096796 -0.025185
v -0.018614 0.104845 -0.018614
v -0.035617 0.096796 0.000000
v -0.021650 0.115655 0.000000
v -0.026325 0.104845 0.000000
v -0.035617 0.083339 0.000000
v -0.021650 0.064479 0.000000
v -0.026325 0.075289 0.000000
v -0.015309 0.064479 -0.015309
v -0.025185 0.083339 -0.025185
v -0.018614 0.075289 -0.018614
v -0.000000 0.083339 -0.035617
v -0.000000 0.064479 -0.021650
v -0.000000 0.075289 -0.026325
v 0.015309 0.064479 -0.015309
v 0.025185 0.083339 -0.025185
v 0.018614 0.075289 -0.018614
v 0.035617 0.083339 -0.000000
v 0.021650 0.064479 -0.000000
v 0.026325 0.075289 -0.000000
v 0.015309 0.064479 0.015309
v 0.025185 0.083339 0.025185
v 0.018614 0.075289 0.018614
v 0.000000 0.083339 0.035617
v 0.000000 0.064479 0.021650
v 0.000000 0.075289 0.026325
v -0.015309 0.064479 0.015309
v -0.025185 0.083339 0.025185
v -0.018614 0.075289 0.018614
v -0.028585 0.093965 -0.028585
v -0.028585 0.086170 -0.028585
v 0.028585 0.093965 -0.028585
v 0.028585 0.086170 -0.028585
v 0.028585 0.093965 0.028585
v 0.028585 0.086170 0.028585
v 0.000000 0.086170 0.040425
v 0.000000 0.093965 0.040425
v -0.000000 0.086170 -0.040425
v -0.000000 0.093965 -0.040425
v 0.040425 0.086170 -0.000000
v 0.040425 0.093965 -0.000000
v -0.040425 0.086170 0.000000
v -0.040425 0.093965 0.000000
v -0.028585 0.093965 0.028585
v -0.028585 0.086170 0.028585
v -0.004509 -0.396986 0.004509
v -0.004509 -0.396986 -0.004509
v 0.004509 -0.396986 0.004509
v 0.004509 -0.396986 -0.004509
v -0.000000 -0.396986 -0.006377
v 0.000000 -0.396986 0.006377
v -0.006377 -0.396986 -0.000000
v 0.006377 -0.396986 0.000000
v 0.000000 -0.397030 0.000000
v 0.018803 -0.299525 -0.018803
v 0.026591 -0.299525 0.000000
v -0.018803 -0.299525 -0.018803
v 0.000000 -0.299525 -0.026591
v 0.018803 -0.299525 0.018803
v -0.026591 -0.299525 -0.000000
v -0.000000 -0.299525 0.026591
v -0.018803 -0.299525 0.018803
v 0.016627 -0.320508 0.000000
v 0.000000 -0.320508 -0.016627
v 0.011757 -0.320508 0.011757
v -0.011757 -0.320508 0.011757
v 0.011757 -0.320508 -0.011757
v -0.011757 -0.320508 -0.011757
v -0.016627 -0.320508 -0.000000
v -0.000000 -0.320508 0.016627
v 0.013461 -0.292666 -0.013461
v 0.011429 -0.285898 -0.011429
v 0.011821 -0.289547 -0.011821
v -0.013461 -0.292666 -0.013461
v -0.011429 -0.285898 -0.011429
v -0.011821 -0.289547 -0.011821
v -0.019036 -0.292666 -0.000000
v -0.016163 -0.285898 -0.000000
v -0.016717 -0.289547 -0.000000
v -0.000000 -0.292666 0.019036
v -0.000000 -0.285898 0.016163
v -0.000000 -0.289547 0.016717
v 0.016163 -0.285898 0.000000
v 0.019036 -0.292666 0.000000
v 0.016717 -0.289547 0.000000
v 0.000000 -0.285898 -0.016163
v 0.000000 -0.292666 -0.019036
v 0.000000 -0.289547 -0.016717
v 0.011429 -0.285898 0.011429
v 0.013461 -0.292666 0.013461
v 0.011821 -0.289547 0.011821
v -0.011429 -0.285898 0.011429
v -0.013461 -0.292666 0.013461
v -0.011821 -0.289547 0.011821
v -0.015142 -0.306539 0.015142
v -0.011943 -0.317079 0.011943
v -0.013001 -0.311552 0.013001
v 0.011943 -0.317079 0.011943
v 0.015142 -0.306539 0.015142
v 0.013001 -0.311552 0.013001
v 0.000000 -0.317079 -0.016890
v 0.000000 -0.306539 -0.021415
v 0.000000 -0.311552 -0.018387
v 0.021415 -0.306539 -0.000000
v 0.016890 -0.317079 0.000000
v 0.018387 -0.311552 -0.000000
v -0.000000 -0.306539 0.021415
v -0.000000 -0.317079 0.016890
v -0.000000 -0.311552 0.018387
v -0.016890 -0.317079 -0.000000
v -0.021415 -0.306539 -0.000000
v -0.018387 -0.311552 0.000000
v -0.015142 -0.306539 -0.015142
v -0.011943 -0.317079 -0.011943
v -0.013001 -0.311552 -0.013001
v 0.011943 -0.317079 -0.011943
v 0.015142 -0.306539 -0.015142
v 0.013001 -0.311552 -0.013001
v 0.000000 -0.347025 -0.018317
v 0.000000 -0.376546 -0.032320
v 0.000000 -0.362888 -0.022911
v -0.012952 -0.347025 0.012952
v -0.022854 -0.376546 0.022854
v -0.016200 -0.362888 0.016200
v 0.012952 -0.347025 0.012952
v 0.022854 -0.376546 0.022854
v 0.016200 -0.362888 0.016200
v 0.022854 -0.376546 -0.022854
v 0.012952 -0.347025 -0.012952
v 0.016200 -0.362888 -0.016200
v -0.022854 -0.376546 -0.022854
v -0.012952 -0.347025 -0.012952
v -0.016200 -0.362888 -0.016200
v -0.032320 -0.376546 -0.000000
v -0.018317 -0.347025 -0.000000
v -0.022911 -0.362888 -0.000000
v -0.000000 -0.376546 0.032320
v -0.000000 -0.347025 0.018317
v -0.000000 -0.362888 0.022911
v 0.018317 -0.347025 0.000000
v 0.032320 -0.376546 0.000000
v 0.022911 -0.362888 0.000000
v -0.000000 -0.386960 0.036887
v -0.000000 -0.380503 0.037838
v -0.037838 -0.380503 0.000000
v -0.036887 -0.386960 0.000000
v -0.026083 -0.386960 -0.026083
v -0.026755 -0.380503 -0.026755
v 0.026083 -0.386960 -0.026083
v 0.026755 -0.380503 -0.026755
v -0.026755 -0.380503 0.026755
v -0.026083 -0.386960 0.026083
v 0.026083 -0.386960 0.026083
v 0.026755 -0.380503 0.026755
v 0.000000 -0.380503 -0.037838
v 0.000000 -0.386960 -0.036887
v 0.037838 -0.380503 -0.000000
v 0.036887 -0.386960 -0.000000
v 0.042977 0.475840 0.031849
v 0.115561 0.183840 -0.000000
v 0.060775 0.227190 0.031455
v 0.087275 0.451785 -0.000000
v 0.000000 0.183440 0.029650
v 0.000000 0.445769 0.030878
v 0.000000 1.080712 0.017602
v 0.068038 1.080557 -0.000000
v 0.030174 1.080732 0.018595
v 0.057593 0.261090 0.031829
v 0.051658 0.336992 0.031818
v 0.054646 0.299041 0.031817
v 0.091852 0.336227 0.000000
v 0.100963 0.260230 -0.000000
v 0.094911 0.298290 0.000000
v 0.000000 0.245909 0.030878
v -0.000000 0.323463 0.030878
v 0.000000 0.284686 0.030878
v 0.000000 1.477421 0.000000
v 0.016992 1.405853 0.000000
v 0.003224 1.460650 0.000000
v 0.049956 1.242049 0.000000
v 0.021135 1.245081 0.014282
v 0.000000 1.267870 0.013815
v 0.022063 1.227767 0.014743
v 0.000000 1.248125 0.014216
v 0.058850 1.154995 0.000000
v 0.107378 0.190260 -0.000000
v 0.059662 0.230685 0.000000
v 0.000000 0.192250 0.000000
v -0.042977 0.475840 0.031849
v -0.115561 0.183840 -0.000000
v -0.060775 0.227190 0.031455
v -0.087275 0.451785 -0.000000
v -0.068038 1.080557 -0.000000
v -0.030174 1.080732 0.018595
v -0.057593 0.261090 0.031829
v -0.051658 0.336992 0.031818
v -0.054646 0.299041 0.031817
v -0.091852 0.336227 0.000000
v -0.100963 0.260230 -0.000000
v -0.094911 0.298290 0.000000
v -0.016992 1.405853 0.000000
v -0.003224 1.460650 0.000000
v -0.049956 1.242049 0.000000
v -0.021135 1.245081 0.014282
v -0.022063 1.227767 0.014743
v -0.058850 1.154995 0.000000
v -0.107378 0.190260 -0.000000
v -0.059662 0.230685 -0.000000
v 0.042977 0.475840 -0.031849
v 0.060775 0.227190 -0.031455
v 0.000000 0.183440 -0.029650
v -0.000000 0.445769 -0.030878
v -0.000000 1.080712 -0.017602
v 0.030174 1.080732 -0.018595
v 0.057593 0.261090 -0.031829
v 0.051658 0.336992 -0.031818
v 0.054646 0.299041 -0.031817
v 0.000000 0.245909 -0.030878
v -0.000000 0.323463 -0.030878
v 0.000000 0.284686 -0.030878
v 0.021135 1.245081 -0.014282
v 0.000000 1.267870 -0.013815
v 0.022063 1.227767 -0.014743
v 0.000000 1.248125 -0.014216
v -0.042977 0.475840 -0.031849
v -0.060775 0.227190 -0.031455
v -0.030174 1.080732 -0.018595
v -0.057593 0.261090 -0.031829
v -0.051658 0.336992 -0.031818
v -0.054646 0.299041 -0.031817
v -0.021135 1.245081 -0.014282
v -0.022063 1.227767 -0.014743
vn 0.9708 0.2399 -0.0000
vn 0.6825 -0.7309 -0.0000
vn -0.0000 -0.7764 0.6303
vn 0.7609 -0.6488 -0.0000
vn 0.9949 -0.1004 -0.0000
vn 0.9059 -0.4235 -0.0000
vn -0.0000 -0.1256 0.9921
vn -0.0000 -0.2768 0.9609
vn -0.0000 -0.2951 0.9555
vn 0.2038 -0.5342 0.8204
vn 0.2251 -0.3380 0.9138
vn 0.1942 -0.3293 0.9240
vn 0.2360 -0.1408 0.9615
vn 0.3063 0.9519 -0.0000
vn -0.9177 -0.3972 -0.0000
vn 0.8301 -0.5577 -0.0000
vn 0.8156 -0.5787 -0.0000
vn -0.8137 -0.5813 -0.0000
vn -0.7526 -0.6585 -0.0000
vn 0.8757 0.4828 -0.0000
vn 0.7907 0.6121 -0.0000
vn -0.8878 0.4603 -0.0000
vn 0.6123 -0.7907 -0.0000
vn 0.4482 -0.8939 -0.0000
vn -0.7478 0.6639 -0.0000
vn -0.9745 0.2246 -0.0000
vn -0.9923 -0.1240 -0.0000
vn -0.9983 0.0581 -0.0000
vn 0.8712 -0.4910 -0.0000
vn 0.7052 -0.7090 -0.0000
vn 0.8159 -0.5782 -0.0000
vn -0.7795 0.6264 -0.0000
vn 0.5076 -0.8616 -0.0000
vn -0.9460 0.3243 -0.0000
vn 0.9846 -0.1750 -0.0000
vn 0.8808 -0.4735 -0.0000
vn -0.7894 0.6139 -0.0000
vn -0.9635 -0.2677 -0.0000
vn 0.9044 0.4267 -0.0000
vn 0.9880 0.1547 -0.0000
vn -0.9998 0.0194 -0.0000
vn -0.6689 -0.7434 -0.0000
vn 0.5899 0.8075 -0.0000
vn 0.7500 0.6615 -0.0000
vn -0.8892 -0.4574 -0.0000
vn -0.5772 -0.8166 -0.0000
vn 0.1958 0.9806 -0.0000
vn 0.3319 0.9433 -0.0000
vn -0.5747 -0.8183 -0.0000
vn -0.2271 -0.1697 0.9590
vn -0.1074 -0.1372 0.9847
vn 0.0948 0.0567 0.9939
vn -0.9618 0.2738 -0.0000
vn -0.1386 -0.1551 0.9781
vn -0.1387 -0.1384 0.9806
vn -0.2049 -0.1445 0.9681
vn -0.1214 -0.1345 0.9834
vn 0.0806 0.0471 0.9956
vn 0.0534 0.0108 0.9985
vn 0.0505 0.1264 0.9907
vn 0.0612 0.0817 0.9948
vn -0.0065 0.2873 0.9578
vn 0.0120 0.1540 0.9880
vn -0.9877 0.1563 -0.0000
vn -0.1111 0.2443 0.9633
vn 0.5017 0.0753 0.8617
vn 0.5577 -0.3500 0.7526
vn 0.5811 -0.1126 0.8060
vn 0.6050 -0.6478 0.4630
vn 0.5942 -0.4876 0.6397
vn -0.1340 0.0511 0.9897
vn 0.8131 -0.5821 -0.0000
vn -0.0633 0.0032 0.9980
vn 0.3142 -0.0030 0.9493
vn 0.0418 -0.0674 0.9968
vn -0.0000 -1.0000 -0.0000
vn -0.1841 -0.9829 -0.0000
vn -0.9708 0.2399 -0.0000
vn -0.6825 -0.7309 -0.0000
vn -0.7609 -0.6488 -0.0000
vn -0.9949 -0.1004 -0.0000
vn -0.9059 -0.4235 -0.0000
vn -0.2038 -0.5342 0.8204
vn -0.2251 -0.3380 0.9138
vn -0.1942 -0.3293 0.9240
vn -0.2360 -0.1408 0.9615
vn -0.3063 0.9519 -0.0000
vn 0.9177 -0.3972 -0.0000
vn -0.8301 -0.5577 -0.0000
vn -0.8156 -0.5787 -0.0000
vn 0.8137 -0.5813 -0.0000
vn 0.7526 -0.6585 -0.0000
vn -0.8757 0.4828 -0.0000
vn -0.7907 0.6121 -0.0000
vn 0.8878 0.4603 -0.0000
vn -0.6123 -0.7907 -0.0000
vn -0.4482 -0.8939 -0.0000
vn 0.7478 0.6639 -0.0000
vn 0.9745 0.2246 -0.0000
vn 0.9923 -0.1240 -0.0000
vn 0.9983 0.0581 -0.0000
vn -0.8712 -0.4910 -0.0000
vn -0.7052 -0.7090 -0.0000
vn -0.8159 -0.5782 -0.0000
vn 0.7795 0.6264 -0.0000
vn -0.5076 -0.8616 -0.0000
vn 0.9460 0.3243 -0.0000
vn -0.9846 -0.1750 -0.0000
vn -0.8808 -0.4735 -0.0000
vn 0.7894 0.6139 -0.0000
vn 0.9635 -0.2677 -0.0000
vn -0.9044 0.4267 -0.0000
vn -0.9880 0.1547 -0.0000
vn 0.9998 0.0194 -0.0000
vn 0.6689 -0.7434 -0.0000
vn -0.5899 0.8075 -0.0000
vn -0.7500 0.6615 -0.0000
vn 0.8892 -0.4574 -0.0000
vn 0.5772 -0.8166 -0.0000
vn -0.1958 0.9806 -0.0000
vn -0.3319 0.9433 -0.0000
vn 0.5747 -0.8183 -0.0000
vn 0.2271 -0.1697 0.9590
vn 0.1074 -0.1372 0.9847
vn -0.0948 0.0567 0.9939
vn 0.9618 0.2738 -0.0000
vn 0.1386 -0.1551 0.9781
vn 0.1387 -0.1384 0.9806
vn 0.2049 -0.1445 0.9681
vn 0.1214 -0.1345 0.9834
vn -0.0806 0.0471 0.9956
vn -0.0534 0.0108 0.9985
vn -0.0505 0.1264 0.9907
vn -0.0612 0.0817 0.9948
vn 0.0065 0.2873 0.9578
vn -0.0120 0.1540 0.9880
vn 0.9877 0.1563 -0.0000
vn 0.1111 0.2443 0.9633
vn -0.5017 0.0753 0.8617
vn -0.5577 -0.3500 0.7526
vn -0.5811 -0.1126 0.8060
vn -0.6050 -0.6478 0.4630
vn -0.5942 -0.4876 0.6397
vn 0.1340 0.0511 0.9897
vn -0.8131 -0.5821 -0.0000
vn 0.0633 0.0032 0.9980
vn -0.3142 -0.0030 0.9493
vn -0.0418 -0.0674 0.9968
vn 0.1841 -0.9829 -0.0000
vn -0.0000 -0.7764 -0.6303
vn -0.0000 -0.1256 -0.9921
vn -0.0000 -0.2768 -0.9609
vn -0.0000 -0.2951 -0.9555
vn 0.2038 -0.5342 -0.8204
vn 0.2251 -0.3380 -0.9138
vn 0.1942 -0.3293 -0.9240
vn 0.2360 -0.1408 -0.9615
vn -0.2271 -0.1697 -0.9590
vn -0.1074 -0.1372 -0.9847
vn 0.0948 0.0567 -0.9939
vn -0.1386 -0.1551 -0.9781
vn -0.1387 -0.1384 -0.9806
vn -0.2049 -0.1445 -0.9681
vn -0.1214 -0.1345 -0.9834
vn 0.0806 0.0471 -0.9956
vn 0.0534 0.0108 -0.9985
vn 0.0505 0.1264 -0.9907
vn 0.0612 0.0817 -0.9948
vn -0.0065 0.2873 -0.9578
vn 0.0120 0.1540 -0.9880
vn -0.1111 0.2443 -0.9633
vn 0.5017 0.0753 -0.8617
vn 0.5577 -0.3500 -0.7526
vn 0.5811 -0.1126 -0.8060
vn 0.6050 -0.6478 -0.4630
vn 0.5942 -0.4876 -0.6397
vn -0.1340 0.0511 -0.9897
vn -0.0633 0.0032 -0.9980
vn 0.3142 -0.0030 -0.9493
vn 0.0418 -0.0674 -0.9968
vn -0.2038 -0.5342 -0.8204
vn -0.2251 -0.3380 -0.9138
vn -0.1942 -0.3293 -0.9240
vn -0.2360 -0.1408 -0.9615
vn 0.2271 -0.1697 -0.9590
vn 0.1074 -0.1372 -0.9847
vn -0.0948 0.0567 -0.9939
vn 0.1386 -0.1551 -0.9781
vn 0.1387 -0.1384 -0.9806
vn 0.2049 -0.1445 -0.9681
vn 0.1214 -0.1345 -0.9834
vn -0.0806 0.0471 -0.9956
vn -0.0534 0.0108 -0.9985
vn -0.0505 0.1264 -0.9907
vn -0.0612 0.0817 -0.9948
vn 0.0065 0.2873 -0.9578
vn -0.0120 0.1540 -0.9880
vn 0.1111 0.2443 -0.9633
vn -0.5017 0.0753 -0.8617
vn -0.5577 -0.3500 -0.7526
vn -0.5811 -0.1126 -0.8060
vn -0.6050 -0.6478 -0.4630
vn -0.5942 -0.4876 -0.6397
vn 0.1340 0.0511 -0.9897
vn 0.0633 0.0032 -0.9980
vn -0.3142 -0.0030 -0.9493
vn -0.0418 -0.0674 -0.9968
vn -0.7052 -0.0733 0.7052
vn -0.7071 -0.0000 0.7071
vn -0.7052 -0.0733 -0.7052
vn -0.7071 -0.0000 -0.7071
vn 0.7052 -0.0733 0.7052
vn 0.7071 -0.0000 0.7071
vn 0.7052 -0.0733 -0.7052
vn 0.7071 -0.0000 -0.7071
vn -0.0000 -0.0733 -0.9973
vn -0.0000 -0.0000 -1.0000
vn -0.0000 -0.0733 0.9973
vn -0.0000 -0.0000 1.0000
vn -0.9973 -0.0733 -0.0000
vn -1.0000 -0.0000 -0.0000
vn 0.9973 -0.0733 -0.0000
vn 1.0000 -0.0000 -0.0000
vn -0.7071 -0.0006 0.7071
vn -0.7071 -0.0006 -0.7071
vn 0.7071 -0.0006 -0.7071
vn 0.7071 -0.0006 0.7071
vn -0.0000 -0.0006 1.0000
vn -0.0000 -0.0006 -1.0000
vn 1.0000 -0.0006 -0.0000
vn -1.0000 -0.0006 -0.0000
vn -0.7058 0.0610 -0.7058
vn -0.7056 -0.0659 -0.7056
vn 0.7058 0.0610 -0.7058
vn 0.7056 -0.0659 -0.7056
vn 0.7058 0.0610 0.7058
vn 0.7056 -0.0659 0.7056
vn -0.0000 -0.0659 0.9978
vn -0.0000 0.0610 0.9981
vn -0.0000 -0.0659 -0.9978
vn -0.0000 0.0610 -0.9981
vn 0.9978 -0.0659 -0.0000
vn 0.9981 0.0610 -0.0000
vn -0.9978 -0.0659 -0.0000
vn -0.9981 0.0610 -0.0000
vn -0.7058 0.0610 0.7058
vn -0.7056 -0.0659 0.7056
vn -0.4018 0.8228 0.4018
vn -0.6806 0.2710 0.6806
vn -0.5555 0.6187 0.5555
vn -0.0000 0.2710 0.9626
vn -0.0000 0.8228 0.5683
vn -0.0000 0.6187 0.7856
vn 0.4018 0.8228 0.4018
vn 0.6806 0.2710 0.6806
vn 0.5555 0.6187 0.5555
vn 0.5683 0.8228 -0.0000
vn 0.9626 0.2710 -0.0000
vn 0.7856 0.6187 -0.0000
vn 0.6806 0.2710 -0.6806
vn 0.4018 0.8228 -0.4018
vn 0.5555 0.6187 -0.5555
vn -0.0000 0.8228 -0.5683
vn -0.0000 0.2710 -0.9626
vn -0.0000 0.6187 -0.7856
vn -0.6806 0.2710 -0.6806
vn -0.4018 0.8228 -0.4018
vn -0.5555 0.6187 -0.5555
vn -0.5683 0.8228 -0.0000
vn -0.9626 0.2710 -0.0000
vn -0.7856 0.6187 -0.0000
vn -0.5683 -0.8228 -0.0000
vn -0.9626 -0.2710 -0.0000
vn -0.7856 -0.6187 -0.0000
vn -0.6806 -0.2710 -0.6806
vn -0.4018 -0.8228 -0.4018
vn -0.5555 -0.6187 -0.5555
vn -0.0000 -0.8228 -0.5683
vn -0.0000 -0.2710 -0.9626
vn -0.0000 -0.6187 -0.7856
vn 0.6806 -0.2710 -0.6806
vn 0.4018 -0.8228 -0.4018
vn 0.5555 -0.6187 -0.5555
vn 0.5683 -0.8228 -0.0000
vn 0.9626 -0.2710 -0.0000
vn 0.7856 -0.6187 -0.0000
vn 0.6806 -0.2710 0.6806
vn 0.4018 -0.8228 0.4018
vn 0.5555 -0.6187 0.5555
vn -0.0000 -0.8228 0.5683
vn -0.0000 -0.2710 0.9626
vn -0.0000 -0.6187 0.7856
vn -0.6806 -0.2710 0.6806
vn -0.4018 -0.8228 0.4018
vn -0.5555 -0.6187 0.5555
vn -0.6313 0.4503 -0.6313
vn -0.6313 -0.4503 -0.6313
vn 0.6313 0.4503 -0.6313
vn 0.6313 -0.4503 -0.6313
vn 0.6313 0.4503 0.6313
vn 0.6313 -0.4503 0.6313
vn -0.0000 -0.4503 0.8929
vn -0.0000 0.4503 0.8929
vn -0.0000 -0.4503 -0.8929
vn -0.0000 0.4503 -0.8929
vn 0.8929 -0.4503 -0.0000
vn 0.8929 0.4503 -0.0000
vn -0.8929 -0.4503 -0.0000
vn -0.8929 0.4503 -0.0000
vn -0.6313 0.4503 0.6313
vn -0.6313 -0.4503 0.6313
vn -0.1404 -0.9801 0.1404
vn -0.1404 -0.9801 -0.1404
vn 0.1404 -0.9801 0.1404
vn 0.1404 -0.9801 -0.1404
vn -0.0000 -0.9802 -0.1979
vn -0.0000 -0.9802 0.1979
vn -0.1979 -0.9802 -0.0000
vn 0.1979 -0.9802 -0.0000
vn 0.7045 0.0858 -0.7045
vn 0.9963 0.0858 -0.0000
vn -0.7045 0.0858 -0.7045
vn -0.0000 0.0858 -0.9963
vn 0.7045 0.0858 0.7045
vn -0.9963 0.0858 -0.0000
vn -0.0000 0.0858 0.9963
vn -0.7045 0.0858 0.7045
vn 1.0000 -0.0066 -0.0000
vn -0.0000 -0.0066 -1.0000
vn 0.7071 -0.0066 0.7071
vn -0.7071 -0.0066 0.7071
vn 0.7071 -0.0066 -0.7071
vn -0.7071 -0.0066 -0.7071
vn -1.0000 -0.0066 -0.0000
vn -0.0000 -0.0066 1.0000
vn 0.5159 0.6838 -0.5159
vn 0.7071 0.0052 -0.7071
vn 0.6457 0.4076 -0.6457
vn -0.5159 0.6838 -0.5159
vn -0.7071 0.0052 -0.7071
vn -0.6457 0.4076 -0.6457
vn -0.7296 0.6838 -0.0000
vn -1.0000 0.0052 -0.0000
vn -0.9132 0.4076 -0.0000
vn -0.0000 0.6838 0.7296
vn -0.0000 0.0052 1.0000
vn -0.0000 0.4076 0.9132
vn 1.0000 0.0052 -0.0000
vn 0.7296 0.6838 -0.0000
vn 0.9132 0.4076 -0.0000
vn -0.0000 0.0052 -1.0000
vn -0.0000 0.6838 -0.7296
vn -0.0000 0.4076 -0.9132
vn 0.7071 0.0052 0.7071
vn 0.5159 0.6838 0.5159
vn 0.6457 0.4076 0.6457
vn -0.7071 0.0052 0.7071
vn -0.5159 0.6838 0.5159
vn -0.6457 0.4076 0.6457
vn -0.5852 -0.5613 0.5852
vn -0.6964 -0.1737 0.6964
vn -0.6462 -0.4059 0.6462
vn 0.6964 -0.1737 0.6964
vn 0.5852 -0.5613 0.5852
vn 0.6462 -0.4059 0.6462
vn -0.0000 -0.1737 -0.9848
vn -0.0000 -0.5613 -0.8276
vn -0.0000 -0.4059 -0.9139
vn 0.8276 -0.5613 -0.0000
vn 0.9848 -0.1737 -0.0000
vn 0.9139 -0.4059 -0.0000
vn -0.0000 -0.5613 0.8276
vn -0.0000 -0.1737 0.9848
vn -0.0000 -0.4059 0.9139
vn -0.9848 -0.1737 -0.0000
vn -0.8276 -0.5613 -0.0000
vn -0.9139 -0.4059 -0.0000
vn -0.5852 -0.5613 -0.5852
vn -0.6964 -0.1737 -0.6964
vn -0.6462 -0.4059 -0.6462
vn 0.6964 -0.1737 -0.6964
vn 0.5852 -0.5613 -0.5852
vn 0.6462 -0.4059 -0.6462
vn -0.0000 0.1766 -0.9843
vn -0.0000 0.7222 -0.6917
vn -0.0000 0.4442 -0.8959
vn -0.6960 0.1766 0.6960
vn -0.4891 0.7222 0.4891
vn -0.6335 0.4442 0.6335
vn 0.6960 0.1766 0.6960
vn 0.4891 0.7222 0.4891
vn 0.6335 0.4442 0.6335
vn 0.4891 0.7222 -0.4891
vn 0.6960 0.1766 -0.6960
vn 0.6335 0.4442 -0.6335
vn -0.4891 0.7222 -0.4891
vn -0.6960 0.1766 -0.6960
vn -0.6335 0.4442 -0.6335
vn -0.6916 0.7222 -0.0000
vn -0.9843 0.1766 -0.0000
vn -0.8959 0.4442 -0.0000
vn -0.0000 0.7222 0.6917
vn -0.0000 0.1766 0.9843
vn -0.0000 0.4442 0.8959
vn 0.9843 0.1766 -0.0000
vn 0.6916 0.7222 -0.0000
vn 0.8959 0.4442 -0.0000
vn -0.0000 -0.5870 0.8096
vn -0.0000 0.3511 0.9363
vn -0.9363 0.3511 -0.0000
vn -0.8096 -0.5870 -0.0000
vn -0.5725 -0.5870 -0.5725
vn -0.6621 0.3511 -0.6621
vn 0.5725 -0.5870 -0.5725
vn 0.6621 0.3511 -0.6621
vn -0.6621 0.3511 0.6621
vn -0.5725 -0.5870 0.5725
vn 0.5725 -0.5870 0.5725
vn 0.6621 0.3511 0.6621
vn -0.0000 0.3511 -0.9363
vn -0.0000 -0.5870 -0.8096
vn 0.9363 0.3511 -0.0000
vn 0.8096 -0.5870 -0.0000
vn 0.2720 0.0209 0.9621
vn 0.5982 -0.8014 -0.0000
vn 0.3051 -0.4744 0.8257
vn 0.9988 0.0490 -0.0000
vn -0.0000 -0.8596 0.5109
vn -0.0000 0.0059 1.0000
vn -0.0000 0.0218 0.9998
vn 0.9973 0.0733 -0.0000
vn 0.2410 0.0305 0.9701
vn 0.2998 0.0377 0.9532
vn 0.3139 0.0208 0.9492
vn 0.3161 0.0315 0.9482
vn 0.9978 0.0663 -0.0000
vn 0.9905 0.1374 -0.0000
vn 0.9950 0.0997 -0.0000
vn -0.0000 -0.0102 0.9999
vn -0.0000 -0.0007 1.0000
vn -0.0000 1.0000 -0.0000
vn 0.9779 0.2091 -0.0000
vn 0.8459 0.5334 -0.0000
vn 0.9891 0.1470 -0.0000
vn 0.2349 0.0532 0.9706
vn -0.0000 0.0588 0.9983
vn 0.2227 0.0357 0.9742
vn -0.0000 0.0230 0.9997
vn 0.9938 0.1108 -0.0000
vn -0.6423 -0.7664 -0.0000
vn -0.0364 -0.9993 -0.0000
vn -0.2720 0.0209 0.9621
vn -0.5982 -0.8014 -0.0000
vn -0.3051 -0.4744 0.8257
vn -0.9988 0.0490 -0.0000
vn -0.9973 0.0733 -0.0000
vn -0.2410 0.0305 0.9701
vn -0.2998 0.0377 0.9532
vn -0.3139 0.0208 0.9492
vn -0.3161 0.0315 0.9482
vn -0.9978 0.0663 -0.0000
vn -0.9905 0.1374 -0.0000
vn -0.9950 0.0997 -0.0000
vn -0.9779 0.2091 -0.0000
vn -0.8459 0.5334 -0.0000
vn -0.9891 0.1470 -0.0000
vn -0.2349 0.0532 0.9706
vn -0.2227 0.0357 0.9742
vn -0.9938 0.1108 -0.0000
vn 0.6423 -0.7664 -0.0000
vn 0.0364 -0.9993 -0.0000
vn 0.2720 0.0209 -0.9621
vn 0.3051 -0.4744 -0.8257
vn -0.0000 -0.8596 -0.5109
vn -0.0000 0.0059 -1.0000
vn -0.0000 0.0218 -0.9998
vn 0.2410 0.0305 -0.9701
vn 0.2998 0.0377 -0.9532
vn 0.3139 0.0208 -0.9492
vn 0.3161 0.0315 -0.9482
vn -0.0000 -0.0102 -0.9999
vn -0.0000 -0.0007 -1.0000
vn 0.2349 0.0532 -0.9706
vn -0.0000 0.0588 -0.9983
vn 0.2227 0.0357 -0.9742
vn -0.0000 0.0230 -0.9997
vn -0.2720 0.0209 -0.9621
vn -0.3051 -0.4744 -0.8257
vn -0.2410 0.0305 -0.9701
vn -0.2998 0.0377 -0.9532
vn -0.3139 0.0208 -0.9492
vn -0.3161 0.0315 -0.9482
vn -0.2349 0.0532 -0.9706
vn -0.2227 0.0357 -0.9742
vt 0.830765 0.805069
vt 0.855920 0.803360
vt 0.873267 0.815790
vt 0.839533 0.818363
vt 0.813554 0.805055
vt 0.772947 0.804060
vt 0.773135 0.798401
vt 0.811561 0.799283
vt 0.773325 0.792699
vt 0.811287 0.793283
vt 0.835072 0.767613
vt 0.851121 0.777211
vt 0.848307 0.792507
vt 0.828291 0.793131
vt 0.774929 0.744443
vt 0.822123 0.758617
vt 0.828423 0.799095
vt 0.837703 0.745054
vt 0.846297 0.756446
vt 0.911201 0.722675
vt 0.898438 0.710434
vt 0.929090 0.693302
vt 0.945268 0.706627
vt 0.862618 0.747168
vt 0.872612 0.757482
vt 0.859299 0.766777
vt 0.853059 0.736734
vt 0.868172 0.727770
vt 0.879726 0.739111
vt 0.875030 0.718222
vt 0.897511 0.703338
vt 0.875422 0.673665
vt 0.867474 0.676157
vt 0.851239 0.657930
vt 0.851551 0.657747
vt 0.892389 0.689432
vt 0.904507 0.681157
vt 0.911972 0.684941
vt 0.895917 0.696262
vt 0.918527 0.688229
vt 0.877772 0.696620
vt 0.875181 0.687220
vt 0.886167 0.682255
vt 0.934776 0.740008
vt 0.970260 0.726999
vt 0.974779 0.735773
vt 0.940634 0.746723
vt 0.925135 0.734541
vt 0.962330 0.719594
vt 0.941590 0.755430
vt 0.973830 0.748864
vt 0.966586 0.762544
vt 0.937949 0.764722
vt 0.932441 0.770055
vt 0.957871 0.768941
vt 0.944700 0.775605
vt 0.923777 0.775856
vt 0.908207 0.781580
vt 0.920193 0.782761
vt 0.887906 0.788727
vt 0.887391 0.788300
vt 0.903084 0.777464
vt 0.896299 0.782582
vt 0.886795 0.787911
vt 0.909894 0.768023
vt 0.907408 0.772367
vt 0.907640 0.758458
vt 0.910249 0.762903
vt 0.889979 0.750720
vt 0.900599 0.753875
vt 0.895144 0.676329
vt 0.882006 0.670332
vt 0.877819 0.706933
vt 0.851830 0.657553
vt 0.850925 0.797840
vt 0.196885 0.898474
vt 0.211595 0.925817
vt 0.177337 0.925904
vt 0.177065 0.899130
vt 0.715094 0.804107
vt 0.705446 0.817249
vt 0.671903 0.814116
vt 0.690067 0.801981
vt 0.732296 0.804380
vt 0.734672 0.798644
vt 0.735345 0.792652
vt 0.713279 0.766601
vt 0.718360 0.792218
vt 0.698397 0.791261
vt 0.696601 0.775926
vt 0.726820 0.757824
vt 0.717832 0.798175
vt 0.702803 0.755253
vt 0.712150 0.744011
vt 0.640180 0.720422
vt 0.607199 0.703817
vt 0.624254 0.690768
vt 0.653750 0.708400
vt 0.687108 0.745709
vt 0.689122 0.765362
vt 0.676434 0.755852
vt 0.670545 0.737372
vt 0.682847 0.726229
vt 0.697355 0.735439
vt 0.655148 0.701324
vt 0.676627 0.716573
vt 0.679198 0.672034
vt 0.704114 0.656521
vt 0.704414 0.656710
vt 0.686976 0.674657
vt 0.661192 0.687510
vt 0.657212 0.694278
vt 0.641919 0.682696
vt 0.649631 0.679038
vt 0.635148 0.685873
vt 0.667888 0.680440
vt 0.678537 0.685585
vt 0.675323 0.694937
vt 0.615466 0.737353
vt 0.609164 0.743968
vt 0.575767 0.732456
vt 0.580866 0.723762
vt 0.625465 0.732050
vt 0.589284 0.716493
vt 0.607630 0.752654
vt 0.610651 0.762001
vt 0.582175 0.759349
vt 0.575845 0.745556
vt 0.615802 0.767423
vt 0.624075 0.773364
vt 0.603181 0.772766
vt 0.590460 0.765886
vt 0.639256 0.779344
vt 0.659615 0.786406
vt 0.659071 0.786824
vt 0.627198 0.780326
vt 0.644651 0.775316
vt 0.651091 0.780544
vt 0.660236 0.786028
vt 0.638471 0.765766
vt 0.640667 0.770149
vt 0.641360 0.756245
vt 0.638458 0.760644
vt 0.659526 0.748804
vt 0.648702 0.751781
vt 0.659309 0.674368
vt 0.672839 0.668594
vt 0.674590 0.705243
vt 0.703848 0.656322
vt 0.695426 0.796548
vt 0.197442 0.953234
vt 0.177610 0.952679
vt 0.832976 0.842572
vt 0.842622 0.829430
vt 0.876165 0.832562
vt 0.858002 0.844697
vt 0.815774 0.842299
vt 0.813399 0.848035
vt 0.774937 0.848278
vt 0.775125 0.842620
vt 0.812726 0.854027
vt 0.774748 0.853980
vt 0.834792 0.880076
vt 0.829710 0.854461
vt 0.849673 0.855417
vt 0.851470 0.870752
vt 0.773146 0.902234
vt 0.821253 0.888853
vt 0.830238 0.848503
vt 0.845269 0.891424
vt 0.835923 0.902666
vt 0.907890 0.926253
vt 0.940871 0.942857
vt 0.923818 0.955905
vt 0.894322 0.938274
vt 0.860963 0.900967
vt 0.858949 0.881315
vt 0.871637 0.890825
vt 0.877527 0.909303
vt 0.865225 0.920446
vt 0.850717 0.911236
vt 0.892924 0.945350
vt 0.871445 0.930102
vt 0.868870 0.974646
vt 0.843882 0.990144
vt 0.843583 0.989956
vt 0.861093 0.972018
vt 0.886881 0.959163
vt 0.890861 0.952396
vt 0.906154 0.963977
vt 0.898442 0.967635
vt 0.912924 0.960800
vt 0.880187 0.966234
vt 0.869536 0.961088
vt 0.872750 0.951737
vt 0.932603 0.909322
vt 0.938904 0.902708
vt 0.972301 0.914218
vt 0.967202 0.922912
vt 0.922605 0.914625
vt 0.958784 0.930181
vt 0.940438 0.894022
vt 0.937418 0.884675
vt 0.965892 0.887328
vt 0.972222 0.901119
vt 0.932268 0.879253
vt 0.923996 0.873310
vt 0.944889 0.873911
vt 0.957608 0.880790
vt 0.908792 0.867313
vt 0.888466 0.860193
vt 0.889014 0.859776
vt 0.920882 0.866350
vt 0.903414 0.871360
vt 0.896908 0.866154
vt 0.887920 0.860610
vt 0.909597 0.880910
vt 0.907400 0.876527
vt 0.906709 0.890431
vt 0.909611 0.886032
vt 0.888544 0.897871
vt 0.899367 0.894895
vt 0.888767 0.972304
vt 0.875243 0.978083
vt 0.873483 0.941431
vt 0.844181 0.990333
vt 0.852643 0.850131
vt 0.157232 0.898575
vt 0.143079 0.925992
vt 0.717309 0.841612
vt 0.692156 0.843321
vt 0.674809 0.830891
vt 0.708541 0.828318
vt 0.734519 0.841625
vt 0.736513 0.847397
vt 0.736788 0.853396
vt 0.713004 0.879066
vt 0.696955 0.869469
vt 0.699769 0.854173
vt 0.719784 0.853548
vt 0.725954 0.888062
vt 0.719652 0.847585
vt 0.710375 0.901624
vt 0.701780 0.890233
vt 0.636881 0.924003
vt 0.649644 0.936243
vt 0.618994 0.953375
vt 0.602817 0.940050
vt 0.685461 0.899511
vt 0.675467 0.889197
vt 0.688779 0.879902
vt 0.695019 0.909944
vt 0.679908 0.918908
vt 0.668353 0.907567
vt 0.673050 0.928455
vt 0.650571 0.943339
vt 0.672667 0.973017
vt 0.680615 0.970520
vt 0.696924 0.988738
vt 0.696613 0.988922
vt 0.655694 0.957244
vt 0.643577 0.965519
vt 0.636112 0.961736
vt 0.652165 0.950415
vt 0.629557 0.958448
vt 0.670310 0.950057
vt 0.672902 0.959456
vt 0.661915 0.964422
vt 0.613306 0.906671
vt 0.577824 0.919680
vt 0.573305 0.910906
vt 0.607447 0.899956
vt 0.622947 0.912137
vt 0.585754 0.927085
vt 0.606490 0.891250
vt 0.574254 0.897816
vt 0.581496 0.884137
vt 0.610130 0.881958
vt 0.615637 0.876624
vt 0.590209 0.877741
vt 0.603377 0.871077
vt 0.624299 0.870822
vt 0.639893 0.865081
vt 0.627873 0.863918
vt 0.660160 0.857877
vt 0.660680 0.858302
vt 0.644998 0.869215
vt 0.651847 0.864120
vt 0.661198 0.858728
vt 0.638185 0.878657
vt 0.640672 0.874313
vt 0.640439 0.888221
vt 0.637831 0.883776
vt 0.658100 0.895959
vt 0.647481 0.892804
vt 0.652937 0.970347
vt 0.666070 0.976347
vt 0.670262 0.939744
vt 0.696302 0.989106
vt 0.697151 0.848840
vt 0.157790 0.953335
vt 0.176927 0.885623
vt 0.177747 0.966186
vt 0.667446 0.137436
vt 0.671228 0.171684
vt 0.636779 0.172741
vt 0.632099 0.137788
vt 0.595900 0.138867
vt 0.602247 0.174164
vt 0.567604 0.175995
vt 0.559742 0.140874
vt 0.676747 0.339962
vt 0.680529 0.374209
vt 0.646081 0.375267
vt 0.641400 0.340313
vt 0.605201 0.341392
vt 0.611548 0.376689
vt 0.576905 0.378520
vt 0.569043 0.343399
vt 0.532919 0.178044
vt 0.524767 0.143558
vt 0.542220 0.380570
vt 0.534068 0.346084
vt 0.604222 0.335760
vt 0.567494 0.337848
vt 0.559230 0.311589
vt 0.600906 0.308692
vt 0.594921 0.133234
vt 0.558193 0.135323
vt 0.667318 0.132103
vt 0.631677 0.132233
vt 0.676619 0.334628
vt 0.640978 0.334758
vt 0.764777 0.010033
vt 0.759461 0.415515
vt 0.727499 0.415358
vt 0.738130 0.009902
vt 0.791424 0.010077
vt 0.791424 0.415567
vt 0.818071 0.010033
vt 0.823388 0.415515
vt 0.892906 0.010033
vt 0.887590 0.415515
vt 0.855628 0.415358
vt 0.866260 0.009902
vt 0.523104 0.138230
vt 0.844718 0.009902
vt 0.855350 0.415358
vt 0.972847 0.009902
vt 0.983479 0.415358
vt 0.951517 0.415515
vt 0.946201 0.010033
vt 0.919554 0.010077
vt 0.919554 0.415567
vt 0.532405 0.340755
vt 0.557334 0.237704
vt 0.517578 0.234390
vt 0.527862 0.209327
vt 0.562810 0.212065
vt 0.636769 0.076058
vt 0.590125 0.076848
vt 0.589928 0.073184
vt 0.636821 0.072421
vt 0.591605 0.106167
vt 0.632543 0.106056
vt 0.700497 0.279648
vt 0.646071 0.278584
vt 0.646122 0.274947
vt 0.704033 0.275253
vt 0.589343 0.068445
vt 0.541102 0.069051
vt 0.541190 0.065268
vt 0.589088 0.064487
vt 0.599426 0.279373
vt 0.551400 0.280672
vt 0.550980 0.276570
vt 0.599230 0.275709
vt 0.641844 0.308581
vt 0.492117 0.283426
vt 0.487695 0.278114
vt 0.680687 0.310021
vt 0.597695 0.238047
vt 0.597566 0.212876
vt 0.671386 0.107496
vt 0.588393 0.035521
vt 0.548033 0.035178
vt 0.553509 0.009539
vt 0.588265 0.010351
vt 0.510256 0.113954
vt 0.549929 0.109064
vt 0.675527 0.233590
vt 0.637249 0.236783
vt 0.631982 0.211948
vt 0.665456 0.209327
vt 0.519557 0.316480
vt 0.542099 0.078147
vt 0.541679 0.074044
vt 0.694666 0.066045
vt 0.636338 0.067619
vt 0.635926 0.064036
vt 0.690396 0.061187
vt 0.703967 0.268571
vt 0.645639 0.270144
vt 0.645227 0.266562
vt 0.699697 0.263713
vt 0.598644 0.270971
vt 0.550404 0.271576
vt 0.550491 0.267794
vt 0.598389 0.267013
vt 0.478687 0.068318
vt 0.482749 0.063587
vt 0.666226 0.031065
vt 0.627948 0.034257
vt 0.622681 0.009422
vt 0.656155 0.006802
vt 0.508276 0.031864
vt 0.518560 0.006802
vt 0.482815 0.080901
vt 0.478394 0.075589
vt 0.691196 0.077122
vt 0.679298 0.091827
vt 0.634212 0.089473
vt 0.643513 0.291998
vt 0.598940 0.292619
vt 0.553775 0.294945
vt 0.506255 0.300285
vt 0.589639 0.090094
vt 0.544474 0.092420
vt 0.688599 0.294352
vt 0.496954 0.097759
vt 0.553281 0.254058
vt 0.506518 0.250442
vt 0.492051 0.266112
vt 0.543980 0.051533
vt 0.497216 0.047917
vt 0.631890 0.050580
vt 0.588198 0.050985
vt 0.641191 0.253105
vt 0.597499 0.253510
vt 0.685999 0.249217
vt 0.676698 0.046692
vt 0.487988 0.270843
vt 0.694732 0.072728
vt 0.868624 0.434281
vt 0.815014 0.444482
vt 0.808349 0.438288
vt 0.866147 0.427935
vt 0.767407 0.463441
vt 0.753449 0.458875
vt 0.703990 0.631068
vt 0.755853 0.637439
vt 0.754592 0.643415
vt 0.697178 0.636316
vt 0.973164 0.437398
vt 0.921805 0.432115
vt 0.922696 0.426271
vt 0.979412 0.432142
vt 0.810496 0.635843
vt 0.812716 0.642273
vt 0.864116 0.626355
vt 0.910498 0.608710
vt 0.923510 0.613234
vt 0.870381 0.632487
vt 0.586280 0.443957
vt 0.645404 0.458187
vt 0.590841 0.483498
vt 0.580709 0.481158
vt 0.644012 0.519779
vt 0.583291 0.533353
vt 0.580296 0.495885
vt 0.590542 0.493720
vt 0.580296 0.488531
vt 0.594880 0.488636
vt 0.594806 0.578393
vt 0.580296 0.578303
vt 0.580690 0.570971
vt 0.590779 0.573272
vt 0.580296 0.585636
vt 0.590535 0.583481
vt 0.760313 0.519416
vt 0.788373 0.515183
vt 0.793057 0.523442
vt 0.763658 0.527057
vt 0.902998 0.554747
vt 0.874336 0.561994
vt 0.859215 0.552297
vt 0.896802 0.546502
vt 0.728157 0.505854
vt 0.753740 0.503945
vt 0.755592 0.508023
vt 0.729100 0.510137
vt 0.700867 0.522153
vt 0.731354 0.521371
vt 0.733900 0.530110
vt 0.695422 0.532652
vt 0.957727 0.545559
vt 0.930146 0.549574
vt 0.925378 0.541458
vt 0.954480 0.537875
vt 0.702057 0.506969
vt 0.703202 0.511146
vt 0.778562 0.500111
vt 0.803247 0.495563
vt 0.805778 0.499497
vt 0.781347 0.504243
vt 0.989386 0.558304
vt 0.964374 0.560765
vt 0.962483 0.556630
vt 0.987394 0.554324
vt 0.717309 0.555365
vt 0.744138 0.551615
vt 0.746594 0.556488
vt 0.719995 0.559818
vt 0.921979 0.535716
vt 0.950582 0.531190
vt 0.766343 0.533118
vt 0.736924 0.536916
vt 0.830717 0.519291
vt 0.828791 0.527884
vt 0.796065 0.530404
vt 0.643642 0.609628
vt 0.583015 0.623022
vt 0.892564 0.539625
vt 0.914003 0.521161
vt 0.885949 0.525126
vt 0.883302 0.520273
vt 0.911160 0.516260
vt 0.991038 0.533775
vt 0.982084 0.525560
vt 0.987482 0.543656
vt 0.858779 0.528252
vt 0.856936 0.523731
vt 0.939806 0.564257
vt 0.937063 0.560329
vt 0.817633 0.509272
vt 0.915707 0.569435
vt 0.891582 0.575247
vt 0.888254 0.571386
vt 0.912069 0.565418
vt 0.907211 0.560001
vt 0.882337 0.566527
vt 0.959707 0.550965
vt 0.933230 0.554795
vt 0.703138 0.516619
vt 0.730582 0.515958
vt 0.986337 0.549045
vt 0.758258 0.513855
vt 0.785125 0.509813
vt 0.810646 0.504513
vt 0.859841 0.543426
vt 0.772357 0.548062
vt 0.774616 0.553052
vt 0.967532 0.512462
vt 0.941587 0.516850
vt 0.938618 0.512102
vt 0.964469 0.508142
vt 0.800720 0.544984
vt 0.802763 0.549874
vt 0.827917 0.542737
vt 0.829212 0.547243
vt 0.703700 0.541517
vt 0.740074 0.543899
vt 0.769023 0.540187
vt 0.798148 0.537241
vt 0.889525 0.532820
vt 0.860226 0.535728
vt 0.918337 0.528855
vt 0.974009 0.519098
vt 0.946548 0.524359
vt 0.711335 0.548426
vt 0.827394 0.535370
vt 0.669351 0.489094
vt 0.851798 0.577925
vt 0.823500 0.584793
vt 0.791720 0.589736
vt 0.758890 0.592354
vt 0.858824 0.485808
vt 0.890284 0.480105
vt 0.830925 0.493462
vt 0.922688 0.476751
vt 0.954181 0.475705
vt 0.669184 0.579132
vt 0.585873 0.533632
vt 0.645699 0.548080
vt 0.727070 0.592627
vt 0.837983 0.464522
vt 0.803394 0.477296
vt 0.920411 0.453816
vt 0.878664 0.456010
vt 0.720247 0.612741
vt 0.759105 0.615486
vt 0.958918 0.455666
vt 0.801462 0.613982
vt 0.842354 0.606284
vt 0.877207 0.594564
vt 0.874933 0.636789
vt 0.814676 0.647498
vt 0.747561 0.454424
vt 0.803303 0.433492
vt 0.753675 0.647867
vt 0.928901 0.617534
vt 0.864338 0.423099
vt 0.923304 0.421925
vt 0.695422 0.641353
vt 0.980743 0.427183
vt 0.406905 0.816982
vt 0.349274 0.796914
vt 0.359199 0.387599
vt 0.399268 0.387406
vt 0.328200 0.964753
vt 0.248199 0.989611
vt 0.264001 0.943068
vt 0.331957 0.942650
vt 0.339146 0.891064
vt 0.274845 0.891434
vt 0.281265 0.812864
vt 0.410041 0.993420
vt 0.409314 0.952515
vt 0.408379 0.899901
vt 0.408847 0.926214
vt 0.335563 0.916856
vt 0.270785 0.917226
vt 0.309570 0.387457
vt 0.369557 0.276365
vt 0.333125 0.278651
vt 0.377322 0.167841
vt 0.392946 0.136865
vt 0.397019 0.260899
vt 0.394770 0.134390
vt 0.397255 0.274165
vt 0.368402 0.288032
vt 0.320155 0.337616
vt 0.041037 0.933168
vt 0.034250 0.882216
vt 0.077964 0.882023
vt 0.078852 0.932523
vt 0.078401 0.974366
vt 0.079493 0.968938
vt 0.439338 0.387243
vt 0.463813 0.796405
vt 0.490851 0.964030
vt 0.486308 0.941964
vt 0.554268 0.941778
vt 0.571723 0.988174
vt 0.477287 0.890450
vt 0.532378 0.811748
vt 0.541590 0.890248
vt 0.481786 0.916206
vt 0.546567 0.916000
vt 0.488954 0.386660
vt 0.425027 0.276118
vt 0.396682 0.136849
vt 0.413406 0.167681
vt 0.461535 0.278080
vt 0.426597 0.287773
vt 0.476599 0.336920
vt 0.039244 0.831211
vt 0.077076 0.831523
vt 0.075152 0.789691
vt 0.076435 0.795109
vt 0.171228 0.180789
vt 0.178864 0.610365
vt 0.138795 0.610529
vt 0.114320 0.201366
vt 0.087282 0.033742
vt 0.091825 0.055807
vt 0.023864 0.055993
vt 0.006410 0.009598
vt 0.100846 0.107321
vt 0.045754 0.186024
vt 0.036542 0.107523
vt 0.168091 0.004351
vt 0.168818 0.045256
vt 0.096347 0.081566
vt 0.169286 0.071558
vt 0.169754 0.097871
vt 0.031566 0.081771
vt 0.089179 0.611111
vt 0.153105 0.721653
vt 0.181450 0.860923
vt 0.164727 0.830091
vt 0.116598 0.719691
vt 0.181113 0.736872
vt 0.183362 0.863382
vt 0.180877 0.723606
vt 0.151536 0.709998
vt 0.101534 0.660851
vt 0.116684 0.932835
vt 0.121678 0.881831
vt 0.080776 0.974356
vt 0.228858 0.200857
vt 0.218933 0.610173
vt 0.249933 0.033019
vt 0.329934 0.008160
vt 0.314131 0.054703
vt 0.246175 0.055121
vt 0.238987 0.106707
vt 0.303287 0.106338
vt 0.296867 0.184908
vt 0.242569 0.080916
vt 0.307347 0.080546
vt 0.268562 0.610314
vt 0.208575 0.721407
vt 0.245007 0.719121
vt 0.200811 0.829930
vt 0.185186 0.860906
vt 0.209730 0.709740
vt 0.257977 0.660156
vt 0.114891 0.830879
vt 0.077527 0.789680
s 1
usemtl blood_sword
f 70/1/70 4/2/4 2/3/2 69/4/69
f 11/5/11 8/6/8 9/7/9 12/8/12
f 12/8/12 9/7/9 7/9/7 13/10/13
f 66/11/66 1/12/1 5/13/5 68/14/68
f 3/15/3 10/16/10 13/10/13 7/9/7
f 67/17/67 12/8/12 13/10/13 68/14/68
f 70/1/70 11/5/11 12/8/12 67/17/67
f 66/11/66 10/16/10 19/18/19 74/19/74
f 75/20/75 50/21/50 16/22/16 72/23/72
f 73/24/73 21/25/21 20/26/20 74/19/74
f 73/24/73 18/27/18 15/28/15 71/29/71
f 50/21/50 15/28/15 27/30/27 56/31/56
f 57/32/57 32/33/32 25/34/25 53/35/53
f 54/36/54 30/37/30 31/38/31 55/39/55
f 55/39/55 31/38/31 29/40/29 56/31/56
f 54/36/54 26/41/26 22/42/22 51/43/51
f 51/43/51 22/42/22 32/33/32 57/32/57
f 59/44/59 36/45/36 35/46/35 58/47/58
f 52/48/52 17/49/17 36/45/36 59/44/59
f 61/50/61 40/51/40 39/52/39 60/53/60
f 58/47/58 35/46/35 40/51/40 61/50/61
f 63/54/63 44/55/44 43/56/43 62/57/62
f 60/53/60 39/52/39 44/55/44 63/54/63
f 65/58/65 48/59/48 47/60/47 64/61/64
f 62/57/62 43/56/43 48/59/48 65/58/65
f 42/62/42 62/57/62 65/58/65 49/63/49
f 49/63/49 65/58/65 64/61/64 46/64/46
f 38/65/38 60/53/60 63/54/63 45/66/45
f 45/66/45 63/54/63 62/57/62 42/62/42
f 34/67/34 58/47/58 61/50/61 41/68/41
f 41/68/41 61/50/61 60/53/60 38/65/38
f 14/69/14 52/48/52 59/44/59 37/70/37
f 37/70/37 59/44/59 58/47/58 34/67/34
f 23/71/23 51/43/51 57/32/57 33/72/33
f 30/37/30 54/36/54 51/43/51 23/71/23
f 28/73/28 55/39/55 56/31/56 27/30/27
f 26/41/26 54/36/54 55/39/55 28/73/28
f 33/72/33 57/32/57 53/35/53 24/74/24
f 16/22/16 50/21/50 56/31/56 29/40/29
f 71/29/71 15/28/15 50/21/50 75/20/75
f 14/69/14 71/29/71 75/20/75 52/48/52
f 21/25/21 73/24/73 71/29/71 14/69/14
f 18/27/18 73/24/73 74/19/74 19/18/19
f 52/48/52 75/20/75 72/23/72 17/49/17
f 1/12/1 66/11/66 74/19/74 20/26/20
f 4/2/4 70/1/70 67/17/67 6/75/6
f 6/75/6 67/17/67 68/14/68 5/13/5
f 10/16/10 66/11/66 68/14/68 13/10/13
f 10/76/10 3/77/3 76/78/76 77/79/77
f 143/80/143 142/81/142 79/82/79 80/83/80
f 84/84/84 85/85/85 9/7/9 8/6/8
f 85/85/85 86/86/86 7/9/7 9/7/9
f 139/87/139 141/88/141 81/89/81 78/90/78
f 3/15/3 7/9/7 86/86/86 83/91/83
f 140/92/140 141/88/141 86/86/86 85/85/85
f 143/80/143 140/92/140 85/85/85 84/84/84
f 139/87/139 147/93/147 92/94/92 83/91/83
f 148/95/148 145/96/145 89/97/89 123/98/123
f 146/99/146 147/93/147 93/100/93 94/101/94
f 146/99/146 144/102/144 88/103/88 91/104/91
f 123/98/123 129/105/129 100/106/100 88/103/88
f 130/107/130 126/108/126 98/109/98 105/110/105
f 127/111/127 128/112/128 104/113/104 103/114/103
f 128/112/128 129/105/129 102/115/102 104/113/104
f 127/111/127 124/116/124 95/117/95 99/118/99
f 124/116/124 130/107/130 105/110/105 95/117/95
f 132/119/132 131/120/131 108/121/108 109/122/109
f 125/123/125 132/119/132 109/122/109 90/124/90
f 134/125/134 133/126/133 112/127/112 113/128/113
f 131/120/131 134/125/134 113/128/113 108/121/108
f 136/129/136 135/130/135 116/131/116 117/132/117
f 133/126/133 136/129/136 117/132/117 112/127/112
f 138/133/138 137/134/137 120/135/120 121/136/121
f 135/130/135 138/133/138 121/136/121 116/131/116
f 115/137/115 122/138/122 138/133/138 135/130/135
f 122/138/122 119/139/119 137/134/137 138/133/138
f 111/140/111 118/141/118 136/129/136 133/126/133
f 118/141/118 115/137/115 135/130/135 136/129/136
f 107/142/107 114/143/114 134/125/134 131/120/131
f 114/143/114 111/140/111 133/126/133 134/125/134
f 87/144/87 110/145/110 132/119/132 125/123/125
f 110/145/110 107/142/107 131/120/131 132/119/132
f 96/146/96 106/147/106 130/107/130 124/116/124
f 103/114/103 96/146/96 124/116/124 127/111/127
f 101/148/101 100/106/100 129/105/129 128/112/128
f 99/118/99 101/148/101 128/112/128 127/111/127
f 106/147/106 97/149/97 126/108/126 130/107/130
f 89/97/89 102/115/102 129/105/129 123/98/123
f 144/102/144 148/95/148 123/98/123 88/103/88
f 87/144/87 125/123/125 148/95/148 144/102/144
f 94/101/94 87/144/87 144/102/144 146/99/146
f 91/104/91 92/94/92 147/93/147 146/99/146
f 125/123/125 90/124/90 145/96/145 148/95/148
f 78/90/78 93/100/93 147/93/147 139/87/139
f 80/83/80 82/150/82 140/92/140 143/80/143
f 82/150/82 81/89/81 141/88/141 140/92/140
f 83/91/83 86/86/86 141/88/141 139/87/139
f 83/151/83 149/152/149 76/78/76 3/77/3
f 176/153/176 175/154/175 2/155/2 4/156/4
f 155/157/155 156/158/156 153/159/153 152/160/152
f 156/158/156 157/161/157 151/162/151 153/159/153
f 172/163/172 174/164/174 5/165/5 1/166/1
f 150/167/150 151/162/151 157/161/157 154/168/154
f 173/169/173 174/164/174 157/161/157 156/158/156
f 176/153/176 173/169/173 156/158/156 155/157/155
f 172/163/172 179/170/179 19/171/19 154/168/154
f 180/172/180 72/173/72 16/174/16 158/175/158
f 178/176/178 179/170/179 20/177/20 21/178/21
f 178/176/178 177/179/177 15/180/15 18/181/18
f 158/175/158 163/182/163 27/183/27 15/180/15
f 164/184/164 53/185/53 25/186/25 32/187/32
f 161/188/161 162/189/162 31/190/31 30/191/30
f 162/189/162 163/182/163 29/192/29 31/190/31
f 161/188/161 159/193/159 22/194/22 26/195/26
f 159/193/159 164/184/164 32/187/32 22/194/22
f 166/196/166 165/197/165 35/198/35 36/199/36
f 160/200/160 166/196/166 36/199/36 17/201/17
f 168/202/168 167/203/167 39/204/39 40/205/40
f 165/197/165 168/202/168 40/205/40 35/198/35
f 170/206/170 169/207/169 43/208/43 44/209/44
f 167/203/167 170/206/170 44/209/44 39/204/39
f 171/210/171 64/211/64 47/212/47 48/213/48
f 169/207/169 171/210/171 48/213/48 43/208/43
f 42/214/42 49/215/49 171/210/171 169/207/169
f 49/215/49 46/216/46 64/211/64 171/210/171
f 38/217/38 45/218/45 170/206/170 167/203/167
f 45/218/45 42/214/42 169/207/169 170/206/170
f 34/219/34 41/220/41 168/202/168 165/197/165
f 41/220/41 38/217/38 167/203/167 168/202/168
f 14/221/14 37/222/37 166/196/166 160/200/160
f 37/222/37 34/219/34 165/197/165 166/196/166
f 23/223/23 33/224/33 164/184/164 159/193/159
f 30/191/30 23/223/23 159/193/159 161/188/161
f 28/225/28 27/183/27 163/182/163 162/189/162
f 26/195/26 28/225/28 162/189/162 161/188/161
f 33/224/33 24/226/24 53/185/53 164/184/164
f 16/174/16 29/192/29 163/182/163 158/175/158
f 177/179/177 180/172/180 158/175/158 15/180/15
f 14/221/14 160/200/160 180/172/180 177/179/177
f 21/178/21 14/221/14 177/179/177 178/176/178
f 18/181/18 19/171/19 179/170/179 178/176/178
f 160/200/160 17/201/17 72/173/72 180/172/180
f 1/166/1 20/177/20 179/170/179 172/163/172
f 4/156/4 6/227/6 173/169/173 176/153/176
f 6/227/6 5/165/5 174/164/174 173/169/173
f 154/168/154 157/161/157 174/164/174 172/163/172
f 154/228/154 77/79/77 76/78/76 150/229/150
f 203/230/203 80/231/80 79/232/79 202/233/202
f 182/234/182 152/160/152 153/159/153 183/235/183
f 183/235/183 153/159/153 151/162/151 184/236/184
f 199/237/199 78/238/78 81/239/81 201/240/201
f 150/167/150 181/241/181 184/236/184 151/162/151
f 200/242/200 183/235/183 184/236/184 201/240/201
f 203/230/203 182/234/182 183/235/183 200/242/200
f 199/237/199 181/241/181 92/243/92 206/244/206
f 207/245/207 185/246/185 89/247/89 145/248/145
f 205/249/205 94/250/94 93/251/93 206/244/206
f 205/249/205 91/252/91 88/253/88 204/254/204
f 185/246/185 88/253/88 100/255/100 190/256/190
f 191/257/191 105/258/105 98/259/98 126/260/126
f 188/261/188 103/262/103 104/263/104 189/264/189
f 189/264/189 104/263/104 102/265/102 190/256/190
f 188/261/188 99/266/99 95/267/95 186/268/186
f 186/268/186 95/267/95 105/258/105 191/257/191
f 193/269/193 109/270/109 108/271/108 192/272/192
f 187/273/187 90/274/90 109/270/109 193/269/193
f 195/275/195 113/276/113 112/277/112 194/278/194
f 192/272/192 108/271/108 113/276/113 195/275/195
f 197/279/197 117/280/117 116/281/116 196/282/196
f 194/278/194 112/277/112 117/280/117 197/279/197
f 198/283/198 121/284/121 120/285/120 137/286/137
f 196/282/196 116/281/116 121/284/121 198/283/198
f 115/287/115 196/282/196 198/283/198 122/288/122
f 122/288/122 198/283/198 137/286/137 119/289/119
f 111/290/111 194/278/194 197/279/197 118/291/118
f 118/291/118 197/279/197 196/282/196 115/287/115
f 107/292/107 192/272/192 195/275/195 114/293/114
f 114/293/114 195/275/195 194/278/194 111/290/111
f 87/294/87 187/273/187 193/269/193 110/295/110
f 110/295/110 193/269/193 192/272/192 107/292/107
f 96/296/96 186/268/186 191/257/191 106/297/106
f 103/262/103 188/261/188 186/268/186 96/296/96
f 101/298/101 189/264/189 190/256/190 100/255/100
f 99/266/99 188/261/188 189/264/189 101/298/101
f 106/297/106 191/257/191 126/260/126 97/299/97
f 89/247/89 185/246/185 190/256/190 102/265/102
f 204/254/204 88/253/88 185/246/185 207/245/207
f 87/294/87 204/254/204 207/245/207 187/273/187
f 94/250/94 205/249/205 204/254/204 87/294/87
f 91/252/91 205/249/205 206/244/206 92/243/92
f 187/273/187 207/245/207 145/248/145 90/274/90
f 78/238/78 199/237/199 206/244/206 93/251/93
f 80/231/80 203/230/203 200/242/200 82/300/82
f 82/300/82 200/242/200 201/240/201 81/239/81
f 181/241/181 199/237/199 201/240/201 184/236/184
f 181/301/181 150/229/150 76/78/76 149/152/149
f 10/76/10 77/79/77 154/228/154 19/302/19
f 83/151/83 92/303/92 181/301/181 149/152/149
f 231/304/231 221/305/221 211/306/211 225/307/225
f 229/308/229 217/309/217 215/310/215 226/311/226
f 230/312/230 223/313/223 213/314/213 227/315/227
f 228/316/228 219/317/219 209/318/209 224/319/224
f 227/315/227 213/314/213 219/317/219 228/316/228
f 225/307/225 211/306/211 217/309/217 229/308/229
f 226/311/226 215/310/215 223/320/223 230/321/230
f 224/319/224 209/318/209 221/322/221 231/323/231
f 239/324/239 246/325/246 249/326/249 251/327/251
f 241/328/241 229/308/229 226/311/226 234/329/234
f 245/330/245 231/304/231 225/307/225 232/331/232
f 243/332/243 230/312/230 227/315/227 236/333/236
f 208/334/208 247/335/247 244/336/244 220/337/220
f 218/338/218 238/339/238 247/335/247 208/334/208
f 212/340/212 237/341/237 238/339/238 218/338/218
f 214/342/214 235/343/235 242/344/242 222/345/222
f 232/331/232 225/307/225 229/308/229 241/328/241
f 234/329/234 226/311/226 230/321/230 243/346/243
f 236/333/236 227/315/227 228/316/228 239/324/239
f 239/324/239 228/316/228 224/319/224 246/325/246
f 222/347/222 242/348/242 237/341/237 212/340/212
f 220/349/220 244/350/244 233/351/233 210/352/210
f 216/353/216 240/354/240 235/343/235 214/342/214
f 246/325/246 224/319/224 231/323/231 245/355/245
f 293/356/293 273/357/273 244/358/244 247/359/247
f 267/360/267 263/361/263 305/362/305 296/363/296
f 232/331/232 241/328/241 264/364/264 266/365/266
f 257/366/257 254/367/254 300/368/300 307/369/307
f 304/370/304 299/371/299 282/372/282 278/373/278
f 252/374/252 248/375/248 310/376/310 303/377/303
f 236/333/236 239/324/239 251/327/251 255/378/255
f 248/375/248 269/379/269 309/380/309 310/376/310
f 243/332/243 236/333/236 255/378/255 258/381/258
f 291/382/291 293/356/293 247/359/247 238/383/238
f 245/330/245 232/331/232 266/365/266 270/384/270
f 279/385/279 281/386/281 235/387/235 240/388/240
f 234/329/234 243/346/243 258/389/258 260/390/260
f 285/391/285 287/392/287 237/393/237 242/394/242
f 246/325/246 245/355/245 270/395/270 249/326/249
f 263/361/263 261/396/261 298/397/298 305/362/305
f 210/352/210 233/351/233 240/354/240 216/353/216
f 241/328/241 234/329/234 260/390/260 264/364/264
f 308/398/308 297/399/297 276/400/276 272/401/272
f 306/402/306 301/403/301 288/404/288 284/405/284
f 302/406/302 311/407/311 294/408/294 290/409/290
f 301/403/301 302/406/302 290/409/290 288/404/288
f 299/371/299 306/410/306 284/411/284 282/372/282
f 297/399/297 304/370/304 278/373/278 276/400/276
f 273/412/273 275/413/275 233/414/233 244/415/244
f 281/386/281 285/416/285 242/417/242 235/387/235
f 275/413/275 279/385/279 240/388/240 233/414/233
f 287/392/287 291/382/291 238/383/238 237/393/237
f 254/367/254 252/374/252 303/377/303 300/368/300
f 261/396/261 257/418/257 307/419/307 298/397/298
f 267/360/267 269/420/269 271/421/271 268/422/268
f 268/422/268 271/421/271 270/384/270 266/365/266
f 252/374/252 254/367/254 256/423/256 253/424/253
f 253/424/253 256/423/256 255/378/255 251/327/251
f 269/379/269 248/375/248 250/425/250 271/426/271
f 271/426/271 250/425/250 249/326/249 270/395/270
f 261/396/261 263/361/263 265/427/265 262/428/262
f 262/428/262 265/427/265 264/364/264 260/390/260
f 263/361/263 267/360/267 268/422/268 265/427/265
f 265/427/265 268/422/268 266/365/266 264/364/264
f 254/367/254 257/366/257 259/429/259 256/423/256
f 256/423/256 259/429/259 258/381/258 255/378/255
f 257/418/257 261/396/261 262/428/262 259/430/259
f 259/430/259 262/428/262 260/390/260 258/389/258
f 248/375/248 252/374/252 253/424/253 250/425/250
f 250/425/250 253/424/253 251/327/251 249/326/249
f 273/357/273 293/356/293 295/431/295 274/432/274
f 274/432/274 295/431/295 294/408/294 272/433/272
f 285/416/285 281/386/281 283/434/283 286/435/286
f 286/435/286 283/434/283 282/372/282 284/411/284
f 279/385/279 275/413/275 277/436/277 280/437/280
f 280/437/280 277/436/277 276/400/276 278/373/278
f 291/382/291 287/392/287 289/438/289 292/439/292
f 292/439/292 289/438/289 288/404/288 290/409/290
f 293/356/293 291/382/291 292/439/292 295/431/295
f 295/431/295 292/439/292 290/409/290 294/408/294
f 287/392/287 285/391/285 286/440/286 289/438/289
f 289/438/289 286/440/286 284/405/284 288/404/288
f 281/386/281 279/385/279 280/437/280 283/434/283
f 283/434/283 280/437/280 278/373/278 282/372/282
f 275/413/275 273/412/273 274/441/274 277/436/277
f 277/436/277 274/441/274 272/401/272 276/400/276
f 311/407/311 308/442/308 272/433/272 294/408/294
f 297/399/297 308/398/308 309/443/309 296/363/296
f 299/371/299 304/370/304 305/362/305 298/397/298
f 301/403/301 306/402/306 307/369/307 300/368/300
f 311/407/311 302/406/302 303/377/303 310/376/310
f 302/406/302 301/403/301 300/368/300 303/377/303
f 304/370/304 297/399/297 296/363/296 305/362/305
f 306/410/306 299/371/299 298/397/298 307/419/307
f 308/442/308 311/407/311 310/376/310 309/380/309
f 269/420/269 267/360/267 296/363/296 309/443/309
f 386/444/385 394/445/393 416/446/415 421/447/420
f 394/445/393 407/448/406 423/449/422 416/446/415
f 407/450/406 392/451/391 420/452/419 423/453/422
f 400/454/399 397/455/396 414/456/413 411/457/410
f 392/451/391 403/458/402 410/459/409 420/452/419
f 389/460/388 400/461/399 411/462/410 417/463/416
f 424/464/423 419/465/418 314/466/314 319/467/319
f 418/468/417 412/469/411 318/470/318 312/471/312
f 312/471/312 318/470/318 320/472/76 317/473/317
f 316/474/316 320/475/76 318/476/318 313/477/313
f 317/473/317 320/472/76 319/467/319 314/466/314
f 319/478/319 320/475/76 316/474/316 315/479/315
f 346/480/345 359/481/358 328/482/327 327/483/326
f 337/484/336 350/485/349 322/486/321 321/487/320
f 212/488/212 218/489/218 347/490/346 355/491/354
f 350/492/349 356/493/355 325/494/324 322/495/321
f 340/496/339 353/497/352 324/498/323 323/499/322
f 222/500/222 212/488/212 355/491/354 349/501/348
f 208/502/208 220/503/220 344/504/343 358/505/357
f 220/506/220 210/507/210 341/508/340 344/509/343
f 371/510/370 364/511/363 331/512/330 329/513/328
f 323/499/322 324/498/323 368/514/367 379/515/378
f 325/494/324 327/483/326 373/516/372 365/517/364
f 328/482/327 326/518/325 377/519/376 361/520/360
f 415/521/414 424/522/423 319/478/319 315/479/315
f 324/498/323 321/487/320 383/523/382 368/514/367
f 367/524/366 382/525/381 333/526/332 330/527/329
f 326/528/325 323/499/322 379/515/378 377/529/376
f 353/497/352 337/484/336 321/487/320 324/498/323
f 343/530/342 340/496/339 323/499/322 326/528/325
f 382/525/381 371/531/370 329/532/328 333/526/332
f 210/507/210 216/533/216 352/534/351 341/508/340
f 356/493/355 346/480/345 327/483/326 325/494/324
f 359/481/358 343/535/342 326/518/325 328/482/327
f 214/536/214 222/537/222 349/538/348 338/539/337
f 218/489/218 208/502/208 358/505/357 347/490/346
f 350/485/349 337/484/336 339/540/338 351/541/350
f 351/541/350 339/540/338 338/539/337 349/538/348
f 353/497/352 340/496/339 342/542/341 354/543/353
f 354/543/353 342/542/341 341/508/340 352/534/351
f 356/493/355 350/492/349 351/544/350 357/545/356
f 357/545/356 351/544/350 349/501/348 355/491/354
f 340/496/339 343/530/342 345/546/344 342/542/341
f 342/542/341 345/546/344 344/509/343 341/508/340
f 359/481/358 346/480/345 348/547/347 360/548/359
f 360/548/359 348/547/347 347/490/346 358/505/357
f 343/535/342 359/481/358 360/548/359 345/549/344
f 345/549/344 360/548/359 358/505/357 344/504/343
f 337/484/336 353/497/352 354/543/353 339/540/338
f 339/540/338 354/543/353 352/534/351 338/539/337
f 346/480/345 356/493/355 357/545/356 348/547/347
f 348/547/347 357/545/356 355/491/354 347/490/346
f 216/533/216 214/536/214 338/539/337 352/534/351
f 321/487/320 322/486/321 370/550/369 383/523/382
f 364/511/363 374/551/373 336/552/335 331/512/330
f 376/553/375 380/554/379 334/555/333 335/556/334
f 374/551/373 362/557/361 332/558/331 336/552/335
f 362/557/361 376/559/375 335/560/334 332/558/331
f 380/554/379 367/524/366 330/527/329 334/555/333
f 322/495/321 325/494/324 365/517/364 370/561/369
f 374/551/373 364/511/363 366/562/365 375/563/374
f 375/563/374 366/562/365 365/517/364 373/516/372
f 362/557/361 374/551/373 375/563/374 363/564/362
f 363/564/362 375/563/374 373/516/372 361/520/360
f 371/531/370 382/525/381 384/565/383 372/566/371
f 372/566/371 384/565/383 383/523/382 370/550/369
f 382/525/381 367/524/366 369/567/368 384/565/383
f 384/565/383 369/567/368 368/514/367 383/523/382
f 380/554/379 376/553/375 378/568/377 381/569/380
f 381/569/380 378/568/377 377/529/376 379/515/378
f 364/511/363 371/510/370 372/570/371 366/562/365
f 366/562/365 372/570/371 370/561/369 365/517/364
f 376/559/375 362/557/361 363/564/362 378/571/377
f 378/571/377 363/564/362 361/520/360 377/519/376
f 367/524/366 380/554/379 381/569/380 369/567/368
f 369/567/368 381/569/380 379/515/378 368/514/367
f 327/483/326 328/482/327 361/520/360 373/516/372
f 409/572/408 418/468/417 312/471/312 317/473/317
f 332/558/331 335/560/334 401/573/400 388/574/387
f 331/512/330 336/552/335 404/575/403 391/576/390
f 330/527/329 333/526/332 395/577/394 385/578/384
f 333/526/332 329/532/328 406/579/405 395/577/394
f 335/556/334 334/555/333 398/580/397 401/581/400
f 422/582/421 415/521/414 315/479/315 316/474/316
f 419/465/418 409/572/408 317/473/317 314/466/314
f 397/455/396 386/444/385 421/447/420 414/456/413
f 412/583/411 413/584/412 313/477/313 318/476/318
f 336/552/335 332/558/331 388/574/387 404/575/403
f 334/555/333 330/527/329 385/578/384 398/580/397
f 329/513/328 331/512/330 391/576/390 406/585/405
f 407/448/406 394/445/393 396/586/395 408/587/407
f 408/587/407 396/586/395 395/577/394 406/579/405
f 386/444/385 397/455/396 399/588/398 387/589/386
f 387/589/386 399/588/398 398/580/397 385/578/384
f 392/451/391 407/450/406 408/590/407 393/591/392
f 393/591/392 408/590/407 406/585/405 391/576/390
f 397/455/396 400/454/399 402/592/401 399/588/398
f 399/588/398 402/592/401 401/581/400 398/580/397
f 389/460/388 403/458/402 405/593/404 390/594/389
f 390/594/389 405/593/404 404/575/403 388/574/387
f 400/461/399 389/460/388 390/594/389 402/595/401
f 402/595/401 390/594/389 388/574/387 401/573/400
f 394/445/393 386/444/385 387/589/386 396/586/395
f 396/586/395 387/589/386 385/578/384 395/577/394
f 403/458/402 392/451/391 393/591/392 405/593/404
f 405/593/404 393/591/392 391/576/390 404/575/403
f 413/584/412 422/582/421 316/474/316 313/477/313
f 418/596/417 409/597/408 410/459/409 417/463/416
f 424/598/423 415/599/414 416/446/415 423/449/422
f 409/597/408 419/600/418 420/452/419 410/459/409
f 412/601/411 418/596/417 417/463/416 411/462/410
f 422/602/421 413/603/412 414/456/413 421/447/420
f 419/600/418 424/604/423 423/453/422 420/452/419
f 415/599/414 422/602/421 421/447/420 416/446/415
f 413/603/412 412/605/411 411/457/410 414/456/413
f 403/458/402 389/460/388 417/463/416 410/459/409
f 430/606/429 425/607/424 433/608/432 431/609/430
f 427/610/426 426/611/425 438/612/437 434/613/433
f 435/614/434 437/615/436 428/616/427 425/607/424
f 429/617/428 427/610/426 434/613/433 440/618/439
f 435/614/434 441/619/440 442/620/228 436/621/435
f 436/621/435 442/620/228 440/618/439 434/613/433
f 437/615/436 435/614/434 436/621/435 439/622/438
f 439/622/438 436/621/435 434/613/433 438/612/437
f 441/619/440 435/614/434 425/607/424 430/606/429
f 425/607/424 428/616/427 432/623/431 433/608/432
f 447/624/445 446/625/444 444/626/442 445/627/443
f 448/628/446 447/624/445 445/627/443 443/629/441
f 450/630/448 449/631/447 447/624/445 448/628/446
f 449/631/447 451/632/449 446/625/444 447/624/445
f 433/608/432 432/623/431 451/632/449 449/631/447
f 431/609/430 433/608/432 449/631/447 450/630/448
f 427/633/426 429/634/428 454/635/76 453/636/451
f 426/637/425 427/633/426 453/636/451 452/638/450
f 430/606/429 431/609/430 460/639/457 455/640/452
f 457/641/454 461/642/458 465/643/462 456/644/453
f 462/645/459 455/640/452 458/646/455 464/647/461
f 429/617/428 440/618/439 461/642/458 457/641/454
f 462/645/459 463/648/460 442/620/228 441/619/440
f 463/648/460 461/642/458 440/618/439 442/620/228
f 464/647/461 466/649/463 463/648/460 462/645/459
f 466/649/463 465/643/462 461/642/458 463/648/460
f 441/619/440 430/606/429 455/640/452 462/645/459
f 455/640/452 460/639/457 459/650/456 458/646/455
f 470/651/467 468/652/465 467/653/464 469/654/466
f 448/628/446 443/629/441 468/652/465 470/651/467
f 450/630/448 448/628/446 470/651/467 471/655/468
f 471/655/468 470/651/467 469/654/466 472/656/469
f 460/639/457 471/655/468 472/656/469 459/650/456
f 431/609/430 450/630/448 471/655/468 460/639/457
f 457/657/454 474/658/471 454/635/76 429/634/428
f 456/659/453 473/660/470 474/658/471 457/657/454
f 478/661/475 479/662/476 480/663/477 475/664/472
f 476/665/473 481/666/478 438/667/437 426/668/425
f 482/669/479 475/664/472 428/670/427 437/671/436
f 477/672/474 484/673/481 481/666/478 476/665/473
f 482/669/479 483/674/480 486/675/229 485/676/482
f 483/674/480 481/666/478 484/673/481 486/675/229
f 437/671/436 439/677/438 483/674/480 482/669/479
f 439/677/438 438/667/437 481/666/478 483/674/480
f 485/676/482 478/661/475 475/664/472 482/669/479
f 475/664/472 480/663/477 432/678/431 428/670/427
f 487/679/483 445/680/443 444/681/442 446/682/444
f 488/683/484 443/684/441 445/680/443 487/679/483
f 490/685/486 488/683/484 487/679/483 489/686/485
f 489/686/485 487/679/483 446/682/444 451/687/449
f 480/663/477 489/686/485 451/687/449 432/678/431
f 479/662/476 490/685/486 489/686/485 480/663/477
f 476/688/473 453/636/451 454/635/76 477/689/474
f 426/690/425 452/638/450 453/636/451 476/688/473
f 478/661/475 491/691/487 493/692/489 479/662/476
f 492/693/488 456/694/453 465/695/462 494/696/490
f 495/697/491 464/698/461 458/699/455 491/691/487
f 477/672/474 492/693/488 494/696/490 484/673/481
f 495/697/491 485/676/482 486/675/229 496/700/492
f 496/700/492 486/675/229 484/673/481 494/696/490
f 464/698/461 495/697/491 496/700/492 466/701/463
f 466/701/463 496/700/492 494/696/490 465/695/462
f 485/676/482 495/697/491 491/691/487 478/661/475
f 491/691/487 458/699/455 459/702/456 493/692/489
f 497/703/493 469/704/466 467/705/464 468/706/465
f 488/683/484 497/703/493 468/706/465 443/684/441
f 490/685/486 498/707/494 497/703/493 488/683/484
f 498/707/494 472/708/469 469/704/466 497/703/493
f 493/692/489 459/702/456 472/708/469 498/707/494
f 479/662/476 493/692/489 498/707/494 490/685/486
f 492/709/488 477/689/474 454/635/76 474/658/471
f 456/710/453 492/709/488 474/658/471 473/660/470
