# Blender 4.4.3
# www.blender.org
mtllib blood_sword.mtl
o Plane
v 0.051161 0.181390 0.000000
v 0.070221 0.235880 0.000000
v 0.000000 0.134533 0.023948
v 0.053942 0.220344 0.000000
v 0.048179 0.204308 0.000000
v 0.049867 0.212326 0.000000
v 0.000000 0.204308 0.014970
v 0.000000 0.220344 0.019869
v 0.000000 0.212326 0.017552
v 0.034999 0.154413 0.014970
v 0.030164 0.220344 0.019869
v 0.027886 0.212326 0.017552
v 0.026942 0.204308 0.014970
v 0.080411 0.140070 0.000000
v 0.065669 0.110964 0.000000
v 0.102515 0.057453 0.000000
v 0.131032 0.095181 0.000000
v 0.055320 0.125625 0.000000
v 0.045348 0.139752 0.000000
v 0.058053 0.165779 0.000000
v 0.067823 0.151236 0.000000
v 0.066767 0.051753 0.000000
v 0.073548 0.036581 0.000000
v 0.036531 0.015370 0.000000
v 0.036231 0.016017 0.000000
v 0.071286 0.065069 0.000000
v 0.071287 0.096895 0.000000
v 0.072625 0.080081 0.000000
v 0.093561 0.051002 0.000000
v 0.081632 0.042405 0.000000
v 0.088032 0.047017 0.000000
v 0.056823 0.037476 0.000000
v 0.062214 0.029820 0.000000
v 0.093545 0.151785 0.000000
v 0.140971 0.119319 0.000000
v 0.137422 0.106185 0.000000
v 0.088398 0.144862 0.000000
v 0.094357 0.166144 0.000000
v 0.134087 0.159088 0.000000
v 0.140014 0.138848 0.000000
v 0.095213 0.158524 0.000000
v 0.087571 0.179486 0.000000
v 0.116551 0.177442 0.000000
v 0.127094 0.168265 0.000000
v 0.091804 0.172415 0.000000
v 0.070716 0.189627 0.000000
v 0.071076 0.191052 0.000000
v 0.096895 0.185445 0.000000
v 0.080428 0.185104 0.000000
v 0.084092 0.084208 0.010079
v 0.070158 0.044167 0.007145
v 0.105722 0.117625 0.010079
v 0.036381 0.015694 0.000000
v 0.076459 0.053737 0.008697
v 0.080328 0.063549 0.010079
v 0.082424 0.073949 0.010079
v 0.059518 0.033648 0.005216
v 0.117258 0.135552 0.010079
v 0.112910 0.125524 0.010079
v 0.114222 0.162616 0.008226
v 0.117613 0.148686 0.009310
v 0.102061 0.178464 0.006204
v 0.109449 0.170340 0.007361
v 0.070896 0.190339 0.000000
v 0.088661 0.185274 0.004690
v 0.043080 0.167901 0.009722
v 0.038876 0.212326 0.012304
v 0.037561 0.204308 0.009722
v 0.054744 0.235880 0.020052
v 0.042053 0.220344 0.014620
v 0.073040 0.125517 0.009722
v 0.116773 0.076317 0.000000
v 0.061571 0.138430 0.009722
v 0.051701 0.152765 0.009722
v 0.094907 0.100917 0.010079
v 0.000000 0.138403 0.000000
v 0.034999 0.158284 0.000000
v -0.051161 0.181390 0.000000
v -0.070221 0.235880 0.000000
v -0.053942 0.220344 0.000000
v -0.048179 0.204308 0.000000
v -0.049867 0.212326 0.000000
v -0.034999 0.154413 0.014970
v -0.030164 0.220344 0.019869
v -0.027886 0.212326 0.017552
v -0.026942 0.204308 0.014970
v -0.080411 0.140070 0.000000
v -0.065669 0.110964 0.000000
v -0.102515 0.057453 0.000000
v -0.131032 0.095181 0.000000
v -0.055320 0.125625 0.000000
v -0.045348 0.139752 0.000000
v -0.058053 0.165779 0.000000
v -0.067823 0.151236 0.000000
v -0.066767 0.051753 0.000000
v -0.073548 0.036581 0.000000
v -0.036531 0.015370 0.000000
v -0.036231 0.016017 0.000000
v -0.071286 0.065069 0.000000
v -0.071287 0.096895 0.000000
v -0.072625 0.080081 0.000000
v -0.093561 0.051002 0.000000
v -0.081632 0.042405 0.000000
v -0.088032 0.047017 0.000000
v -0.056823 0.037476 0.000000
v -0.062214 0.029820 0.000000
v -0.093545 0.151785 0.000000
v -0.140971 0.119319 0.000000
v -0.137422 0.106185 0.000000
v -0.088398 0.144862 0.000000
v -0.094357 0.166144 0.000000
v -0.134087 0.159088 0.000000
v -0.140014 0.138848 0.000000
v -0.095213 0.158524 0.000000
v -0.087571 0.179486 0.000000
v -0.116551 0.177442 0.000000
v -0.127094 0.168265 0.000000
v -0.091804 0.172415 0.000000
v -0.070716 0.189627 0.000000
v -0.071076 0.191052 0.000000
v -0.096895 0.185445 0.000000
v -0.080428 0.185104 0.000000
v -0.084092 0.084208 0.010079
v -0.070158 0.044167 0.007145
v -0.105722 0.117625 0.010079
v -0.036381 0.015694 0.000000
v -0.076459 0.053737 0.008697
v -0.080328 0.063549 0.010079
v -0.082424 0.073949 0.010079
v -0.059518 0.033648 0.005216
v -0.117258 0.135552 0.010079
v -0.112910 0.125524 0.010079
v -0.114222 0.162616 0.008226
v -0.117613 0.148686 0.009310
v -0.102061 0.178464 0.006204
v -0.109449 0.170340 0.007361
v -0.070896 0.190339 0.000000
v -0.088661 0.185274 0.004690
v -0.043080 0.167901 0.009722
v -0.038876 0.212326 0.012304
v -0.037561 0.204308 0.009722
v -0.054744 0.235880 0.020052
v -0.042053 0.220344 0.014620
v -0.073040 0.125517 0.009722
v -0.116773 0.076317 0.000000
v -0.061571 0.138430 0.009722
v -0.051701 0.152765 0.009722
v -0.094907 0.100917 0.010079
v -0.034999 0.158284 0.000000
v 0.000000 0.134533 -0.023948
v 0.000000 0.204308 -0.014970
v 0.000000 0.220344 -0.019869
v 0.000000 0.212326 -0.017552
v 0.034999 0.154413 -0.014970
v 0.030164 0.220344 -0.019869
v 0.027886 0.212326 -0.017552
v 0.026942 0.204308 -0.014970
v 0.084092 0.084208 -0.010079
v 0.070158 0.044167 -0.007145
v 0.105722 0.117625 -0.010079
v 0.076459 0.053737 -0.008697
v 0.080328 0.063549 -0.010079
v 0.082424 0.073949 -0.010079
v 0.059518 0.033648 -0.005216
v 0.117258 0.135552 -0.010079
v 0.112910 0.125524 -0.010079
v 0.114222 0.162616 -0.008226
v 0.117613 0.148686 -0.009310
v 0.102061 0.178464 -0.006204
v 0.109449 0.170340 -0.007361
v 0.088661 0.185274 -0.004690
v 0.043080 0.167901 -0.009722
v 0.038876 0.212326 -0.012304
v 0.037561 0.204308 -0.009722
v 0.054744 0.235880 -0.020052
v 0.042053 0.220344 -0.014620
v 0.073040 0.125517 -0.009722
v 0.061571 0.138430 -0.009722
v 0.051701 0.152765 -0.009722
v 0.094907 0.100917 -0.010079
v -0.034999 0.154413 -0.014970
v -0.030164 0.220344 -0.019869
v -0.027886 0.212326 -0.017552
v -0.026942 0.204308 -0.014970
v -0.084092 0.084208 -0.010079
v -0.070158 0.044167 -0.007145
v -0.105722 0.117625 -0.010079
v -0.076459 0.053737 -0.008697
v -0.080328 0.063549 -0.010079
v -0.082424 0.073949 -0.010079
v -0.059518 0.033648 -0.005216
v -0.117258 0.135552 -0.010079
v -0.112910 0.125524 -0.010079
v -0.114222 0.162616 -0.008226
v -0.117613 0.148686 -0.009310
v -0.102061 0.178464 -0.006204
v -0.109449 0.170340 -0.007361
v -0.088661 0.185274 -0.004690
v -0.043080 0.167901 -0.009722
v -0.038876 0.212326 -0.012304
v -0.037561 0.204308 -0.009722
v -0.054744 0.235880 -0.020052
v -0.042053 0.220344 -0.014620
v -0.073040 0.125517 -0.009722
v -0.061571 0.138430 -0.009722
v -0.051701 0.152765 -0.009722
v -0.094907 0.100917 -0.010079
v -0.009989 -0.282491 0.009989
v -0.011982 0.163383 0.011982
v -0.009989 -0.282491 -0.009989
v -0.011982 0.163383 -0.011982
v 0.009989 -0.282491 0.009989
v 0.011982 0.163383 0.011982
v 0.009989 -0.282491 -0.009989
v 0.011982 0.163383 -0.011982
v 0.000000 -0.282491 -0.014127
v -0.000000 0.163383 -0.016945
v -0.000000 -0.282491 0.014127
v 0.000000 0.163383 0.016945
v -0.014127 -0.282491 -0.000000
v -0.016945 0.163383 0.000000
v 0.014127 -0.282491 0.000000
v 0.016945 0.163383 -0.000000
v -0.011982 0.137593 0.011982
v -0.011982 0.137593 -0.011982
v 0.011982 0.137593 -0.011982
v 0.011982 0.137593 0.011982
v 0.000000 0.137593 0.016945
v -0.000000 0.137593 -0.016945
v 0.016945 0.137593 -0.000000
v -0.016945 0.137593 0.000000
v -0.011982 0.133587 -0.011982
v -0.011982 0.046547 -0.011982
v 0.011982 0.133587 -0.011982
v 0.011982 0.046547 -0.011982
v 0.011982 0.133587 0.011982
v 0.011982 0.046547 0.011982
v 0.000000 0.046547 0.016945
v 0.000000 0.133587 0.016945
v -0.000000 0.046547 -0.016945
v -0.000000 0.133587 -0.016945
v 0.016945 0.046547 -0.000000
v 0.016945 0.133587 -0.000000
v -0.016945 0.046547 0.000000
v -0.016945 0.133587 0.000000
v -0.011982 0.133587 0.011982
v -0.011982 0.046547 0.011982
v -0.024253 0.094671 0.024253
v -0.013609 0.114969 0.013609
v -0.017227 0.103295 0.017227
v 0.000000 0.114969 0.019246
v 0.000000 0.094671 0.034299
v 0.000000 0.103295 0.024363
v 0.024253 0.094671 0.024253
v 0.013609 0.114969 0.013609
v 0.017227 0.103295 0.017227
v 0.034299 0.094671 -0.000000
v 0.019246 0.114969 -0.000000
v 0.024363 0.103295 -0.000000
v 0.013609 0.114969 -0.013609
v 0.024253 0.094671 -0.024253
v 0.017227 0.103295 -0.017227
v -0.000000 0.094671 -0.034299
v -0.000000 0.114969 -0.019246
v -0.000000 0.103295 -0.024363
v -0.013609 0.114969 -0.013609
v -0.024253 0.094671 -0.024253
v -0.017227 0.103295 -0.017227
v -0.034299 0.094671 0.000000
v -0.019246 0.114969 0.000000
v -0.024363 0.103295 0.000000
v -0.034299 0.085463 0.000000
v -0.019246 0.065165 0.000000
v -0.024363 0.076839 0.000000
v -0.013609 0.065165 -0.013609
v -0.024253 0.085463 -0.024253
v -0.017227 0.076839 -0.017227
v -0.000000 0.085463 -0.034299
v -0.000000 0.065165 -0.019246
v -0.000000 0.076839 -0.024363
v 0.013609 0.065165 -0.013609
v 0.024253 0.085463 -0.024253
v 0.017227 0.076839 -0.017227
v 0.034299 0.085463 -0.000000
v 0.019246 0.065165 -0.000000
v 0.024363 0.076839 -0.000000
v 0.013609 0.065165 0.013609
v 0.024253 0.085463 0.024253
v 0.017227 0.076839 0.017227
v 0.000000 0.085463 0.034299
v 0.000000 0.065165 0.019246
v 0.000000 0.076839 0.024363
v -0.013609 0.065165 0.013609
v -0.024253 0.085463 0.024253
v -0.017227 0.076839 0.017227
v -0.027034 0.092765 -0.027034
v -0.027034 0.087369 -0.027034
v 0.027034 0.092765 -0.027034
v 0.027034 0.087369 -0.027034
v 0.027034 0.092765 0.027034
v 0.027034 0.087369 0.027034
v 0.000000 0.087369 0.038231
v 0.000000 0.092765 0.038231
v -0.000000 0.087369 -0.038231
v -0.000000 0.092765 -0.038231
v 0.038231 0.087369 -0.000000
v 0.038231 0.092765 -0.000000
v -0.038231 0.087369 0.000000
v -0.038231 0.092765 0.000000
v -0.027034 0.092765 0.027034
v -0.027034 0.087369 0.027034
v -0.004178 -0.394530 0.004178
v -0.004178 -0.394530 -0.004178
v 0.004178 -0.394530 0.004178
v 0.004178 -0.394530 -0.004178
v 0.000000 -0.394530 -0.005909
v -0.000000 -0.394530 0.005909
v -0.005909 -0.394530 -0.000000
v 0.005909 -0.394530 0.000000
v 0.000000 -0.394530 0.000000
v 0.017041 -0.299728 -0.017041
v 0.024099 -0.299728 0.000000
v -0.017041 -0.299728 -0.017041
v 0.000000 -0.299728 -0.024099
v 0.017041 -0.299728 0.017041
v -0.024099 -0.299728 -0.000000
v -0.000000 -0.299728 0.024099
v -0.017041 -0.299728 0.017041
v 0.014127 -0.320490 0.000000
v 0.000000 -0.320490 -0.014127
v 0.009989 -0.320490 0.009989
v -0.009989 -0.320490 0.009989
v 0.009989 -0.320490 -0.009989
v -0.009989 -0.320490 -0.009989
v -0.014127 -0.320490 -0.000000
v -0.000000 -0.320490 0.014127
v 0.012226 -0.294455 -0.012226
v 0.009661 -0.285940 -0.009661
v 0.010209 -0.290575 -0.010209
v -0.012226 -0.294455 -0.012226
v -0.009661 -0.285940 -0.009661
v -0.010209 -0.290575 -0.010209
v -0.017290 -0.294455 -0.000000
v -0.013663 -0.285940 -0.000000
v -0.014438 -0.290575 -0.000000
v -0.000000 -0.294455 0.017290
v -0.000000 -0.285940 0.013663
v -0.000000 -0.290575 0.014438
v 0.013663 -0.285940 0.000000
v 0.017290 -0.294455 0.000000
v 0.014438 -0.290575 0.000000
v 0.000000 -0.285940 -0.013663
v 0.000000 -0.294455 -0.017290
v 0.000000 -0.290575 -0.014438
v 0.009661 -0.285940 0.009661
v 0.012226 -0.294455 0.012226
v 0.010209 -0.290575 0.010209
v -0.009661 -0.285940 0.009661
v -0.012226 -0.294455 0.012226
v -0.010209 -0.290575 0.010209
v -0.013731 -0.305034 0.013731
v -0.010203 -0.316638 0.010203
v -0.011387 -0.310535 0.011387
v 0.010203 -0.316638 0.010203
v 0.013731 -0.305034 0.013731
v 0.011387 -0.310535 0.011387
v 0.000000 -0.316638 -0.014429
v 0.000000 -0.305034 -0.019418
v 0.000000 -0.310535 -0.016103
v 0.019418 -0.305034 0.000000
v 0.014429 -0.316638 0.000000
v 0.016103 -0.310535 0.000000
v -0.000000 -0.305034 0.019418
v -0.000000 -0.316638 0.014429
v -0.000000 -0.310535 0.016103
v -0.014429 -0.316638 -0.000000
v -0.019418 -0.305034 -0.000000
v -0.016103 -0.310535 -0.000000
v -0.013731 -0.305034 -0.013731
v -0.010203 -0.316638 -0.010203
v -0.011387 -0.310535 -0.011387
v 0.010203 -0.316638 -0.010203
v 0.013731 -0.305034 -0.013731
v 0.011387 -0.310535 -0.011387
v 0.000000 -0.347469 -0.015856
v 0.000000 -0.378423 -0.030668
v 0.000000 -0.364003 -0.020674
v -0.011212 -0.347469 0.011212
v -0.021686 -0.378423 0.021686
v -0.014618 -0.364003 0.014618
v 0.011212 -0.347469 0.011212
v 0.021686 -0.378423 0.021686
v 0.014618 -0.364003 0.014618
v 0.021686 -0.378423 -0.021686
v 0.011212 -0.347469 -0.011212
v 0.014618 -0.364003 -0.014618
v -0.021686 -0.378423 -0.021686
v -0.011212 -0.347469 -0.011212
v -0.014618 -0.364003 -0.014618
v -0.030668 -0.378423 -0.000000
v -0.015856 -0.347469 -0.000000
v -0.020674 -0.364003 -0.000000
v -0.000000 -0.378423 0.030668
v -0.000000 -0.347469 0.015856
v -0.000000 -0.364003 0.020674
v 0.015856 -0.347469 0.000000
v 0.030668 -0.378423 0.000000
v 0.020674 -0.364003 0.000000
v -0.000000 -0.385470 0.034879
v -0.000000 -0.381434 0.035518
v -0.035518 -0.381434 -0.000000
v -0.034879 -0.385470 -0.000000
v -0.024663 -0.385470 -0.024663
v -0.025115 -0.381434 -0.025115
v 0.024663 -0.385470 -0.024663
v 0.025115 -0.381434 -0.025115
v -0.025115 -0.381434 0.025115
v -0.024663 -0.385470 0.024663
v 0.024663 -0.385470 0.024663
v 0.025115 -0.381434 0.025115
v 0.000000 -0.381434 -0.035518
v 0.000000 -0.385470 -0.034879
v 0.035518 -0.381434 0.000000
v 0.034879 -0.385470 0.000000
v 0.042296 0.475786 0.029444
v 0.111090 0.191775 0.000000
v 0.059962 0.228432 0.029444
v 0.082825 0.451937 0.000000
v 0.000000 0.185592 0.028378
v 0.000000 0.445754 0.028378
v 0.000000 1.080657 0.015103
v 0.062473 1.080657 0.000000
v 0.029576 1.080657 0.016169
v 0.056850 0.260984 0.029444
v 0.050875 0.336938 0.029444
v 0.053862 0.298961 0.029444
v 0.088012 0.336052 0.000000
v 0.097358 0.260036 0.000000
v 0.091454 0.298037 0.000000
v 0.000000 0.245911 0.028378
v 0.000000 0.323465 0.028378
v 0.000000 0.284688 0.028378
v 0.000000 1.454822 0.000000
v 0.012869 1.405348 0.000000
v 0.001366 1.451162 0.000000
v 0.044692 1.241123 0.000000
v 0.020566 1.244951 0.011851
v 0.000000 1.267740 0.011318
v 0.021514 1.227675 0.012305
v 0.000000 1.248067 0.011716
v 0.054411 1.154166 0.000000
v 0.106039 0.198459 0.000000
v 0.059752 0.233184 0.000000
v 0.000000 0.194750 0.000000
v -0.042296 0.475786 0.029444
v -0.111090 0.191775 0.000000
v -0.059962 0.228432 0.029444
v -0.082825 0.451937 0.000000
v -0.062473 1.080657 0.000000
v -0.029576 1.080657 0.016169
v -0.056850 0.260984 0.029444
v -0.050875 0.336938 0.029444
v -0.053862 0.298961 0.029444
v -0.088012 0.336052 0.000000
v -0.097358 0.260036 0.000000
v -0.091454 0.298037 0.000000
v -0.012869 1.405348 0.000000
v -0.001366 1.451162 0.000000
v -0.044692 1.241123 0.000000
v -0.020566 1.244951 0.011851
v -0.021514 1.227675 0.012305
v -0.054411 1.154166 0.000000
v -0.106039 0.198459 0.000000
v -0.059752 0.233184 0.000000
v 0.042296 0.475786 -0.029444
v 0.059962 0.228432 -0.029444
v 0.000000 0.185592 -0.028378
v 0.000000 0.445754 -0.028378
v 0.000000 1.080657 -0.015103
v 0.029576 1.080657 -0.016169
v 0.056850 0.260984 -0.029444
v 0.050875 0.336938 -0.029444
v 0.053862 0.298961 -0.029444
v 0.000000 0.245911 -0.028378
v 0.000000 0.323465 -0.028378
v 0.000000 0.284688 -0.028378
v 0.020566 1.244951 -0.011851
v 0.000000 1.267740 -0.011318
v 0.021514 1.227675 -0.012305
v 0.000000 1.248067 -0.011716
v -0.042296 0.475786 -0.029444
v -0.059962 0.228432 -0.029444
v -0.029576 1.080657 -0.016169
v -0.056850 0.260984 -0.029444
v -0.050875 0.336938 -0.029444
v -0.053862 0.298961 -0.029444
v -0.020566 1.244951 -0.011851
v -0.021514 1.227675 -0.012305
vn 0.5858 -0.4837 0.6503
vn 0.6446 -0.5555 0.5252
vn 0.6010 -0.6432 0.4744
vn 0.2238 -0.3400 0.9134
vn -0.0000 -0.2776 0.9607
vn -0.0000 -0.2921 0.9564
vn 0.1945 -0.3273 0.9247
vn -0.0000 -0.1148 0.9934
vn 0.2433 -0.1301 0.9612
vn 0.4945 0.0791 0.8656
vn 0.6447 0.1554 0.7485
vn 0.6981 -0.0747 0.7121
vn 0.5738 -0.1057 0.8121
vn -0.0000 0.0827 0.9966
vn 0.2356 -0.0666 0.9696
vn 0.5488 -0.3460 0.7610
vn 0.2596 -0.2965 0.9191
vn 0.2445 -0.1723 0.9542
vn 0.2675 -0.1823 0.9462
vn 0.2823 -0.1871 0.9409
vn 0.2460 -0.1734 0.9536
vn 0.4383 0.3764 0.8162
vn 0.4633 0.3659 0.8071
vn 0.5362 0.3017 0.7883
vn 0.5236 0.3220 0.7888
vn -0.4827 -0.3529 0.8016
vn -0.4702 -0.3545 0.8083
vn -0.4291 -0.1853 0.8840
vn -0.4159 -0.2516 0.8739
vn -0.5783 -0.1039 0.8092
vn -0.6857 -0.0898 0.7223
vn -0.7049 -0.0098 0.7092
vn -0.5589 0.4645 0.6869
vn -0.5611 0.4617 0.6870
vn -0.5307 0.4980 0.6859
vn 0.4121 -0.4020 0.8177
vn 0.4133 -0.4245 0.8056
vn 0.4244 -0.3105 0.8506
vn 0.4327 -0.2704 0.8600
vn 0.3812 -0.2167 0.8987
vn 0.3386 -0.2044 0.9185
vn -0.6956 0.2171 0.6848
vn -0.7164 0.1603 0.6791
vn -0.6444 0.3291 0.6902
vn -0.6239 0.3667 0.6901
vn 0.2803 -0.1388 0.9498
vn 0.2718 -0.1464 0.9512
vn 0.3452 -0.0615 0.9365
vn 0.3679 -0.0257 0.9295
vn 0.2405 -0.1712 0.9554
vn 0.2404 -0.1710 0.9555
vn 0.4121 0.1010 0.9055
vn 0.4070 0.0649 0.9111
vn 0.4150 0.1963 0.8884
vn 0.4104 0.2606 0.8739
vn 0.3906 0.4136 0.8224
vn 0.3998 0.3555 0.8449
vn 0.3744 0.5087 0.7752
vn 0.3334 0.6799 0.6532
vn 0.2016 0.8461 0.4934
vn 0.2834 0.7751 0.5647
vn 0.1643 0.8730 0.4592
vn -0.3900 -0.4541 0.8010
vn -0.3974 -0.2905 0.8704
vn -0.3750 -0.5477 0.7480
vn -0.3473 -0.5929 0.7265
vn -0.3356 -0.6109 0.7170
vn -0.3965 -0.1061 0.9119
vn -0.3942 -0.0680 0.9165
vn -0.3985 -0.1739 0.9005
vn -0.3980 -0.2081 0.8935
vn -0.3195 0.1110 0.9411
vn -0.3068 0.1260 0.9434
vn -0.3651 0.0387 0.9302
vn -0.3758 0.0109 0.9266
vn 0.1273 0.3210 0.9385
vn -0.0648 0.2518 0.9656
vn -0.2340 0.1963 0.9522
vn -0.2328 0.1973 0.9523
vn 0.4012 -0.5255 0.7503
vn 0.4057 -0.5070 0.7605
vn 0.3698 -0.6005 0.7090
vn 0.3681 -0.6028 0.7079
vn -0.7158 0.0409 0.6971
vn -0.7260 0.0900 0.6817
vn 0.3461 -0.6329 0.6926
vn -0.3509 -0.0858 0.9325
vn 0.1927 0.3236 0.9264
vn 0.0541 0.2677 0.9620
vn -0.5023 -0.3502 0.7906
vn 0.6988 -0.3326 0.6334
vn 0.4697 -0.8658 -0.1722
vn 0.4769 -0.8790 -0.0000
vn -0.5858 -0.4837 0.6503
vn -0.6010 -0.6432 0.4744
vn -0.6446 -0.5555 0.5252
vn -0.2238 -0.3400 0.9134
vn -0.1945 -0.3273 0.9247
vn -0.2433 -0.1301 0.9612
vn -0.4945 0.0791 0.8656
vn -0.5738 -0.1057 0.8121
vn -0.6981 -0.0747 0.7121
vn -0.6447 0.1554 0.7485
vn -0.2356 -0.0666 0.9696
vn -0.5488 -0.3460 0.7610
vn -0.2596 -0.2965 0.9191
vn -0.2445 -0.1723 0.9542
vn -0.2460 -0.1734 0.9536
vn -0.2823 -0.1871 0.9409
vn -0.2675 -0.1823 0.9462
vn -0.4383 0.3764 0.8162
vn -0.5236 0.3220 0.7888
vn -0.5362 0.3017 0.7883
vn -0.4633 0.3659 0.8071
vn 0.4827 -0.3529 0.8016
vn 0.4159 -0.2516 0.8739
vn 0.4291 -0.1853 0.8840
vn 0.4702 -0.3545 0.8083
vn 0.5783 -0.1039 0.8092
vn 0.7049 -0.0098 0.7092
vn 0.6857 -0.0898 0.7223
vn 0.5589 0.4645 0.6869
vn 0.5307 0.4980 0.6859
vn 0.5611 0.4617 0.6870
vn -0.4121 -0.4020 0.8177
vn -0.4327 -0.2704 0.8600
vn -0.4244 -0.3105 0.8506
vn -0.4133 -0.4245 0.8056
vn -0.3386 -0.2044 0.9185
vn -0.3812 -0.2167 0.8987
vn 0.6956 0.2171 0.6848
vn 0.6239 0.3667 0.6901
vn 0.6444 0.3291 0.6902
vn 0.7164 0.1603 0.6791
vn -0.2803 -0.1388 0.9498
vn -0.3679 -0.0257 0.9295
vn -0.3452 -0.0615 0.9365
vn -0.2718 -0.1464 0.9512
vn -0.2405 -0.1712 0.9554
vn -0.2404 -0.1710 0.9555
vn -0.4121 0.1010 0.9055
vn -0.4104 0.2606 0.8739
vn -0.4150 0.1963 0.8884
vn -0.4070 0.0649 0.9111
vn -0.3906 0.4136 0.8224
vn -0.3334 0.6799 0.6532
vn -0.3744 0.5087 0.7752
vn -0.3998 0.3555 0.8449
vn -0.2016 0.8461 0.4934
vn -0.1643 0.8730 0.4592
vn -0.2834 0.7751 0.5647
vn 0.3900 -0.4541 0.8010
vn 0.3473 -0.5929 0.7265
vn 0.3750 -0.5477 0.7480
vn 0.3974 -0.2905 0.8704
vn 0.3356 -0.6109 0.7170
vn 0.3965 -0.1061 0.9119
vn 0.3980 -0.2081 0.8935
vn 0.3985 -0.1739 0.9005
vn 0.3942 -0.0680 0.9165
vn 0.3195 0.1110 0.9411
vn 0.3758 0.0109 0.9266
vn 0.3651 0.0387 0.9302
vn 0.3068 0.1260 0.9434
vn -0.1273 0.3210 0.9385
vn 0.2328 0.1973 0.9523
vn 0.2340 0.1963 0.9522
vn 0.0648 0.2518 0.9656
vn -0.4012 -0.5255 0.7503
vn -0.3681 -0.6028 0.7079
vn -0.3698 -0.6005 0.7090
vn -0.4057 -0.5070 0.7605
vn 0.7158 0.0409 0.6971
vn 0.7260 0.0900 0.6817
vn -0.3461 -0.6329 0.6926
vn 0.3509 -0.0858 0.9325
vn -0.0541 0.2677 0.9620
vn -0.1927 0.3236 0.9264
vn 0.5023 -0.3502 0.7906
vn -0.6988 -0.3326 0.6334
vn -0.4697 -0.8658 -0.1722
vn -0.4769 -0.8790 -0.0000
vn 0.5858 -0.4837 -0.6503
vn 0.6010 -0.6432 -0.4744
vn 0.6446 -0.5555 -0.5252
vn 0.2238 -0.3400 -0.9134
vn 0.1945 -0.3273 -0.9247
vn -0.0000 -0.2921 -0.9564
vn -0.0000 -0.2776 -0.9607
vn 0.2433 -0.1301 -0.9612
vn -0.0000 -0.1148 -0.9934
vn 0.4945 0.0791 -0.8656
vn 0.5738 -0.1057 -0.8121
vn 0.6981 -0.0747 -0.7121
vn 0.6447 0.1554 -0.7485
vn -0.0000 0.0827 -0.9966
vn 0.2356 -0.0666 -0.9696
vn 0.5488 -0.3460 -0.7610
vn 0.2596 -0.2965 -0.9191
vn 0.2445 -0.1723 -0.9542
vn 0.2460 -0.1734 -0.9536
vn 0.2823 -0.1871 -0.9409
vn 0.2675 -0.1823 -0.9462
vn 0.4383 0.3764 -0.8162
vn 0.5236 0.3220 -0.7888
vn 0.5362 0.3017 -0.7883
vn 0.4633 0.3659 -0.8071
vn -0.4827 -0.3529 -0.8016
vn -0.4159 -0.2516 -0.8739
vn -0.4291 -0.1853 -0.8840
vn -0.4702 -0.3545 -0.8083
vn -0.5783 -0.1039 -0.8092
vn -0.7049 -0.0098 -0.7092
vn -0.6857 -0.0898 -0.7223
vn -0.5589 0.4645 -0.6869
vn -0.5307 0.4980 -0.6859
vn -0.5611 0.4617 -0.6870
vn 0.4121 -0.4020 -0.8177
vn 0.4327 -0.2704 -0.8600
vn 0.4244 -0.3105 -0.8506
vn 0.4133 -0.4245 -0.8056
vn 0.3386 -0.2044 -0.9185
vn 0.3812 -0.2167 -0.8987
vn -0.6956 0.2171 -0.6848
vn -0.6239 0.3667 -0.6901
vn -0.6444 0.3291 -0.6902
vn -0.7164 0.1603 -0.6791
vn 0.2803 -0.1388 -0.9498
vn 0.3679 -0.0257 -0.9295
vn 0.3452 -0.0615 -0.9365
vn 0.2718 -0.1464 -0.9512
vn 0.2405 -0.1712 -0.9554
vn 0.2404 -0.1710 -0.9555
vn 0.4121 0.1010 -0.9055
vn 0.4104 0.2606 -0.8739
vn 0.4150 0.1963 -0.8884
vn 0.4070 0.0649 -0.9111
vn 0.3906 0.4136 -0.8224
vn 0.3334 0.6799 -0.6532
vn 0.3744 0.5087 -0.7752
vn 0.3998 0.3555 -0.8449
vn 0.2016 0.8461 -0.4934
vn 0.1643 0.8730 -0.4592
vn 0.2834 0.7751 -0.5647
vn -0.3900 -0.4541 -0.8010
vn -0.3473 -0.5929 -0.7265
vn -0.3750 -0.5477 -0.7480
vn -0.3974 -0.2905 -0.8704
vn -0.3356 -0.6109 -0.7170
vn -0.3965 -0.1061 -0.9119
vn -0.3980 -0.2081 -0.8935
vn -0.3985 -0.1739 -0.9005
vn -0.3942 -0.0680 -0.9165
vn -0.3195 0.1110 -0.9411
vn -0.3758 0.0109 -0.9266
vn -0.3651 0.0387 -0.9302
vn -0.3068 0.1260 -0.9434
vn 0.1273 0.3210 -0.9385
vn -0.2328 0.1973 -0.9523
vn -0.2340 0.1963 -0.9522
vn -0.0648 0.2518 -0.9656
vn 0.4012 -0.5255 -0.7503
vn 0.3681 -0.6028 -0.7079
vn 0.3698 -0.6005 -0.7090
vn 0.4057 -0.5070 -0.7605
vn -0.7158 0.0409 -0.6971
vn -0.7260 0.0900 -0.6818
vn 0.3461 -0.6329 -0.6926
vn -0.3509 -0.0858 -0.9325
vn 0.0541 0.2677 -0.9620
vn 0.1927 0.3236 -0.9264
vn -0.5023 -0.3502 -0.7906
vn 0.6988 -0.3326 -0.6334
vn 0.4697 -0.8658 0.1722
vn -0.5858 -0.4837 -0.6503
vn -0.6446 -0.5555 -0.5252
vn -0.6010 -0.6432 -0.4744
vn -0.2238 -0.3400 -0.9134
vn -0.1945 -0.3273 -0.9247
vn -0.2433 -0.1301 -0.9612
vn -0.4945 0.0791 -0.8656
vn -0.6447 0.1554 -0.7485
vn -0.6981 -0.0747 -0.7121
vn -0.5738 -0.1057 -0.8121
vn -0.2356 -0.0666 -0.9696
vn -0.5488 -0.3460 -0.7610
vn -0.2596 -0.2965 -0.9191
vn -0.2445 -0.1723 -0.9542
vn -0.2675 -0.1823 -0.9462
vn -0.2823 -0.1871 -0.9409
vn -0.2460 -0.1734 -0.9536
vn -0.4383 0.3764 -0.8162
vn -0.4633 0.3659 -0.8071
vn -0.5362 0.3017 -0.7883
vn -0.5236 0.3220 -0.7888
vn 0.4827 -0.3529 -0.8016
vn 0.4702 -0.3545 -0.8083
vn 0.4291 -0.1853 -0.8840
vn 0.4159 -0.2516 -0.8739
vn 0.5783 -0.1039 -0.8092
vn 0.6857 -0.0898 -0.7223
vn 0.7049 -0.0098 -0.7092
vn 0.5589 0.4645 -0.6869
vn 0.5611 0.4617 -0.6870
vn 0.5307 0.4980 -0.6859
vn -0.4121 -0.4020 -0.8177
vn -0.4133 -0.4245 -0.8056
vn -0.4244 -0.3105 -0.8506
vn -0.4327 -0.2704 -0.8600
vn -0.3812 -0.2167 -0.8987
vn -0.3386 -0.2044 -0.9185
vn 0.6956 0.2171 -0.6848
vn 0.7164 0.1603 -0.6791
vn 0.6444 0.3291 -0.6902
vn 0.6239 0.3667 -0.6901
vn -0.2803 -0.1388 -0.9498
vn -0.2718 -0.1464 -0.9512
vn -0.3452 -0.0615 -0.9365
vn -0.3679 -0.0257 -0.9295
vn -0.2405 -0.1712 -0.9554
vn -0.2404 -0.1710 -0.9555
vn -0.4121 0.1010 -0.9055
vn -0.4070 0.0649 -0.9111
vn -0.4150 0.1963 -0.8884
vn -0.4104 0.2606 -0.8739
vn -0.3906 0.4136 -0.8224
vn -0.3998 0.3555 -0.8449
vn -0.3744 0.5087 -0.7752
vn -0.3334 0.6799 -0.6532
vn -0.2016 0.8461 -0.4934
vn -0.2834 0.7751 -0.5647
vn -0.1643 0.8730 -0.4592
vn 0.3900 -0.4541 -0.8010
vn 0.3974 -0.2905 -0.8704
vn 0.3750 -0.5477 -0.7480
vn 0.3473 -0.5929 -0.7265
vn 0.3356 -0.6109 -0.7170
vn 0.3965 -0.1061 -0.9119
vn 0.3942 -0.0680 -0.9165
vn 0.3985 -0.1739 -0.9005
vn 0.3980 -0.2081 -0.8935
vn 0.3195 0.1110 -0.9411
vn 0.3068 0.1260 -0.9434
vn 0.3651 0.0387 -0.9302
vn 0.3758 0.0109 -0.9266
vn -0.1273 0.3210 -0.9385
vn 0.0648 0.2518 -0.9656
vn 0.2340 0.1963 -0.9522
vn 0.2328 0.1973 -0.9523
vn -0.4012 -0.5255 -0.7503
vn -0.4057 -0.5070 -0.7605
vn -0.3698 -0.6005 -0.7090
vn -0.3681 -0.6028 -0.7079
vn 0.7158 0.0409 -0.6971
vn 0.7260 0.0900 -0.6817
vn -0.3461 -0.6329 -0.6926
vn 0.3509 -0.0858 -0.9325
vn -0.1927 0.3236 -0.9264
vn -0.0541 0.2677 -0.9620
vn 0.5023 -0.3502 -0.7906
vn -0.6988 -0.3326 -0.6334
vn -0.4697 -0.8658 0.1722
vn -0.8731 -0.4876 -0.0000
vn 0.8731 -0.4876 -0.0000
vn -1.0000 -0.0000 -0.0000
vn -0.7071 -0.0000 -0.7071
vn -0.0000 -0.0000 -1.0000
vn 0.7071 -0.0000 -0.7071
vn 1.0000 -0.0000 -0.0000
vn 0.7071 -0.0000 0.7071
vn -0.0000 -0.0000 1.0000
vn -0.7071 -0.0000 0.7071
vn -0.0000 0.0624 0.9981
vn -0.7057 0.0624 0.7057
vn -0.6800 0.2743 0.6800
vn -0.0000 0.2743 0.9616
vn -0.0000 0.0624 -0.9981
vn 0.7057 0.0624 -0.7057
vn -0.9981 0.0624 -0.0000
vn -0.7057 0.0624 -0.7057
vn 0.9981 0.0624 -0.0000
vn 0.7057 0.0624 0.7057
vn -0.7054 -0.0699 0.7054
vn -0.7055 -0.0667 0.7055
vn -0.9978 -0.0667 -0.0000
vn -0.9976 -0.0699 -0.0000
vn -0.0000 -0.0699 0.9976
vn -0.0000 -0.0667 0.9978
vn 0.7054 -0.0699 0.7054
vn 0.7055 -0.0667 0.7055
vn 0.7054 -0.0699 -0.7054
vn 0.7055 -0.0667 -0.7055
vn 0.9978 -0.0667 -0.0000
vn 0.9976 -0.0699 -0.0000
vn -0.7055 -0.0667 -0.7055
vn -0.7054 -0.0699 -0.7054
vn -0.0000 -0.0699 -0.9976
vn -0.0000 -0.0667 -0.9978
vn -0.6800 -0.2743 0.6800
vn -0.9616 -0.2743 -0.0000
vn -0.3727 0.8498 -0.3727
vn -0.0000 0.8498 -0.5271
vn -0.0000 0.4798 -0.8774
vn -0.6204 0.4798 -0.6204
vn -0.0000 0.2743 -0.9616
vn -0.6800 0.2743 -0.6800
vn 0.5271 0.8498 -0.0000
vn 0.3727 0.8498 0.3727
vn 0.6204 0.4798 0.6204
vn 0.8774 0.4798 -0.0000
vn -0.0000 -0.4798 -0.8774
vn 0.6204 -0.4798 -0.6204
vn 0.3727 -0.8498 -0.3727
vn -0.0000 -0.8498 -0.5271
vn -0.0000 0.8498 0.5271
vn -0.3727 0.8498 0.3727
vn -0.6204 0.4798 0.6204
vn -0.0000 0.4798 0.8774
vn 0.6800 0.2743 0.6800
vn -0.5271 0.8498 -0.0000
vn -0.8774 0.4798 -0.0000
vn 0.9616 0.2743 -0.0000
vn -0.0000 -0.2743 0.9616
vn -0.9616 0.2743 -0.0000
vn -0.0000 -0.2743 -0.9616
vn 0.6800 -0.2743 -0.6800
vn 0.6800 0.2743 -0.6800
vn 0.9616 -0.2743 -0.0000
vn 0.6800 -0.2743 0.6800
vn 0.3727 0.8498 -0.3727
vn 0.6204 0.4798 -0.6204
vn -0.8774 -0.4798 -0.0000
vn -0.6204 -0.4798 -0.6204
vn -0.3727 -0.8498 -0.3727
vn -0.5271 -0.8498 -0.0000
vn 0.8774 -0.4798 -0.0000
vn 0.6204 -0.4798 0.6204
vn 0.3727 -0.8498 0.3727
vn 0.5271 -0.8498 -0.0000
vn -0.0000 -0.4798 0.8774
vn -0.6204 -0.4798 0.6204
vn -0.3727 -0.8498 0.3727
vn -0.0000 -0.8498 0.5271
vn -0.6800 -0.2743 -0.6800
vn -0.7846 0.6200 -0.0000
vn -0.5548 0.6200 -0.5548
vn 0.5548 0.6200 0.5548
vn -0.0000 0.6200 0.7846
vn -0.5548 0.6200 0.5548
vn -0.0000 0.6200 -0.7846
vn 0.5548 0.6200 -0.5548
vn 0.7846 0.6200 -0.0000
vn -0.5548 -0.6200 0.5548
vn -0.7846 -0.6200 -0.0000
vn 0.5548 -0.6200 -0.5548
vn 0.7846 -0.6200 -0.0000
vn -0.5548 -0.6200 -0.5548
vn -0.0000 -0.6200 -0.7846
vn 0.5548 -0.6200 0.5548
vn -0.0000 -0.6200 0.7846
vn -0.0000 0.7505 -0.6608
vn 0.4673 0.7505 -0.4673
vn 0.6563 0.3723 -0.6563
vn -0.0000 0.3723 -0.9281
vn 0.6608 0.7505 -0.0000
vn 0.9281 0.3723 -0.0000
vn 0.4673 0.7505 0.4673
vn 0.6563 0.3723 0.6563
vn -0.6608 0.7505 -0.0000
vn -0.4673 0.7505 -0.4673
vn -0.6563 0.3723 -0.6563
vn -0.9281 0.3723 -0.0000
vn -0.0000 0.7505 0.6608
vn -0.0000 0.3723 0.9281
vn -0.4673 0.7505 0.4673
vn -0.6563 0.3723 0.6563
vn 0.8030 -0.5960 -0.0000
vn 0.5678 -0.5960 0.5678
vn 0.1325 -0.9823 0.1325
vn 0.1874 -0.9823 -0.0000
vn -0.5678 -0.5960 0.5678
vn -0.8030 -0.5960 -0.0000
vn -0.1874 -0.9823 -0.0000
vn -0.1325 -0.9823 0.1325
vn -0.0000 -1.0000 -0.0000
vn -0.0000 -0.9823 0.1874
vn -0.0000 -0.9823 -0.1874
vn -0.1325 -0.9823 -0.1325
vn 0.1325 -0.9823 -0.1325
vn -0.0000 0.7157 0.6984
vn -0.4938 0.7157 0.4938
vn -0.7048 0.0811 0.7048
vn -0.0000 0.0811 0.9967
vn 0.4938 0.7157 -0.4938
vn 0.6984 0.7157 -0.0000
vn 0.9967 0.0811 -0.0000
vn 0.7048 0.0811 -0.7048
vn -0.0000 0.0167 0.9999
vn 0.7070 0.0167 0.7070
vn 0.4938 0.7157 0.4938
vn 0.7048 0.0811 0.7048
vn -0.4938 0.7157 -0.4938
vn -0.0000 0.7157 -0.6984
vn -0.0000 0.0811 -0.9967
vn -0.7048 0.0811 -0.7048
vn 0.9999 0.0167 -0.0000
vn -0.9999 0.0167 -0.0000
vn -0.7070 0.0167 0.7070
vn -0.7070 0.0167 -0.7070
vn 0.9844 -0.1762 -0.0000
vn 0.6960 -0.1762 0.6960
vn 0.7071 -0.0073 0.7071
vn 1.0000 -0.0073 -0.0000
vn -0.0000 -0.6020 -0.7985
vn -0.5646 -0.6020 -0.5646
vn -0.0000 -0.6020 0.7985
vn 0.5646 -0.6020 0.5646
vn -0.9967 0.0811 -0.0000
vn -0.7985 -0.6020 -0.0000
vn -0.5646 -0.6020 0.5646
vn 0.5678 -0.5960 -0.5678
vn 0.5646 -0.6020 -0.5646
vn -0.0000 -0.1762 -0.9844
vn 0.6960 -0.1762 -0.6960
vn 0.7071 -0.0073 -0.7071
vn -0.0000 -0.0073 -1.0000
vn -0.6984 0.7157 -0.0000
vn -0.0000 0.0167 -0.9999
vn 0.7070 0.0167 -0.7070
vn 0.6446 0.4111 -0.6446
vn 0.9116 0.4111 -0.0000
vn -0.6446 0.4111 -0.6446
vn -0.0000 0.4111 -0.9116
vn 0.6446 0.4111 0.6446
vn -0.9116 0.4111 -0.0000
vn -0.0000 0.4111 0.9116
vn -0.6446 0.4111 0.6446
vn 0.7985 -0.6020 -0.0000
vn -0.0000 -0.1762 0.9844
vn -0.0000 -0.0073 1.0000
vn -0.9844 -0.1762 -0.0000
vn -0.6960 -0.1762 -0.6960
vn -0.7071 -0.0073 -0.7071
vn -1.0000 -0.0073 -0.0000
vn -0.6960 -0.1762 0.6960
vn -0.7071 -0.0073 0.7071
vn 0.6460 -0.4067 0.6460
vn -0.0000 -0.4067 0.9136
vn -0.6460 -0.4067 0.6460
vn 0.6460 -0.4067 -0.6460
vn 0.9136 -0.4067 -0.0000
vn -0.0000 -0.4067 -0.9136
vn -0.9136 -0.4067 -0.0000
vn -0.6460 -0.4067 -0.6460
vn -0.0000 -0.5960 0.8030
vn -0.9841 0.1776 -0.0000
vn -0.6959 0.1776 0.6959
vn -0.0000 0.1776 0.9841
vn 0.6959 0.1776 0.6959
vn 0.6959 0.1776 -0.6959
vn -0.0000 0.1776 -0.9841
vn 0.9841 0.1776 -0.0000
vn -0.6959 0.1776 -0.6959
vn -0.0000 -0.5960 -0.8030
vn -0.5678 -0.5960 -0.5678
vn 0.6328 0.4463 -0.6328
vn 0.8949 0.4463 -0.0000
vn -0.6328 0.4463 -0.6328
vn -0.0000 0.4463 -0.8949
vn 0.6328 0.4463 0.6328
vn -0.8949 0.4463 -0.0000
vn -0.0000 0.4463 0.8949
vn -0.6328 0.4463 0.6328
vn -0.0000 0.0059 1.0000
vn -0.0334 0.0141 0.9993
vn -0.0311 0.0217 0.9993
vn -0.0000 0.0217 0.9998
vn 0.5653 0.0945 0.8194
vn 0.5818 0.0837 0.8090
vn 0.5847 0.0818 0.8071
vn 0.6145 0.0422 0.7878
vn 0.6149 0.0431 0.7874
vn 0.5841 0.0297 0.8112
vn 0.5605 0.0268 0.8277
vn -0.0000 -0.0006 1.0000
vn -0.0180 -0.0006 0.9998
vn -0.0186 -0.0007 0.9998
vn -0.0000 -0.0007 1.0000
vn -0.0215 -0.0008 0.9998
vn -0.0000 -0.0008 1.0000
vn -0.0197 -0.0008 0.9998
vn 0.6108 0.0609 0.7895
vn 0.6097 0.0620 0.7902
vn 0.4898 0.0352 0.8711
vn 0.4872 0.0359 0.8725
vn 0.4322 0.0705 0.8990
vn 0.4359 0.0649 0.8977
vn 0.4214 0.0869 0.9027
vn -0.0000 0.0523 0.9986
vn 0.0078 0.0309 0.9995
vn 0.0495 0.0611 0.9969
vn -0.0000 0.0612 0.9981
vn -0.0000 0.0228 0.9997
vn -0.0185 0.0226 0.9996
vn 0.4452 0.0493 0.8941
vn 0.4419 0.0481 0.8958
vn 0.5519 -0.8103 -0.1969
vn -0.6168 -0.7647 -0.1868
vn 0.0311 0.0217 0.9993
vn 0.0334 0.0141 0.9993
vn -0.5653 0.0945 0.8194
vn -0.5847 0.0818 0.8071
vn -0.5818 0.0837 0.8090
vn -0.6145 0.0422 0.7878
vn -0.5605 0.0268 0.8277
vn -0.5841 0.0297 0.8112
vn -0.6149 0.0431 0.7874
vn 0.0186 -0.0007 0.9998
vn 0.0180 -0.0006 0.9998
vn 0.0215 -0.0008 0.9998
vn 0.0197 -0.0008 0.9998
vn -0.6097 0.0620 0.7902
vn -0.6108 0.0609 0.7895
vn -0.4872 0.0359 0.8725
vn -0.4898 0.0352 0.8711
vn -0.4322 0.0705 0.8990
vn -0.4214 0.0869 0.9027
vn -0.4359 0.0649 0.8977
vn -0.0495 0.0611 0.9969
vn -0.0078 0.0309 0.9995
vn 0.0185 0.0226 0.9996
vn -0.4452 0.0493 0.8941
vn -0.4419 0.0481 0.8958
vn -0.5519 -0.8103 -0.1969
vn 0.6168 -0.7647 -0.1868
vn -0.0000 0.0059 -1.0000
vn -0.0000 0.0217 -0.9998
vn -0.0311 0.0217 -0.9993
vn -0.0334 0.0141 -0.9993
vn 0.5653 0.0945 -0.8194
vn 0.5847 0.0818 -0.8071
vn 0.5818 0.0837 -0.8090
vn 0.6145 0.0422 -0.7878
vn 0.5605 0.0268 -0.8277
vn 0.5841 0.0297 -0.8112
vn 0.6149 0.0431 -0.7874
vn -0.0000 -0.0006 -1.0000
vn -0.0000 -0.0007 -1.0000
vn -0.0186 -0.0007 -0.9998
vn -0.0180 -0.0006 -0.9998
vn -0.0215 -0.0008 -0.9998
vn -0.0197 -0.0008 -0.9998
vn -0.0000 -0.0008 -1.0000
vn 0.6097 0.0620 -0.7902
vn 0.6108 0.0609 -0.7895
vn 0.4872 0.0359 -0.8725
vn 0.4898 0.0352 -0.8711
vn 0.4322 0.0705 -0.8990
vn 0.4214 0.0869 -0.9027
vn 0.4359 0.0649 -0.8977
vn -0.0000 0.0523 -0.9986
vn -0.0000 0.0612 -0.9981
vn 0.0495 0.0611 -0.9969
vn 0.0078 0.0309 -0.9995
vn -0.0000 0.0228 -0.9997
vn -0.0185 0.0226 -0.9996
vn 0.4452 0.0493 -0.8941
vn 0.4419 0.0481 -0.8958
vn 0.5519 -0.8103 0.1969
vn -0.6168 -0.7647 0.1868
vn 0.0334 0.0141 -0.9993
vn 0.0311 0.0217 -0.9993
vn -0.5653 0.0945 -0.8194
vn -0.5818 0.0837 -0.8090
vn -0.5847 0.0818 -0.8071
vn -0.6145 0.0422 -0.7878
vn -0.6149 0.0431 -0.7874
vn -0.5841 0.0297 -0.8112
vn -0.5605 0.0268 -0.8277
vn 0.0180 -0.0006 -0.9998
vn 0.0186 -0.0007 -0.9998
vn 0.0215 -0.0008 -0.9998
vn 0.0197 -0.0008 -0.9998
vn -0.6108 0.0609 -0.7895
vn -0.6097 0.0620 -0.7902
vn -0.4898 0.0352 -0.8711
vn -0.4872 0.0359 -0.8725
vn -0.4322 0.0705 -0.8990
vn -0.4359 0.0649 -0.8977
vn -0.4214 0.0869 -0.9027
vn -0.0078 0.0309 -0.9995
vn -0.0495 0.0611 -0.9969
vn 0.0185 0.0226 -0.9996
vn -0.4452 0.0493 -0.8941
vn -0.4419 0.0481 -0.8958
vn -0.5519 -0.8103 0.1969
vn 0.6168 -0.7647 0.1868
vt 0.830765 0.805069
vt 0.855920 0.803360
vt 0.873267 0.815790
vt 0.839533 0.818363
vt 0.813554 0.805055
vt 0.772947 0.804060
vt 0.773135 0.798401
vt 0.811561 0.799283
vt 0.773325 0.792699
vt 0.811287 0.793283
vt 0.835072 0.767613
vt 0.851121 0.777211
vt 0.848307 0.792507
vt 0.828291 0.793131
vt 0.774929 0.744443
vt 0.822123 0.758617
vt 0.828423 0.799095
vt 0.837703 0.745054
vt 0.846297 0.756446
vt 0.911201 0.722675
vt 0.898438 0.710434
vt 0.929090 0.693302
vt 0.945268 0.706627
vt 0.862618 0.747168
vt 0.872612 0.757482
vt 0.859299 0.766777
vt 0.853059 0.736734
vt 0.868172 0.727770
vt 0.879726 0.739111
vt 0.875030 0.718222
vt 0.897511 0.703338
vt 0.875422 0.673665
vt 0.867474 0.676157
vt 0.851239 0.657930
vt 0.851551 0.657747
vt 0.892389 0.689432
vt 0.904507 0.681157
vt 0.911972 0.684941
vt 0.895917 0.696262
vt 0.918527 0.688229
vt 0.877772 0.696620
vt 0.875181 0.687220
vt 0.886167 0.682255
vt 0.934776 0.740008
vt 0.970260 0.726999
vt 0.974779 0.735773
vt 0.940634 0.746723
vt 0.925135 0.734541
vt 0.962330 0.719594
vt 0.941590 0.755430
vt 0.973830 0.748864
vt 0.966586 0.762544
vt 0.937949 0.764722
vt 0.932441 0.770055
vt 0.957871 0.768941
vt 0.944700 0.775605
vt 0.923777 0.775856
vt 0.908207 0.781580
vt 0.920193 0.782761
vt 0.887906 0.788727
vt 0.887391 0.788300
vt 0.903084 0.777464
vt 0.896299 0.782582
vt 0.886795 0.787911
vt 0.909894 0.768023
vt 0.907408 0.772367
vt 0.907640 0.758458
vt 0.910249 0.762903
vt 0.889979 0.750720
vt 0.900599 0.753875
vt 0.895144 0.676329
vt 0.882006 0.670332
vt 0.877819 0.706933
vt 0.851830 0.657553
vt 0.850925 0.797840
vt 0.196885 0.898474
vt 0.211595 0.925817
vt 0.177337 0.925904
vt 0.177065 0.899130
vt 0.715094 0.804107
vt 0.705446 0.817249
vt 0.671903 0.814116
vt 0.690067 0.801981
vt 0.732296 0.804380
vt 0.734672 0.798644
vt 0.735345 0.792652
vt 0.713279 0.766601
vt 0.718360 0.792218
vt 0.698397 0.791261
vt 0.696601 0.775926
vt 0.726820 0.757824
vt 0.717832 0.798175
vt 0.702803 0.755253
vt 0.712150 0.744011
vt 0.640180 0.720422
vt 0.607199 0.703817
vt 0.624254 0.690768
vt 0.653750 0.708400
vt 0.687108 0.745709
vt 0.689122 0.765362
vt 0.676434 0.755852
vt 0.670545 0.737372
vt 0.682847 0.726229
vt 0.697355 0.735439
vt 0.655148 0.701324
vt 0.676627 0.716573
vt 0.679198 0.672034
vt 0.704114 0.656521
vt 0.704414 0.656710
vt 0.686976 0.674657
vt 0.661192 0.687510
vt 0.657212 0.694278
vt 0.641919 0.682696
vt 0.649631 0.679038
vt 0.635148 0.685873
vt 0.667888 0.680440
vt 0.678537 0.685585
vt 0.675323 0.694937
vt 0.615466 0.737353
vt 0.609164 0.743968
vt 0.575767 0.732456
vt 0.580866 0.723762
vt 0.625465 0.732050
vt 0.589284 0.716493
vt 0.607630 0.752654
vt 0.610651 0.762001
vt 0.582175 0.759349
vt 0.575845 0.745556
vt 0.615802 0.767423
vt 0.624075 0.773364
vt 0.603181 0.772766
vt 0.590460 0.765886
vt 0.639256 0.779344
vt 0.659615 0.786406
vt 0.659071 0.786824
vt 0.627198 0.780326
vt 0.644651 0.775316
vt 0.651091 0.780544
vt 0.660236 0.786028
vt 0.638471 0.765766
vt 0.640667 0.770149
vt 0.641360 0.756245
vt 0.638458 0.760644
vt 0.659526 0.748804
vt 0.648702 0.751781
vt 0.659309 0.674368
vt 0.672839 0.668594
vt 0.674590 0.705243
vt 0.703848 0.656322
vt 0.695426 0.796548
vt 0.197442 0.953234
vt 0.177610 0.952679
vt 0.832976 0.842572
vt 0.842622 0.829430
vt 0.876165 0.832562
vt 0.858002 0.844697
vt 0.815774 0.842299
vt 0.813399 0.848035
vt 0.774937 0.848278
vt 0.775125 0.842620
vt 0.812726 0.854027
vt 0.774748 0.853980
vt 0.834792 0.880076
vt 0.829710 0.854461
vt 0.849673 0.855417
vt 0.851470 0.870752
vt 0.773146 0.902234
vt 0.821253 0.888853
vt 0.830238 0.848503
vt 0.845269 0.891424
vt 0.835923 0.902666
vt 0.907890 0.926253
vt 0.940871 0.942857
vt 0.923818 0.955905
vt 0.894322 0.938274
vt 0.860963 0.900967
vt 0.858949 0.881315
vt 0.871637 0.890825
vt 0.877527 0.909303
vt 0.865225 0.920446
vt 0.850717 0.911236
vt 0.892924 0.945350
vt 0.871445 0.930102
vt 0.868870 0.974646
vt 0.843882 0.990144
vt 0.843583 0.989956
vt 0.861093 0.972018
vt 0.886881 0.959163
vt 0.890861 0.952396
vt 0.906154 0.963977
vt 0.898442 0.967635
vt 0.912924 0.960800
vt 0.880187 0.966234
vt 0.869536 0.961088
vt 0.872750 0.951737
vt 0.932603 0.909322
vt 0.938904 0.902708
vt 0.972301 0.914218
vt 0.967202 0.922912
vt 0.922605 0.914625
vt 0.958784 0.930181
vt 0.940438 0.894022
vt 0.937418 0.884675
vt 0.965892 0.887328
vt 0.972222 0.901119
vt 0.932268 0.879253
vt 0.923996 0.873310
vt 0.944889 0.873911
vt 0.957608 0.880790
vt 0.908792 0.867313
vt 0.888466 0.860193
vt 0.889014 0.859776
vt 0.920882 0.866350
vt 0.903414 0.871360
vt 0.896908 0.866154
vt 0.887920 0.860610
vt 0.909597 0.880910
vt 0.907400 0.876527
vt 0.906709 0.890431
vt 0.909611 0.886032
vt 0.888544 0.897871
vt 0.899367 0.894895
vt 0.888767 0.972304
vt 0.875243 0.978083
vt 0.873483 0.941431
vt 0.844181 0.990333
vt 0.852643 0.850131
vt 0.157232 0.898575
vt 0.143079 0.925992
vt 0.717309 0.841612
vt 0.692156 0.843321
vt 0.674809 0.830891
vt 0.708541 0.828318
vt 0.734519 0.841625
vt 0.736513 0.847397
vt 0.736788 0.853396
vt 0.713004 0.879066
vt 0.696955 0.869469
vt 0.699769 0.854173
vt 0.719784 0.853548
vt 0.725954 0.888062
vt 0.719652 0.847585
vt 0.710375 0.901624
vt 0.701780 0.890233
vt 0.636881 0.924003
vt 0.649644 0.936243
vt 0.618994 0.953375
vt 0.602817 0.940050
vt 0.685461 0.899511
vt 0.675467 0.889197
vt 0.688779 0.879902
vt 0.695019 0.909944
vt 0.679908 0.918908
vt 0.668353 0.907567
vt 0.673050 0.928455
vt 0.650571 0.943339
vt 0.672667 0.973017
vt 0.680615 0.970520
vt 0.696924 0.988738
vt 0.696613 0.988922
vt 0.655694 0.957244
vt 0.643577 0.965519
vt 0.636112 0.961736
vt 0.652165 0.950415
vt 0.629557 0.958448
vt 0.670310 0.950057
vt 0.672902 0.959456
vt 0.661915 0.964422
vt 0.613306 0.906671
vt 0.577824 0.919680
vt 0.573305 0.910906
vt 0.607447 0.899956
vt 0.622947 0.912137
vt 0.585754 0.927085
vt 0.606490 0.891250
vt 0.574254 0.897816
vt 0.581496 0.884137
vt 0.610130 0.881958
vt 0.615637 0.876624
vt 0.590209 0.877741
vt 0.603377 0.871077
vt 0.624299 0.870822
vt 0.639893 0.865081
vt 0.627873 0.863918
vt 0.660160 0.857877
vt 0.660680 0.858302
vt 0.644998 0.869215
vt 0.651847 0.864120
vt 0.661198 0.858728
vt 0.638185 0.878657
vt 0.640672 0.874313
vt 0.640439 0.888221
vt 0.637831 0.883776
vt 0.658100 0.895959
vt 0.647481 0.892804
vt 0.652937 0.970347
vt 0.666070 0.976347
vt 0.670262 0.939744
vt 0.696302 0.989106
vt 0.697151 0.848840
vt 0.157790 0.953335
vt 0.176927 0.885623
vt 0.177747 0.966186
vt 0.667446 0.137436
vt 0.671228 0.171684
vt 0.636779 0.172741
vt 0.632099 0.137788
vt 0.595900 0.138867
vt 0.602247 0.174164
vt 0.567604 0.175995
vt 0.559742 0.140874
vt 0.676747 0.339962
vt 0.680529 0.374209
vt 0.646081 0.375267
vt 0.641400 0.340313
vt 0.605201 0.341392
vt 0.611548 0.376689
vt 0.576905 0.378520
vt 0.569043 0.343399
vt 0.532919 0.178044
vt 0.524767 0.143558
vt 0.542220 0.380570
vt 0.534068 0.346084
vt 0.604222 0.335760
vt 0.567494 0.337848
vt 0.559230 0.311589
vt 0.600906 0.308692
vt 0.594921 0.133234
vt 0.558193 0.135323
vt 0.667318 0.132103
vt 0.631677 0.132233
vt 0.676619 0.334628
vt 0.640978 0.334758
vt 0.764777 0.010033
vt 0.759461 0.415515
vt 0.727499 0.415358
vt 0.738130 0.009902
vt 0.791424 0.010077
vt 0.791424 0.415567
vt 0.818071 0.010033
vt 0.823388 0.415515
vt 0.892906 0.010033
vt 0.887590 0.415515
vt 0.855628 0.415358
vt 0.866260 0.009902
vt 0.523104 0.138230
vt 0.844718 0.009902
vt 0.855350 0.415358
vt 0.972847 0.009902
vt 0.983479 0.415358
vt 0.951517 0.415515
vt 0.946201 0.010033
vt 0.919554 0.010077
vt 0.919554 0.415567
vt 0.532405 0.340755
vt 0.557334 0.237704
vt 0.517578 0.234390
vt 0.527862 0.209327
vt 0.562810 0.212065
vt 0.636769 0.076058
vt 0.590125 0.076848
vt 0.589928 0.073184
vt 0.636821 0.072421
vt 0.591605 0.106167
vt 0.632543 0.106056
vt 0.700497 0.279648
vt 0.646071 0.278584
vt 0.646122 0.274947
vt 0.704033 0.275253
vt 0.589343 0.068445
vt 0.541102 0.069051
vt 0.541190 0.065268
vt 0.589088 0.064487
vt 0.599426 0.279373
vt 0.551400 0.280672
vt 0.550980 0.276570
vt 0.599230 0.275709
vt 0.641844 0.308581
vt 0.492117 0.283426
vt 0.487695 0.278114
vt 0.680687 0.310021
vt 0.597695 0.238047
vt 0.597566 0.212876
vt 0.671386 0.107496
vt 0.588393 0.035521
vt 0.548033 0.035178
vt 0.553509 0.009539
vt 0.588265 0.010351
vt 0.510256 0.113954
vt 0.549929 0.109064
vt 0.675527 0.233590
vt 0.637249 0.236783
vt 0.631982 0.211948
vt 0.665456 0.209327
vt 0.519557 0.316480
vt 0.542099 0.078147
vt 0.541679 0.074044
vt 0.694666 0.066045
vt 0.636338 0.067619
vt 0.635926 0.064036
vt 0.690396 0.061187
vt 0.703967 0.268571
vt 0.645639 0.270144
vt 0.645227 0.266562
vt 0.699697 0.263713
vt 0.598644 0.270971
vt 0.550404 0.271576
vt 0.550491 0.267794
vt 0.598389 0.267013
vt 0.478687 0.068318
vt 0.482749 0.063587
vt 0.666226 0.031065
vt 0.627948 0.034257
vt 0.622681 0.009422
vt 0.656155 0.006802
vt 0.508276 0.031864
vt 0.518560 0.006802
vt 0.482815 0.080901
vt 0.478394 0.075589
vt 0.691196 0.077122
vt 0.679298 0.091827
vt 0.634212 0.089473
vt 0.643513 0.291998
vt 0.598940 0.292619
vt 0.553775 0.294945
vt 0.506255 0.300285
vt 0.589639 0.090094
vt 0.544474 0.092420
vt 0.688599 0.294352
vt 0.496954 0.097759
vt 0.553281 0.254058
vt 0.506518 0.250442
vt 0.492051 0.266112
vt 0.543980 0.051533
vt 0.497216 0.047917
vt 0.631890 0.050580
vt 0.588198 0.050985
vt 0.641191 0.253105
vt 0.597499 0.253510
vt 0.685999 0.249217
vt 0.676698 0.046692
vt 0.487988 0.270843
vt 0.694732 0.072728
vt 0.868624 0.434281
vt 0.815014 0.444482
vt 0.808349 0.438288
vt 0.866147 0.427935
vt 0.767407 0.463441
vt 0.753449 0.458875
vt 0.703990 0.631068
vt 0.755853 0.637439
vt 0.754592 0.643415
vt 0.697178 0.636316
vt 0.973164 0.437398
vt 0.921805 0.432115
vt 0.922696 0.426271
vt 0.979412 0.432142
vt 0.810496 0.635843
vt 0.812716 0.642273
vt 0.864116 0.626355
vt 0.910498 0.608710
vt 0.923510 0.613234
vt 0.870381 0.632487
vt 0.586280 0.443957
vt 0.645404 0.458187
vt 0.590841 0.483498
vt 0.580709 0.481158
vt 0.644012 0.519779
vt 0.583291 0.533353
vt 0.580296 0.495885
vt 0.590542 0.493720
vt 0.580296 0.488531
vt 0.594880 0.488636
vt 0.594806 0.578393
vt 0.580296 0.578303
vt 0.580690 0.570971
vt 0.590779 0.573272
vt 0.580296 0.585636
vt 0.590535 0.583481
vt 0.760313 0.519416
vt 0.788373 0.515183
vt 0.793057 0.523442
vt 0.763658 0.527057
vt 0.902998 0.554747
vt 0.874336 0.561994
vt 0.859215 0.552297
vt 0.896802 0.546502
vt 0.728157 0.505854
vt 0.753740 0.503945
vt 0.755592 0.508023
vt 0.729100 0.510137
vt 0.700867 0.522153
vt 0.731354 0.521371
vt 0.733900 0.530110
vt 0.695422 0.532652
vt 0.957727 0.545559
vt 0.930146 0.549574
vt 0.925378 0.541458
vt 0.954480 0.537875
vt 0.702057 0.506969
vt 0.703202 0.511146
vt 0.778562 0.500111
vt 0.803247 0.495563
vt 0.805778 0.499497
vt 0.781347 0.504243
vt 0.989386 0.558304
vt 0.964374 0.560765
vt 0.962483 0.556630
vt 0.987394 0.554324
vt 0.717309 0.555365
vt 0.744138 0.551615
vt 0.746594 0.556488
vt 0.719995 0.559818
vt 0.921979 0.535716
vt 0.950582 0.531190
vt 0.766343 0.533118
vt 0.736924 0.536916
vt 0.830717 0.519291
vt 0.828791 0.527884
vt 0.796065 0.530404
vt 0.643642 0.609628
vt 0.583015 0.623022
vt 0.892564 0.539625
vt 0.914003 0.521161
vt 0.885949 0.525126
vt 0.883302 0.520273
vt 0.911160 0.516260
vt 0.991038 0.533775
vt 0.982084 0.525560
vt 0.987482 0.543656
vt 0.858779 0.528252
vt 0.856936 0.523731
vt 0.939806 0.564257
vt 0.937063 0.560329
vt 0.817633 0.509272
vt 0.915707 0.569435
vt 0.891582 0.575247
vt 0.888254 0.571386
vt 0.912069 0.565418
vt 0.907211 0.560001
vt 0.882337 0.566527
vt 0.959707 0.550965
vt 0.933230 0.554795
vt 0.703138 0.516619
vt 0.730582 0.515958
vt 0.986337 0.549045
vt 0.758258 0.513855
vt 0.785125 0.509813
vt 0.810646 0.504513
vt 0.859841 0.543426
vt 0.772357 0.548062
vt 0.774616 0.553052
vt 0.967532 0.512462
vt 0.941587 0.516850
vt 0.938618 0.512102
vt 0.964469 0.508142
vt 0.800720 0.544984
vt 0.802763 0.549874
vt 0.827917 0.542737
vt 0.829212 0.547243
vt 0.703700 0.541517
vt 0.740074 0.543899
vt 0.769023 0.540187
vt 0.798148 0.537241
vt 0.889525 0.532820
vt 0.860226 0.535728
vt 0.918337 0.528855
vt 0.974009 0.519098
vt 0.946548 0.524359
vt 0.711335 0.548426
vt 0.827394 0.535370
vt 0.669351 0.489094
vt 0.851798 0.577925
vt 0.823500 0.584793
vt 0.791720 0.589736
vt 0.758890 0.592354
vt 0.858824 0.485808
vt 0.890284 0.480105
vt 0.830925 0.493462
vt 0.922688 0.476751
vt 0.954181 0.475705
vt 0.669184 0.579132
vt 0.585873 0.533632
vt 0.645699 0.548080
vt 0.727070 0.592627
vt 0.837983 0.464522
vt 0.803394 0.477296
vt 0.920411 0.453816
vt 0.878664 0.456010
vt 0.720247 0.612741
vt 0.759105 0.615486
vt 0.958918 0.455666
vt 0.801462 0.613982
vt 0.842354 0.606284
vt 0.877207 0.594564
vt 0.874933 0.636789
vt 0.814676 0.647498
vt 0.747561 0.454424
vt 0.803303 0.433492
vt 0.753675 0.647867
vt 0.928901 0.617534
vt 0.864338 0.423099
vt 0.923304 0.421925
vt 0.695422 0.641353
vt 0.980743 0.427183
vt 0.406905 0.816982
vt 0.349274 0.796914
vt 0.359199 0.387599
vt 0.399268 0.387406
vt 0.328200 0.964753
vt 0.248199 0.989611
vt 0.264001 0.943068
vt 0.331957 0.942650
vt 0.339146 0.891064
vt 0.274845 0.891434
vt 0.281265 0.812864
vt 0.410041 0.993420
vt 0.409314 0.952515
vt 0.408379 0.899901
vt 0.408847 0.926214
vt 0.335563 0.916856
vt 0.270785 0.917226
vt 0.309570 0.387457
vt 0.369557 0.276365
vt 0.333125 0.278651
vt 0.377322 0.167841
vt 0.392946 0.136865
vt 0.397019 0.260899
vt 0.394770 0.134390
vt 0.397255 0.274165
vt 0.368402 0.288032
vt 0.320155 0.337616
vt 0.041037 0.933168
vt 0.034250 0.882216
vt 0.077964 0.882023
vt 0.078852 0.932523
vt 0.078401 0.974366
vt 0.079493 0.968938
vt 0.439338 0.387243
vt 0.463813 0.796405
vt 0.490851 0.964030
vt 0.486308 0.941964
vt 0.554268 0.941778
vt 0.571723 0.988174
vt 0.477287 0.890450
vt 0.532378 0.811748
vt 0.541590 0.890248
vt 0.481786 0.916206
vt 0.546567 0.916000
vt 0.488954 0.386660
vt 0.425027 0.276118
vt 0.396682 0.136849
vt 0.413406 0.167681
vt 0.461535 0.278080
vt 0.426597 0.287773
vt 0.476599 0.336920
vt 0.039244 0.831211
vt 0.077076 0.831523
vt 0.075152 0.789691
vt 0.076435 0.795109
vt 0.171228 0.180789
vt 0.178864 0.610365
vt 0.138795 0.610529
vt 0.114320 0.201366
vt 0.087282 0.033742
vt 0.091825 0.055807
vt 0.023864 0.055993
vt 0.006410 0.009598
vt 0.100846 0.107321
vt 0.045754 0.186024
vt 0.036542 0.107523
vt 0.168091 0.004351
vt 0.168818 0.045256
vt 0.096347 0.081566
vt 0.169286 0.071558
vt 0.169754 0.097871
vt 0.031566 0.081771
vt 0.089179 0.611111
vt 0.153105 0.721653
vt 0.181450 0.860923
vt 0.164727 0.830091
vt 0.116598 0.719691
vt 0.181113 0.736872
vt 0.183362 0.863382
vt 0.180877 0.723606
vt 0.151536 0.709998
vt 0.101534 0.660851
vt 0.116684 0.932835
vt 0.121678 0.881831
vt 0.080776 0.974356
vt 0.228858 0.200857
vt 0.218933 0.610173
vt 0.249933 0.033019
vt 0.329934 0.008160
vt 0.314131 0.054703
vt 0.246175 0.055121
vt 0.238987 0.106707
vt 0.303287 0.106338
vt 0.296867 0.184908
vt 0.242569 0.080916
vt 0.307347 0.080546
vt 0.268562 0.610314
vt 0.208575 0.721407
vt 0.245007 0.719121
vt 0.200811 0.829930
vt 0.185186 0.860906
vt 0.209730 0.709740
vt 0.257977 0.660156
vt 0.114891 0.830879
vt 0.077527 0.789680
s 1
usemtl blood_sword
f 70/1/1 4/2/2 2/3/3 69/4/3
f 11/5/4 8/6/5 9/7/6 12/8/7
f 12/8/7 9/7/6 7/9/8 13/10/9
f 66/11/10 1/12/11 5/13/12 68/14/13
f 3/15/14 10/16/15 13/10/9 7/9/8
f 67/17/16 12/8/7 13/10/9 68/14/13
f 70/1/1 11/5/4 12/8/7 67/17/16
f 66/11/10 10/16/15 19/18/17 74/19/17
f 75/20/18 50/21/19 16/22/20 72/23/21
f 73/24/22 21/25/23 20/26/24 74/19/25
f 73/24/26 18/27/27 15/28/28 71/29/29
f 50/21/30 15/28/28 27/30/31 56/31/32
f 57/32/33 32/33/34 25/34/35 53/35/35
f 54/36/36 30/37/37 31/38/38 55/39/39
f 55/39/39 31/38/38 29/40/40 56/31/41
f 54/36/42 26/41/43 22/42/44 51/43/45
f 51/43/45 22/42/44 32/33/34 57/32/33
f 59/44/46 36/45/47 35/46/48 58/47/49
f 52/48/50 17/49/51 36/45/47 59/44/46
f 61/50/52 40/51/53 39/52/54 60/53/55
f 58/47/49 35/46/48 40/51/53 61/50/52
f 63/54/56 44/55/57 43/56/58 62/57/59
f 60/53/55 39/52/54 44/55/57 63/54/56
f 65/58/60 48/59/61 47/60/62 64/61/62
f 62/57/59 43/56/58 48/59/61 65/58/60
f 42/62/63 62/57/64 65/58/65 49/63/66
f 49/63/66 65/58/65 64/61/67 46/64/67
f 38/65/68 60/53/69 63/54/70 45/66/71
f 45/66/71 63/54/70 62/57/64 42/62/63
f 34/67/72 58/47/73 61/50/74 41/68/75
f 41/68/75 61/50/74 60/53/69 38/65/68
f 14/69/76 52/48/77 59/44/78 37/70/79
f 37/70/79 59/44/78 58/47/73 34/67/72
f 23/71/80 51/43/81 57/32/82 33/72/83
f 30/37/37 54/36/36 51/43/81 23/71/80
f 28/73/84 55/39/85 56/31/32 27/30/31
f 26/41/43 54/36/42 55/39/85 28/73/84
f 33/72/83 57/32/82 53/35/86 24/74/86
f 16/22/20 50/21/19 56/31/41 29/40/40
f 71/29/29 15/28/28 50/21/30 75/20/87
f 14/69/76 71/29/88 75/20/89 52/48/77
f 21/25/23 73/24/22 71/29/88 14/69/76
f 18/27/27 73/24/26 74/19/90 19/18/90
f 52/48/50 75/20/18 72/23/21 17/49/51
f 1/12/11 66/11/10 74/19/25 20/26/24
f 4/2/2 70/1/1 67/17/16 6/75/91
f 6/75/91 67/17/16 68/14/13 5/13/12
f 10/16/15 66/11/10 68/14/13 13/10/9
f 10/76/92 3/77/92 76/78/93 77/79/93
f 143/80/94 142/81/95 79/82/95 80/83/96
f 84/84/97 85/85/98 9/7/6 8/6/5
f 85/85/98 86/86/99 7/9/8 9/7/6
f 139/87/100 141/88/101 81/89/102 78/90/103
f 3/15/14 7/9/8 86/86/99 83/91/104
f 140/92/105 141/88/101 86/86/99 85/85/98
f 143/80/94 140/92/105 85/85/98 84/84/97
f 139/87/100 147/93/106 92/94/106 83/91/104
f 148/95/107 145/96/108 89/97/109 123/98/110
f 146/99/111 147/93/112 93/100/113 94/101/114
f 146/99/115 144/102/116 88/103/117 91/104/118
f 123/98/119 129/105/120 100/106/121 88/103/117
f 130/107/122 126/108/123 98/109/123 105/110/124
f 127/111/125 128/112/126 104/113/127 103/114/128
f 128/112/126 129/105/129 102/115/130 104/113/127
f 127/111/131 124/116/132 95/117/133 99/118/134
f 124/116/132 130/107/122 105/110/124 95/117/133
f 132/119/135 131/120/136 108/121/137 109/122/138
f 125/123/139 132/119/135 109/122/138 90/124/140
f 134/125/141 133/126/142 112/127/143 113/128/144
f 131/120/136 134/125/141 113/128/144 108/121/137
f 136/129/145 135/130/146 116/131/147 117/132/148
f 133/126/142 136/129/145 117/132/148 112/127/143
f 138/133/149 137/134/150 120/135/150 121/136/151
f 135/130/146 138/133/149 121/136/151 116/131/147
f 115/137/152 122/138/153 138/133/154 135/130/155
f 122/138/153 119/139/156 137/134/156 138/133/154
f 111/140/157 118/141/158 136/129/159 133/126/160
f 118/141/158 115/137/152 135/130/155 136/129/159
f 107/142/161 114/143/162 134/125/163 131/120/164
f 114/143/162 111/140/157 133/126/160 134/125/163
f 87/144/165 110/145/166 132/119/167 125/123/168
f 110/145/166 107/142/161 131/120/164 132/119/167
f 96/146/169 106/147/170 130/107/171 124/116/172
f 103/114/128 96/146/169 124/116/172 127/111/125
f 101/148/173 100/106/121 129/105/120 128/112/174
f 99/118/134 101/148/173 128/112/174 127/111/131
f 106/147/170 97/149/175 126/108/175 130/107/171
f 89/97/109 102/115/130 129/105/129 123/98/110
f 144/102/116 148/95/176 123/98/119 88/103/117
f 87/144/165 125/123/168 148/95/177 144/102/178
f 94/101/114 87/144/165 144/102/178 146/99/111
f 91/104/118 92/94/179 147/93/179 146/99/115
f 125/123/139 90/124/140 145/96/108 148/95/107
f 78/90/103 93/100/113 147/93/112 139/87/100
f 80/83/96 82/150/180 140/92/105 143/80/94
f 82/150/180 81/89/102 141/88/101 140/92/105
f 83/91/104 86/86/99 141/88/101 139/87/100
f 83/151/181 149/152/182 76/78/182 3/77/181
f 176/153/183 175/154/184 2/155/184 4/156/185
f 155/157/186 156/158/187 153/159/188 152/160/189
f 156/158/187 157/161/190 151/162/191 153/159/188
f 172/163/192 174/164/193 5/165/194 1/166/195
f 150/167/196 151/162/191 157/161/190 154/168/197
f 173/169/198 174/164/193 157/161/190 156/158/187
f 176/153/183 173/169/198 156/158/187 155/157/186
f 172/163/192 179/170/199 19/171/199 154/168/197
f 180/172/200 72/173/201 16/174/202 158/175/203
f 178/176/204 179/170/205 20/177/206 21/178/207
f 178/176/208 177/179/209 15/180/210 18/181/211
f 158/175/212 163/182/213 27/183/214 15/180/210
f 164/184/215 53/185/216 25/186/216 32/187/217
f 161/188/218 162/189/219 31/190/220 30/191/221
f 162/189/219 163/182/222 29/192/223 31/190/220
f 161/188/224 159/193/225 22/194/226 26/195/227
f 159/193/225 164/184/215 32/187/217 22/194/226
f 166/196/228 165/197/229 35/198/230 36/199/231
f 160/200/232 166/196/228 36/199/231 17/201/233
f 168/202/234 167/203/235 39/204/236 40/205/237
f 165/197/229 168/202/234 40/205/237 35/198/230
f 170/206/238 169/207/239 43/208/240 44/209/241
f 167/203/235 170/206/238 44/209/241 39/204/236
f 171/210/242 64/211/243 47/212/243 48/213/244
f 169/207/239 171/210/242 48/213/244 43/208/240
f 42/214/245 49/215/246 171/210/247 169/207/248
f 49/215/246 46/216/249 64/211/249 171/210/247
f 38/217/250 45/218/251 170/206/252 167/203/253
f 45/218/251 42/214/245 169/207/248 170/206/252
f 34/219/254 41/220/255 168/202/256 165/197/257
f 41/220/255 38/217/250 167/203/253 168/202/256
f 14/221/258 37/222/259 166/196/260 160/200/261
f 37/222/259 34/219/254 165/197/257 166/196/260
f 23/223/262 33/224/263 164/184/264 159/193/265
f 30/191/221 23/223/262 159/193/265 161/188/218
f 28/225/266 27/183/214 163/182/213 162/189/267
f 26/195/227 28/225/266 162/189/267 161/188/224
f 33/224/263 24/226/268 53/185/268 164/184/264
f 16/174/202 29/192/223 163/182/222 158/175/203
f 177/179/209 180/172/269 158/175/212 15/180/210
f 14/221/258 160/200/261 180/172/270 177/179/271
f 21/178/207 14/221/258 177/179/271 178/176/204
f 18/181/211 19/171/272 179/170/272 178/176/208
f 160/200/232 17/201/233 72/173/201 180/172/200
f 1/166/195 20/177/206 179/170/205 172/163/192
f 4/156/185 6/227/273 173/169/198 176/153/183
f 6/227/273 5/165/194 174/164/193 173/169/198
f 154/168/197 157/161/190 174/164/193 172/163/192
f 154/228/274 77/79/93 76/78/93 150/229/274
f 203/230/275 80/231/276 79/232/277 202/233/277
f 182/234/278 152/160/189 153/159/188 183/235/279
f 183/235/279 153/159/188 151/162/191 184/236/280
f 199/237/281 78/238/282 81/239/283 201/240/284
f 150/167/196 181/241/285 184/236/280 151/162/191
f 200/242/286 183/235/279 184/236/280 201/240/284
f 203/230/275 182/234/278 183/235/279 200/242/286
f 199/237/281 181/241/285 92/243/287 206/244/287
f 207/245/288 185/246/289 89/247/290 145/248/291
f 205/249/292 94/250/293 93/251/294 206/244/295
f 205/249/296 91/252/297 88/253/298 204/254/299
f 185/246/300 88/253/298 100/255/301 190/256/302
f 191/257/303 105/258/304 98/259/305 126/260/305
f 188/261/306 103/262/307 104/263/308 189/264/309
f 189/264/309 104/263/308 102/265/310 190/256/311
f 188/261/312 99/266/313 95/267/314 186/268/315
f 186/268/315 95/267/314 105/258/304 191/257/303
f 193/269/316 109/270/317 108/271/318 192/272/319
f 187/273/320 90/274/321 109/270/317 193/269/316
f 195/275/322 113/276/323 112/277/324 194/278/325
f 192/272/319 108/271/318 113/276/323 195/275/322
f 197/279/326 117/280/327 116/281/328 196/282/329
f 194/278/325 112/277/324 117/280/327 197/279/326
f 198/283/330 121/284/331 120/285/332 137/286/332
f 196/282/329 116/281/328 121/284/331 198/283/330
f 115/287/333 196/282/334 198/283/335 122/288/336
f 122/288/336 198/283/335 137/286/337 119/289/337
f 111/290/338 194/278/339 197/279/340 118/291/341
f 118/291/341 197/279/340 196/282/334 115/287/333
f 107/292/342 192/272/343 195/275/344 114/293/345
f 114/293/345 195/275/344 194/278/339 111/290/338
f 87/294/346 187/273/347 193/269/348 110/295/349
f 110/295/349 193/269/348 192/272/343 107/292/342
f 96/296/350 186/268/351 191/257/352 106/297/353
f 103/262/307 188/261/306 186/268/351 96/296/350
f 101/298/354 189/264/355 190/256/302 100/255/301
f 99/266/313 188/261/312 189/264/355 101/298/354
f 106/297/353 191/257/352 126/260/356 97/299/356
f 89/247/290 185/246/289 190/256/311 102/265/310
f 204/254/299 88/253/298 185/246/300 207/245/357
f 87/294/346 204/254/358 207/245/359 187/273/347
f 94/250/293 205/249/292 204/254/358 87/294/346
f 91/252/297 205/249/296 206/244/360 92/243/360
f 187/273/320 207/245/288 145/248/291 90/274/321
f 78/238/282 199/237/281 206/244/295 93/251/294
f 80/231/276 203/230/275 200/242/286 82/300/361
f 82/300/361 200/242/286 201/240/284 81/239/283
f 181/241/285 199/237/281 201/240/284 184/236/280
f 181/301/362 150/229/362 76/78/182 149/152/182
f 10/76/363 77/79/363 154/228/363 19/302/363
f 83/151/364 92/303/364 181/301/364 149/152/364
f 231/304/365 221/305/365 211/306/366 225/307/366
f 229/308/367 217/309/367 215/310/368 226/311/368
f 230/312/369 223/313/369 213/314/370 227/315/370
f 228/316/371 219/317/371 209/318/372 224/319/372
f 227/315/370 213/314/370 219/317/371 228/316/371
f 225/307/366 211/306/366 217/309/367 229/308/367
f 226/311/368 215/310/368 223/320/369 230/321/369
f 224/319/372 209/318/372 221/322/365 231/323/365
f 239/324/373 246/325/374 249/326/375 251/327/376
f 241/328/377 229/308/367 226/311/368 234/329/378
f 245/330/379 231/304/365 225/307/366 232/331/380
f 243/332/381 230/312/369 227/315/370 236/333/382
f 208/334/383 247/335/384 244/336/385 220/337/386
f 218/338/387 238/339/388 247/335/384 208/334/383
f 212/340/389 237/341/390 238/339/388 218/338/387
f 214/342/391 235/343/392 242/344/393 222/345/394
f 232/331/380 225/307/366 229/308/367 241/328/377
f 234/329/378 226/311/368 230/321/369 243/346/381
f 236/333/382 227/315/370 228/316/371 239/324/373
f 239/324/373 228/316/371 224/319/372 246/325/374
f 222/347/394 242/348/393 237/341/390 212/340/389
f 220/349/386 244/350/385 233/351/395 210/352/396
f 216/353/397 240/354/398 235/343/392 214/342/391
f 246/325/374 224/319/372 231/323/365 245/355/379
f 293/356/399 273/357/400 244/358/385 247/359/384
f 267/360/401 263/361/402 305/362/403 296/363/404
f 232/331/380 241/328/377 264/364/405 266/365/406
f 257/366/407 254/367/408 300/368/409 307/369/410
f 304/370/411 299/371/412 282/372/413 278/373/414
f 252/374/415 248/375/416 310/376/417 303/377/418
f 236/333/382 239/324/373 251/327/376 255/378/419
f 248/375/416 269/379/420 309/380/421 310/376/417
f 243/332/381 236/333/382 255/378/419 258/381/422
f 291/382/423 293/356/399 247/359/384 238/383/388
f 245/330/379 232/331/380 266/365/406 270/384/424
f 279/385/425 281/386/426 235/387/392 240/388/398
f 234/329/378 243/346/381 258/389/422 260/390/427
f 285/391/428 287/392/429 237/393/390 242/394/393
f 246/325/374 245/355/379 270/395/424 249/326/375
f 263/361/402 261/396/430 298/397/431 305/362/403
f 210/352/396 233/351/395 240/354/398 216/353/397
f 241/328/377 234/329/378 260/390/427 264/364/405
f 308/398/432 297/399/433 276/400/434 272/401/435
f 306/402/436 301/403/437 288/404/438 284/405/439
f 302/406/440 311/407/441 294/408/442 290/409/443
f 301/403/437 302/406/440 290/409/443 288/404/438
f 299/371/412 306/410/436 284/411/439 282/372/413
f 297/399/433 304/370/411 278/373/414 276/400/434
f 273/412/400 275/413/444 233/414/395 244/415/385
f 281/386/426 285/416/428 242/417/393 235/387/392
f 275/413/444 279/385/425 240/388/398 233/414/395
f 287/392/429 291/382/423 238/383/388 237/393/390
f 254/367/408 252/374/415 303/377/418 300/368/409
f 261/396/430 257/418/407 307/419/410 298/397/431
f 267/360/401 269/420/420 271/421/445 268/422/446
f 268/422/446 271/421/445 270/384/424 266/365/406
f 252/374/415 254/367/408 256/423/447 253/424/448
f 253/424/448 256/423/447 255/378/419 251/327/376
f 269/379/420 248/375/416 250/425/449 271/426/445
f 271/426/445 250/425/449 249/326/375 270/395/424
f 261/396/430 263/361/402 265/427/450 262/428/451
f 262/428/451 265/427/450 264/364/405 260/390/427
f 263/361/402 267/360/401 268/422/446 265/427/450
f 265/427/450 268/422/446 266/365/406 264/364/405
f 254/367/408 257/366/407 259/429/452 256/423/447
f 256/423/447 259/429/452 258/381/422 255/378/419
f 257/418/407 261/396/430 262/428/451 259/430/452
f 259/430/452 262/428/451 260/390/427 258/389/422
f 248/375/416 252/374/415 253/424/448 250/425/449
f 250/425/449 253/424/448 251/327/376 249/326/375
f 273/357/400 293/356/399 295/431/453 274/432/454
f 274/432/454 295/431/453 294/408/442 272/433/435
f 285/416/428 281/386/426 283/434/455 286/435/456
f 286/435/456 283/434/455 282/372/413 284/411/439
f 279/385/425 275/413/444 277/436/457 280/437/458
f 280/437/458 277/436/457 276/400/434 278/373/414
f 291/382/423 287/392/429 289/438/459 292/439/460
f 292/439/460 289/438/459 288/404/438 290/409/443
f 293/356/399 291/382/423 292/439/460 295/431/453
f 295/431/453 292/439/460 290/409/443 294/408/442
f 287/392/429 285/391/428 286/440/456 289/438/459
f 289/438/459 286/440/456 284/405/439 288/404/438
f 281/386/426 279/385/425 280/437/458 283/434/455
f 283/434/455 280/437/458 278/373/414 282/372/413
f 275/413/444 273/412/400 274/441/454 277/436/457
f 277/436/457 274/441/454 272/401/435 276/400/434
f 311/407/441 308/442/432 272/433/435 294/408/442
f 297/399/433 308/398/432 309/443/421 296/363/404
f 299/371/412 304/370/411 305/362/403 298/397/431
f 301/403/437 306/402/436 307/369/410 300/368/409
f 311/407/441 302/406/440 303/377/418 310/376/417
f 302/406/440 301/403/437 300/368/409 303/377/418
f 304/370/411 297/399/433 296/363/404 305/362/403
f 306/410/436 299/371/412 298/397/431 307/419/410
f 308/442/432 311/407/441 310/376/417 309/380/421
f 269/420/420 267/360/401 296/363/404 309/443/421
f 386/444/461 394/445/462 416/446/463 421/447/464
f 394/445/462 407/448/465 423/449/466 416/446/463
f 407/450/465 392/451/467 420/452/468 423/453/466
f 400/454/469 397/455/470 414/456/471 411/457/472
f 392/451/467 403/458/473 410/459/474 420/452/468
f 389/460/475 400/461/469 411/462/472 417/463/476
f 424/464/477 419/465/478 314/466/479 319/467/480
f 418/468/481 412/469/482 318/470/483 312/471/484
f 312/471/484 318/470/483 320/472/485 317/473/486
f 316/474/487 320/475/485 318/476/483 313/477/488
f 317/473/486 320/472/485 319/467/480 314/466/479
f 319/478/480 320/475/485 316/474/487 315/479/489
f 346/480/490 359/481/491 328/482/492 327/483/493
f 337/484/494 350/485/495 322/486/496 321/487/497
f 212/488/389 218/489/387 347/490/498 355/491/499
f 350/492/495 356/493/500 325/494/501 322/495/496
f 340/496/502 353/497/503 324/498/504 323/499/505
f 222/500/394 212/488/389 355/491/499 349/501/506
f 208/502/383 220/503/386 344/504/507 358/505/508
f 220/506/386 210/507/396 341/508/509 344/509/507
f 371/510/510 364/511/511 331/512/512 329/513/513
f 323/499/505 324/498/504 368/514/514 379/515/515
f 325/494/501 327/483/493 373/516/516 365/517/517
f 328/482/492 326/518/518 377/519/519 361/520/520
f 415/521/521 424/522/477 319/478/480 315/479/489
f 324/498/504 321/487/497 383/523/522 368/514/514
f 367/524/523 382/525/524 333/526/525 330/527/526
f 326/528/518 323/499/505 379/515/515 377/529/519
f 353/497/503 337/484/494 321/487/497 324/498/504
f 343/530/527 340/496/502 323/499/505 326/528/518
f 382/525/524 371/531/510 329/532/513 333/526/525
f 210/507/396 216/533/397 352/534/528 341/508/509
f 356/493/500 346/480/490 327/483/493 325/494/501
f 359/481/491 343/535/527 326/518/518 328/482/492
f 214/536/391 222/537/394 349/538/506 338/539/529
f 218/489/387 208/502/383 358/505/508 347/490/498
f 350/485/495 337/484/494 339/540/530 351/541/531
f 351/541/531 339/540/530 338/539/529 349/538/506
f 353/497/503 340/496/502 342/542/532 354/543/533
f 354/543/533 342/542/532 341/508/509 352/534/528
f 356/493/500 350/492/495 351/544/531 357/545/534
f 357/545/534 351/544/531 349/501/506 355/491/499
f 340/496/502 343/530/527 345/546/535 342/542/532
f 342/542/532 345/546/535 344/509/507 341/508/509
f 359/481/491 346/480/490 348/547/536 360/548/537
f 360/548/537 348/547/536 347/490/498 358/505/508
f 343/535/527 359/481/491 360/548/537 345/549/535
f 345/549/535 360/548/537 358/505/508 344/504/507
f 337/484/494 353/497/503 354/543/533 339/540/530
f 339/540/530 354/543/533 352/534/528 338/539/529
f 346/480/490 356/493/500 357/545/534 348/547/536
f 348/547/536 357/545/534 355/491/499 347/490/498
f 216/533/397 214/536/391 338/539/529 352/534/528
f 321/487/497 322/486/496 370/550/538 383/523/522
f 364/511/511 374/551/539 336/552/540 331/512/512
f 376/553/541 380/554/542 334/555/543 335/556/544
f 374/551/539 362/557/545 332/558/546 336/552/540
f 362/557/545 376/559/541 335/560/544 332/558/546
f 380/554/542 367/524/523 330/527/526 334/555/543
f 322/495/496 325/494/501 365/517/517 370/561/538
f 374/551/539 364/511/511 366/562/547 375/563/548
f 375/563/548 366/562/547 365/517/517 373/516/516
f 362/557/545 374/551/539 375/563/548 363/564/549
f 363/564/549 375/563/548 373/516/516 361/520/520
f 371/531/510 382/525/524 384/565/550 372/566/551
f 372/566/551 384/565/550 383/523/522 370/550/538
f 382/525/524 367/524/523 369/567/552 384/565/550
f 384/565/550 369/567/552 368/514/514 383/523/522
f 380/554/542 376/553/541 378/568/553 381/569/554
f 381/569/554 378/568/553 377/529/519 379/515/515
f 364/511/511 371/510/510 372/570/551 366/562/547
f 366/562/547 372/570/551 370/561/538 365/517/517
f 376/559/541 362/557/545 363/564/549 378/571/553
f 378/571/553 363/564/549 361/520/520 377/519/519
f 367/524/523 380/554/542 381/569/554 369/567/552
f 369/567/552 381/569/554 379/515/515 368/514/514
f 327/483/493 328/482/492 361/520/520 373/516/516
f 409/572/555 418/468/481 312/471/484 317/473/486
f 332/558/546 335/560/544 401/573/556 388/574/557
f 331/512/512 336/552/540 404/575/558 391/576/559
f 330/527/526 333/526/525 395/577/560 385/578/561
f 333/526/525 329/532/513 406/579/562 395/577/560
f 335/556/544 334/555/543 398/580/563 401/581/556
f 422/582/564 415/521/521 315/479/489 316/474/487
f 419/465/478 409/572/555 317/473/486 314/466/479
f 397/455/470 386/444/461 421/447/464 414/456/471
f 412/583/482 413/584/565 313/477/488 318/476/483
f 336/552/540 332/558/546 388/574/557 404/575/558
f 334/555/543 330/527/526 385/578/561 398/580/563
f 329/513/513 331/512/512 391/576/559 406/585/562
f 407/448/465 394/445/462 396/586/566 408/587/567
f 408/587/567 396/586/566 395/577/560 406/579/562
f 386/444/461 397/455/470 399/588/568 387/589/569
f 387/589/569 399/588/568 398/580/563 385/578/561
f 392/451/467 407/450/465 408/590/567 393/591/570
f 393/591/570 408/590/567 406/585/562 391/576/559
f 397/455/470 400/454/469 402/592/571 399/588/568
f 399/588/568 402/592/571 401/581/556 398/580/563
f 389/460/475 403/458/473 405/593/572 390/594/573
f 390/594/573 405/593/572 404/575/558 388/574/557
f 400/461/469 389/460/475 390/594/573 402/595/571
f 402/595/571 390/594/573 388/574/557 401/573/556
f 394/445/462 386/444/461 387/589/569 396/586/566
f 396/586/566 387/589/569 385/578/561 395/577/560
f 403/458/473 392/451/467 393/591/570 405/593/572
f 405/593/572 393/591/570 391/576/559 404/575/558
f 413/584/565 422/582/564 316/474/487 313/477/488
f 418/596/481 409/597/555 410/459/474 417/463/476
f 424/598/477 415/599/521 416/446/463 423/449/466
f 409/597/555 419/600/478 420/452/468 410/459/474
f 412/601/482 418/596/481 417/463/476 411/462/472
f 422/602/564 413/603/565 414/456/471 421/447/464
f 419/600/478 424/604/477 423/453/466 420/452/468
f 415/599/521 422/602/564 421/447/464 416/446/463
f 413/603/565 412/605/482 411/457/472 414/456/471
f 403/458/473 389/460/475 417/463/476 410/459/474
f 430/606/574 425/607/575 433/608/576 431/609/577
f 427/610/578 426/611/578 438/612/579 434/613/580
f 435/614/581 437/615/582 428/616/583 425/607/584
f 429/617/585 427/610/586 434/613/587 440/618/588
f 435/614/589 441/619/590 442/620/590 436/621/591
f 436/621/591 442/620/590 440/618/588 434/613/587
f 437/615/582 435/614/581 436/621/592 439/622/593
f 439/622/593 436/621/592 434/613/580 438/612/579
f 441/619/590 435/614/589 425/607/575 430/606/574
f 425/607/584 428/616/583 432/623/594 433/608/595
f 447/624/596 446/625/597 444/626/598 445/627/598
f 448/628/599 447/624/600 445/627/601 443/629/602
f 450/630/603 449/631/604 447/624/600 448/628/599
f 449/631/605 451/632/606 446/625/597 447/624/596
f 433/608/595 432/623/594 451/632/606 449/631/605
f 431/609/577 433/608/576 449/631/604 450/630/603
f 427/633/607 429/634/607 454/635/607 453/636/607
f 426/637/608 427/633/608 453/636/608 452/638/608
f 430/606/574 431/609/577 460/639/609 455/640/610
f 457/641/611 461/642/612 465/643/613 456/644/611
f 462/645/614 455/640/615 458/646/616 464/647/617
f 429/617/585 440/618/588 461/642/618 457/641/619
f 462/645/620 463/648/621 442/620/590 441/619/590
f 463/648/621 461/642/618 440/618/588 442/620/590
f 464/647/617 466/649/622 463/648/623 462/645/614
f 466/649/622 465/643/613 461/642/612 463/648/623
f 441/619/590 430/606/574 455/640/610 462/645/620
f 455/640/615 460/639/624 459/650/625 458/646/616
f 470/651/626 468/652/627 467/653/627 469/654/628
f 448/628/599 443/629/602 468/652/629 470/651/630
f 450/630/603 448/628/599 470/651/630 471/655/631
f 471/655/632 470/651/626 469/654/628 472/656/633
f 460/639/624 471/655/632 472/656/633 459/650/625
f 431/609/577 450/630/603 471/655/631 460/639/609
f 457/657/634 474/658/634 454/635/634 429/634/634
f 456/659/635 473/660/635 474/658/635 457/657/635
f 478/661/636 479/662/637 480/663/638 475/664/639
f 476/665/640 481/666/641 438/667/642 426/668/640
f 482/669/643 475/664/644 428/670/645 437/671/646
f 477/672/647 484/673/648 481/666/649 476/665/650
f 482/669/651 483/674/652 486/675/653 485/676/653
f 483/674/652 481/666/649 484/673/648 486/675/653
f 437/671/646 439/677/654 483/674/655 482/669/643
f 439/677/654 438/667/642 481/666/641 483/674/655
f 485/676/653 478/661/636 475/664/639 482/669/651
f 475/664/644 480/663/656 432/678/657 428/670/645
f 487/679/658 445/680/659 444/681/659 446/682/660
f 488/683/661 443/684/662 445/680/663 487/679/664
f 490/685/665 488/683/661 487/679/664 489/686/666
f 489/686/667 487/679/658 446/682/660 451/687/668
f 480/663/656 489/686/667 451/687/668 432/678/657
f 479/662/637 490/685/665 489/686/666 480/663/638
f 476/688/669 453/636/669 454/635/669 477/689/669
f 426/690/670 452/638/670 453/636/670 476/688/670
f 478/661/636 491/691/671 493/692/672 479/662/637
f 492/693/673 456/694/673 465/695/674 494/696/675
f 495/697/676 464/698/677 458/699/678 491/691/679
f 477/672/647 492/693/680 494/696/681 484/673/648
f 495/697/682 485/676/653 486/675/653 496/700/683
f 496/700/683 486/675/653 484/673/648 494/696/681
f 464/698/677 495/697/676 496/700/684 466/701/685
f 466/701/685 496/700/684 494/696/675 465/695/674
f 485/676/653 495/697/682 491/691/671 478/661/636
f 491/691/679 458/699/678 459/702/686 493/692/687
f 497/703/688 469/704/689 467/705/690 468/706/690
f 488/683/661 497/703/691 468/706/692 443/684/662
f 490/685/665 498/707/693 497/703/691 488/683/661
f 498/707/694 472/708/695 469/704/689 497/703/688
f 493/692/687 459/702/686 472/708/695 498/707/694
f 479/662/637 493/692/672 498/707/693 490/685/665
f 492/709/696 477/689/696 454/635/696 474/658/696
f 456/710/697 492/709/697 474/658/697 473/660/697
